#N canvas 152 147 768 490 10;
#X msg 287 130 start;
#X msg 419 185 stop;
#X obj 306 80 route 1 0;
#X obj 306 102 t b b;
#X obj 120 366 loadbang;
#X obj 20 322 clip~ -1 1;
#X obj 33 425 metro 100;
#X obj 21 38 cnv 15 198 90 empty \$0-cnv src/2ch 13 42 0 32 -262144
-262144 0;
#N canvas 482 138 450 278 (subpatch) 0;
#X array \$0-buf-rec-left 4410 float 0 black black;
#X coords 0 1 4409 -1 200 70 1;
#X restore 20 60 graph;
#X obj 195 20 tgl 25 0 \$0-rec-start/stop empty s:0-rec-start/stop
-110 6 0 10 -151139 -258049 -9911 0 1;
#X obj 526 180 s \$0-cnv;
#X msg 553 136 label recording;
#X msg 526 158 color #ff0000 #ff00ff #ffffff;
#X obj 526 114 t b b;
#X obj 551 284 s \$0-cnv;
#X obj 551 218 t b b;
#X obj 526 86 route 1 0;
#X obj 526 60 tgl 15 0 empty \$0-rec-start/stop r:0-rec-start/stop
17 7 0 10 -262144 -1 -1 0 1;
#X obj 306 60 tgl 15 0 empty \$0-rec-start/stop r:0-rec-start/stop
17 7 0 10 -262144 -1 -1 0 1;
#X obj 333 174 t a a;
#X msg 333 196 open \$1;
#X msg 360 218 set \$1;
#X obj 419 207 t b a;
#X obj 419 229 del 200;
#X obj 387 451 outlet;
#X text 431 451 (1) rec. done w/ filename;
#X obj 33 405 tgl 15 0 empty empty empty 17 7 0 10 -262144 -1 -1 1
1;
#X msg 120 388 1;
#X msg 551 262 color #ffffff #ff00ff #ffcc77;
#X obj 333 270 writesf~ 2;
#X obj 242 20 inlet;
#X obj 190 322 clip~ -1 1;
#X text 28 381 record stereo!;
#N canvas 482 138 450 278 (subpatch) 0;
#X array \$0-buf-rec-right 4410 float 0 black black;
#X coords 0 1 4409 -1 200 70 1;
#X restore 20 145 graph;
#X obj 203 425 metro 100;
#X obj 203 405 tgl 15 0 empty empty empty 17 7 0 10 -262144 -1 -1 1
1;
#X obj 20 451 tabwrite~ \$0-buf-rec-left;
#X obj 190 451 tabwrite~ \$0-buf-rec-right;
#X obj 20 266 inlet~;
#X obj 190 266 inlet~;
#X msg 578 240 label src/2ch;
#X obj 333 130 get-time-string;
#X text 611 451 dianaband @ August/2017;
#X msg 387 337 rec-2017-8-20-20-14-43-267.wav;
#X obj 333 152 makefilename rec-%s.wav;
#X msg 407 387 set \$1;
#X obj 407 365 list;
#X symbolatom 23 217 32 0 0 0 - #0-recfilename #0-NONE, f 32;
#X obj 407 409 s \$0-recfilename;
#X connect 0 0 29 0;
#X connect 1 0 22 0;
#X connect 2 0 3 0;
#X connect 2 1 1 0;
#X connect 3 0 0 0;
#X connect 3 1 41 0;
#X connect 4 0 27 0;
#X connect 5 0 29 0;
#X connect 5 0 36 0;
#X connect 6 0 36 0;
#X connect 11 0 10 0;
#X connect 12 0 10 0;
#X connect 13 0 12 0;
#X connect 13 1 11 0;
#X connect 15 0 28 0;
#X connect 15 1 40 0;
#X connect 16 0 13 0;
#X connect 16 1 15 0;
#X connect 17 0 16 0;
#X connect 18 0 2 0;
#X connect 19 0 20 0;
#X connect 19 1 21 0;
#X connect 20 0 29 0;
#X connect 21 0 43 0;
#X connect 22 0 23 0;
#X connect 22 1 29 0;
#X connect 23 0 43 0;
#X connect 26 0 6 0;
#X connect 27 0 26 0;
#X connect 27 0 35 0;
#X connect 28 0 14 0;
#X connect 30 0 9 0;
#X connect 31 0 29 1;
#X connect 31 0 37 0;
#X connect 34 0 37 0;
#X connect 35 0 34 0;
#X connect 38 0 5 0;
#X connect 39 0 31 0;
#X connect 40 0 14 0;
#X connect 41 0 44 0;
#X connect 43 0 24 0;
#X connect 43 0 46 0;
#X connect 44 0 19 0;
#X connect 45 0 48 0;
#X connect 46 0 45 0;
#X coords 0 -1 1 1 200 215 1 20 20;
