#N canvas 101 141 610 487 10;
#N canvas 482 138 450 278 (subpatch) 0;
#X array \$0-buf-rec-right 4410 float 0;
#X coords 0 1 4409 -1 200 70 1;
#X restore 20 145 graph;
#X msg 287 130 start;
#X msg 419 185 stop;
#X obj 306 80 route 1 0;
#X obj 306 102 t b b;
#X obj 120 366 loadbang;
#X obj 20 322 clip~ -1 1;
#X obj 33 425 metro 100;
#N canvas 482 138 450 278 (subpatch) 0;
#X array \$0-buf-rec-left 4410 float 0;
#X coords 0 1 4409 -1 200 70 1;
#X restore 20 60 graph;
#X obj 195 20 tgl 25 0 \$0-rec-start/stop empty s:0-rec-start/stop
-110 6 0 10 -151139 -258049 -9911 0 1;
#X obj 306 60 tgl 15 0 empty \$0-rec-start/stop r:0-rec-start/stop
17 7 0 10 -262144 -1 -1 0 1;
#X obj 333 174 t a a;
#X msg 333 196 open \$1;
#X msg 360 218 set \$1;
#X obj 419 207 t b a;
#X obj 419 229 del 200;
#X obj 387 451 outlet;
#X text 431 451 (1) rec. done w/ filename;
#X obj 33 405 tgl 15 0 empty empty empty 17 7 0 10 -262144 -1 -1 1
1;
#X msg 120 388 1;
#X obj 333 270 writesf~ 2;
#X obj 242 20 inlet;
#X obj 190 322 clip~ -1 1;
#X text 28 381 record stereo!;
#X obj 203 425 metro 100;
#X obj 203 405 tgl 15 0 empty empty empty 17 7 0 10 -262144 -1 -1 1
1;
#X obj 20 451 tabwrite~ \$0-buf-rec-left;
#X obj 190 451 tabwrite~ \$0-buf-rec-right;
#X obj 20 266 inlet~;
#X obj 190 266 inlet~;
#X text 449 10 dianaband @ August/2017;
#X msg 387 337 rec-2017-8-21-18-44-58-479.wav;
#X obj 333 152 makefilename rec-%s.wav;
#X msg 407 387 set \$1;
#X obj 407 365 list;
#X symbolatom 23 217 32 0 0 0 - #0-recfilename #0-NONE, f 32;
#X obj 407 409 s \$0-recfilename;
#N canvas 741 254 450 300 get-time-string 1;
#X obj 106 109 time;
#X obj 24 51 bng 15 250 50 0 empty empty empty 17 7 0 10 -262144 -1
-1;
#X obj 24 109 date;
#X obj 24 71 t b b;
#X obj 261 141 int;
#X obj 24 23 inlet;
#X text 91 40 dependency: zexy \, cyclone;
#X text 91 22 get unique time string (each 1ms);
#X obj 24 191 list;
#X obj 24 213 outlet;
#X obj 24 169 sprintf %s-%02s-%02s-%02s-%02s-%02s-%03s;
#X connect 0 0 10 3;
#X connect 0 1 10 4;
#X connect 0 2 10 5;
#X connect 0 3 4 0;
#X connect 1 0 3 0;
#X connect 2 0 10 0;
#X connect 2 1 10 1;
#X connect 2 2 10 2;
#X connect 3 0 2 0;
#X connect 3 1 0 0;
#X connect 4 0 10 6;
#X connect 5 0 1 0;
#X connect 8 0 9 0;
#X connect 10 0 8 0;
#X restore 333 130 pd get-time-string;
#X connect 1 0 20 0;
#X connect 2 0 14 0;
#X connect 3 0 4 0;
#X connect 3 1 2 0;
#X connect 4 0 1 0;
#X connect 4 1 37 0;
#X connect 5 0 19 0;
#X connect 6 0 20 0;
#X connect 6 0 26 0;
#X connect 7 0 26 0;
#X connect 10 0 3 0;
#X connect 11 0 12 0;
#X connect 11 1 13 0;
#X connect 12 0 20 0;
#X connect 13 0 31 0;
#X connect 14 0 15 0;
#X connect 14 1 20 0;
#X connect 15 0 31 0;
#X connect 18 0 7 0;
#X connect 19 0 18 0;
#X connect 19 0 25 0;
#X connect 21 0 9 0;
#X connect 22 0 20 1;
#X connect 22 0 27 0;
#X connect 24 0 27 0;
#X connect 25 0 24 0;
#X connect 28 0 6 0;
#X connect 29 0 22 0;
#X connect 31 0 16 0;
#X connect 31 0 34 0;
#X connect 32 0 11 0;
#X connect 33 0 36 0;
#X connect 34 0 33 0;
#X connect 37 0 32 0;
#X coords 0 -1 1 1 200 215 1 20 20;
