#N canvas 397 89 770 708 10;
#X obj 277 300 table \$0-sound 8820;
#X obj 41 402 soundfiler;
#X obj 164 182 f \$0;
#X obj 164 160 bng 15 250 50 0 empty empty empty 17 7 0 10 -262144
-1 -1;
#X obj 41 182 list append;
#X msg 41 160 read -resize;
#X msg 41 270 read -resize somesound.wav;
#X obj 41 204 list prepend set;
#X obj 41 226 list trim;
#X obj 41 138 t b a;
#X obj 41 292 list append;
#X msg 41 380 read -resize somesound.wav 1005-sound;
#X obj 41 314 list prepend set;
#X obj 41 336 list trim;
#X obj 41 248 t b a;
#X obj 41 358 t b a;
#X obj 164 138 loadbang;
#X text 636 621 dianaband;
#X obj 54 52 inlet;
#X msg 164 204 \$1-sound;
#X text 39 24 (1) filename;
#X obj 41 424 sel 0;
#X obj 41 106 t a a;
#X obj 290 626 print [wav~];
#X msg 64 496 error: cannot load the file!;
#X obj 370 472 samplerate~;
#X obj 351 494 /;
#X text 3 -26 .anchor.;
#X msg 351 516 length: \$1 seconds;
#X msg 333 538 samples: \$1 ea;
#X text 279 270 sound loads to ...;
#X text 327 601 messages to post ...;
#X obj 482 102 inlet;
#X obj 434 182 sel 0;
#X msg 192 74 error: file should be loaded first!!;
#X text 571 397 [1] audio;
#X text 636 641 2016;
#X text 692 681 .anchor.;
#X msg 108 106 error: file name should be a string!!;
#X obj 54 74 route float bang;
#X obj 250 196 list prepend;
#X msg 331 174 loading:;
#X obj 331 152 loadbang;
#X obj 250 218 list trim;
#X obj 87 518 f \$0;
#X msg 87 540 \; \$1-sound resize 1 \; \$1-sound 0 0 \;;
#X obj 577 470 loadbang;
#X msg 577 492 0;
#X msg 41 608 0;
#X msg 73 608 1;
#X obj 73 446 t b a;
#X obj 41 474 t b b b;
#X text 580 444 loaded? check.;
#X floatatom 126 419 5 0 0 1 s:0-samples - #0-samples, f 5;
#X obj 577 514 v \$0-is-loaded;
#X obj 514 146 v \$0-is-loaded;
#X obj 41 636 v \$0-is-loaded;
#X floatatom 514 168 5 0 0 0 - - -, f 5;
#X obj 572 304 phasor~;
#X obj 572 326 *~;
#X floatatom 572 285 5 0 0 0 - - -, f 5;
#X obj 604 246 v \$0-playspeed_x1;
#X obj 572 263 *;
#X obj 572 224 t a b;
#X text 340 354 info. msg. / playback speed;
#X obj 333 383 t a a b b a;
#X obj 388 406 samplerate~;
#X obj 388 428 /;
#X obj 572 370 outlet~;
#X floatatom 642 312 5 0 0 2 r:0-samples #0-samples -, f 5;
#X obj 388 450 v \$0-playspeed_x1;
#X obj 577 540 loadbang;
#X msg 577 562 0;
#X obj 577 584 v \$0-playspeed_x1;
#X text 481 74 (2) play speed : 1 for x1;
#X obj 482 124 t a b;
#X obj 482 207 spigot;
#X obj 521 187 tgl 15 0 empty empty empty 17 7 0 10 -262144 -1 -1 0
1;
#X obj 572 348 tabread~ \$0-sound;
#X text 649 123 (3) rewind!;
#X obj 652 148 inlet;
#X msg 652 190 0;
#X obj 652 170 bng 15 250 50 0 empty empty empty 17 7 0 10 -262144
-1 -1;
#X text 318 14 NOTE!! filename will be searched relative to THIS patch's
location. so copy and keep it nearby to the main patch. e.g. the very
same folder or ./lib/ and use ../data/*.wav etc.;
#X connect 1 0 21 0;
#X connect 1 0 53 0;
#X connect 2 0 19 0;
#X connect 3 0 2 0;
#X connect 4 0 7 0;
#X connect 5 0 4 0;
#X connect 6 0 10 0;
#X connect 7 0 8 0;
#X connect 8 0 14 0;
#X connect 9 0 5 0;
#X connect 9 1 4 1;
#X connect 10 0 12 0;
#X connect 11 0 1 0;
#X connect 12 0 13 0;
#X connect 13 0 15 0;
#X connect 14 0 6 0;
#X connect 14 1 6 0;
#X connect 15 0 11 0;
#X connect 15 1 11 0;
#X connect 16 0 3 0;
#X connect 18 0 39 0;
#X connect 19 0 10 1;
#X connect 21 0 51 0;
#X connect 21 1 50 0;
#X connect 22 0 9 0;
#X connect 22 1 40 0;
#X connect 24 0 23 0;
#X connect 25 0 26 1;
#X connect 26 0 28 0;
#X connect 28 0 23 0;
#X connect 29 0 23 0;
#X connect 32 0 75 0;
#X connect 33 0 34 0;
#X connect 34 0 23 0;
#X connect 38 0 23 0;
#X connect 39 0 38 0;
#X connect 39 1 38 0;
#X connect 39 2 22 0;
#X connect 40 0 43 0;
#X connect 41 0 40 1;
#X connect 42 0 41 0;
#X connect 43 0 23 0;
#X connect 44 0 45 0;
#X connect 46 0 47 0;
#X connect 47 0 54 0;
#X connect 48 0 56 0;
#X connect 49 0 56 0;
#X connect 50 0 49 0;
#X connect 50 1 65 0;
#X connect 51 0 48 0;
#X connect 51 1 24 0;
#X connect 51 2 44 0;
#X connect 55 0 57 0;
#X connect 57 0 33 0;
#X connect 57 0 77 0;
#X connect 58 0 59 0;
#X connect 59 0 78 0;
#X connect 60 0 58 0;
#X connect 61 0 62 1;
#X connect 62 0 60 0;
#X connect 63 0 62 0;
#X connect 63 1 61 0;
#X connect 65 0 29 0;
#X connect 65 1 26 0;
#X connect 65 2 25 0;
#X connect 65 3 66 0;
#X connect 65 4 67 1;
#X connect 66 0 67 0;
#X connect 67 0 70 0;
#X connect 69 0 59 1;
#X connect 71 0 72 0;
#X connect 72 0 73 0;
#X connect 75 0 76 0;
#X connect 75 1 55 0;
#X connect 76 0 63 0;
#X connect 77 0 76 1;
#X connect 78 0 68 0;
#X connect 80 0 82 0;
#X connect 81 0 58 1;
#X connect 82 0 81 0;
#X coords 0 708 1 707 170 60 0;
