#N canvas 45 254 373 186 10;
#X floatatom 60 68 5 0 0 0 c - -;
#X msg 146 39 set \$1;
#X obj 89 20 bng 15 250 50 0 empty empty empty 17 7 0 10 -257985 -1
-1;
#X msg 113 27 1;
#X obj 138 12 loadbang;
#X obj 94 68 bng 10 250 50 0 \$0-save-state SAVE-ALL empty 12 5 0 10
-4160 -257985 -1;
#X obj 245 96 bng 10 250 50 0 empty \$0-save-state r:0-save-state 12
5 0 10 -4160 -257985 -1;
#N canvas 954 566 328 158 loadstate 0;
#X obj 17 14 inlet;
#X obj 17 42 s \$0-c-set;
#X connect 0 0 1 0;
#X restore 245 49 pd loadstate;
#X obj 245 28 inlet;
#X obj 245 133 outlet;
#N canvas 721 256 313 152 savestate 0;
#X obj 29 19 inlet;
#X obj 29 107 outlet;
#X obj 29 41 trigger bang;
#X msg 29 85 set \$1;
#X obj 29 63 v \$0-c;
#X connect 0 0 2 0;
#X connect 2 0 4 0;
#X connect 3 0 1 0;
#X connect 4 0 3 0;
#X restore 245 111 pd savestate;
#X obj 72 2 inlet;
#X text 33 136 some parameter 'c';
#X obj 100 100 outlet;
#X obj 20 100 r \$0-c-set;
#X obj 151 100 v \$0-c;
#X obj 23 37 hsl 79 29 0 1.5 0 0 empty empty empty -2 -8 0 10 -262130
-4160 -1 5200 1;
#X connect 0 0 1 0;
#X connect 0 0 15 0;
#X connect 0 0 13 0;
#X connect 1 0 16 0;
#X connect 2 0 3 0;
#X connect 3 0 0 0;
#X connect 4 0 2 0;
#X connect 6 0 10 0;
#X connect 8 0 7 0;
#X connect 10 0 9 0;
#X connect 11 0 0 0;
#X connect 14 0 0 0;
#X connect 16 0 0 0;
#X coords 0 -1 1 1 84 65 1 20 20;
