#N canvas 571 452 359 287 10;
#X obj 94 118 inlet~;
#X obj 94 225 outlet~;
#X obj 20 78 vsl 49 30 0.1 10 1 0 \$0-g-ui \$0-g-ui-set empty 20 -9
0 10 -13381 -260097 -1 1214 1;
#X obj 94 146 *~;
#X obj 94 174 tui~;
#X text 20 255 tape pitchshifting + gain adjust;
#X floatatom 31 60 6 0 0 2 p/chg #0-p-set #0-p, f 6;
#X floatatom 37 113 5 0 0 0 g #0-g-set #0-g, f 5;
#X obj 182 146 r \$0-p;
#X obj 20 149 r \$0-g-ui;
#X obj 20 171 s \$0-g-set;
#X msg 144 39 set \$1;
#X obj 144 17 r \$0-g;
#X obj 144 61 s \$0-g-ui-set;
#X obj 144 85 r \$0-g;
#X msg 144 107 \$1 100;
#X obj 144 129 line;
#X obj 54 20 bng 15 250 50 0 empty empty empty 17 7 0 10 -257985 -1
-1;
#X obj 82 20 t b b;
#X msg 109 42 1;
#X obj 75 93 s \$0-p-set;
#X obj 75 73 s \$0-g-set;
#X msg 82 42 0;
#X obj 27 217 loadbang;
#X obj 57 37 bng 10 250 50 0 \$0-save-state SAVE-ALL empty 12 5 0 10
-4160 -257985 -1;
#X obj 241 188 bng 10 250 50 0 empty \$0-save-state r:0-save-state
12 5 0 10 -4160 -257985 -1;
#N canvas 128 395 328 158 loadstate 0;
#X obj 17 14 inlet;
#X obj 17 42 unpack f f;
#X obj 74 97 s \$0-g-set;
#X obj 17 69 s \$0-p-set;
#X connect 0 0 1 0;
#X connect 1 0 3 0;
#X connect 1 1 2 0;
#X restore 241 141 pd loadstate;
#X obj 241 119 inlet;
#X obj 241 225 outlet;
#N canvas 721 256 313 177 savestate 0;
#X obj 29 19 inlet;
#X obj 29 135 outlet;
#X obj 29 41 trigger bang bang;
#X obj 29 91 pack f f;
#X msg 29 113 set \$1 \$2;
#X obj 128 63 v \$0-g;
#X obj 29 63 v \$0-p;
#X connect 0 0 2 0;
#X connect 2 0 6 0;
#X connect 2 1 5 0;
#X connect 3 0 4 0;
#X connect 4 0 1 0;
#X connect 5 0 3 1;
#X connect 6 0 3 0;
#X restore 241 203 pd savestate;
#X obj 241 19 r \$0-g;
#X obj 241 63 r \$0-p;
#X obj 241 41 v \$0-g;
#X obj 241 85 v \$0-p;
#X connect 0 0 3 0;
#X connect 3 0 4 0;
#X connect 4 0 1 0;
#X connect 8 0 4 1;
#X connect 9 0 10 0;
#X connect 11 0 13 0;
#X connect 12 0 11 0;
#X connect 14 0 15 0;
#X connect 15 0 16 0;
#X connect 16 0 3 1;
#X connect 17 0 18 0;
#X connect 18 0 22 0;
#X connect 18 1 19 0;
#X connect 19 0 21 0;
#X connect 22 0 20 0;
#X connect 23 0 17 0;
#X connect 25 0 29 0;
#X connect 27 0 26 0;
#X connect 29 0 28 0;
#X connect 30 0 32 0;
#X connect 31 0 33 0;
#X coords 0 -1 1 1 49 110 1 20 20;
