#N canvas 192 90 989 637 10;
#X obj 559 266 phasor~;
#X obj 558 294 *~;
#X obj 109 366 t a b;
#X obj 109 338 snapshot~;
#X obj 109 310 metro 50;
#X obj 109 282 loadbang;
#X obj 109 421 /;
#X floatatom 644 335 5 0 0 1 seek(sec) - -, f 5;
#X obj 644 393 *;
#X obj 109 208 loadbang;
#X msg 109 230 44100;
#X obj 109 252 v \$0-rate;
#X text 157 229 recorded samplerate;
#X obj 136 394 v \$0-rate;
#X obj 671 376 v \$0-speedx1;
#X obj 644 354 t a b;
#X obj 494 184 bng 15 250 50 0 empty empty stop! 17 7 0 10 -262144
-1 -1;
#X msg 494 210 0;
#X obj 139 568 hsl 128 15 0 1 0 0 empty empty 0-1 -2 -8 0 10 -262144
-1 -1 0 1;
#X obj 136 534 v \$0-length;
#X obj 109 551 /;
#X obj 109 512 t a b;
#X floatatom 109 449 5 0 0 1 sec - -, f 5;
#X obj 559 159 bng 15 250 50 0 empty empty start 17 7 0 10 -262144
-1 -1;
#X obj 558 532 outlet~;
#X obj 559 201 t a b;
#X obj 559 244 *;
#X obj 586 223 v \$0-speedx1;
#X obj 109 588 s \$0-play-pos-set;
#X obj 146 38 tgl 15 0 \$0-loop \$0-loop-set loop 17 7 0 10 -257985
-4160 -4160 1 1;
#X obj 693 532 outlet~;
#X obj 54 90 nbx 8 14 -1e+37 1e+37 0 0 empty \$0-posS posS -27 8 0
10 -262144 -1 -1 0 256;
#X obj 54 107 nbx 8 14 -1e+37 1e+37 0 0 empty \$0-posE posE -27 8 0
10 -262144 -1 -1 90.7029 256;
#X obj 21 295 tgl 15 0 empty \$0-loop r:0-loop 17 7 0 10 -262144 -1
-1 1 1;
#X obj 534 117 tgl 15 0 empty \$0-loop r:0-loop 17 7 0 10 -262144 -1
-1 1 1;
#X obj 146 90 bng 15 250 50 0 \$0-posS-save empty s -8 7 0 10 -257985
-1 -1;
#X obj 171 90 bng 15 250 50 0 \$0-posS-clear empty c -8 7 0 10 -262144
-1 -1;
#X obj 146 107 bng 15 250 50 0 \$0-posE-save empty s -8 7 0 10 -4034
-1 -1;
#X obj 171 107 bng 15 250 50 0 \$0-posE-clear empty c -8 7 0 10 -262144
-1 -1;
#X obj 558 510 tabread4~ \$0-audio-l;
#X obj 693 510 tabread4~ \$0-audio-r;
#X obj 559 179 v \$0-spdscale;
#X obj 625 95 v \$0-spdscale;
#X floatatom 260 360 12 0 0 0 start(smpl) - -, f 12;
#X msg 716 249 0;
#X obj 534 137 route 0 1;
#X obj 260 439 bng 15 250 50 0 \$0-update_vars empty s:0-update_vars
17 7 0 10 -262144 -1 -1;
#X obj 260 379 t b a;
#X obj 322 151 bng 15 250 50 0 empty \$0-update_vars r:0-update_vars
17 7 0 10 -262144 -1 -1;
#X obj 322 193 bng 15 250 50 0 \$0-apply_vars empty s:0-apply_vars
17 7 0 10 -262144 -1 -1;
#X obj 699 201 bng 15 250 50 0 empty \$0-apply_vars r:0-apply_vars
17 7 0 10 -262144 -1 -1;
#N canvas 531 193 328 521 update_vars 0;
#X obj 140 280 /;
#X obj 140 333 v \$0-speedx1;
#X obj 174 361 t a b;
#X obj 174 416 /;
#X floatatom 174 444 9 0 0 0 length(sec) - -, f 9;
#X obj 140 252 v \$0-rate;
#X obj 201 389 v \$0-rate;
#X floatatom 140 308 9 0 0 0 - - -, f 9;
#X obj 174 469 v \$0-length;
#X obj 174 224 v \$0-nsamples;
#X obj 123 87 inlet;
#X obj 46 214 outlet;
#X obj 123 175 -;
#X obj 123 109 t b b;
#X obj 150 131 v \$0-start-sample;
#X obj 123 153 v \$0-end-sample;
#X text 26 16 input vars. : start-sample \, end-sample \, rate;
#X obj 123 197 t b b b a;
#X text 26 36 output vars. : nsamples \, speedx1 \, length;
#X connect 0 0 7 0;
#X connect 2 0 3 0;
#X connect 2 1 6 0;
#X connect 3 0 4 0;
#X connect 4 0 8 0;
#X connect 5 0 0 0;
#X connect 6 0 3 1;
#X connect 7 0 1 0;
#X connect 9 0 2 0;
#X connect 9 0 0 1;
#X connect 10 0 13 0;
#X connect 12 0 17 0;
#X connect 13 0 15 0;
#X connect 13 1 14 0;
#X connect 14 0 12 1;
#X connect 15 0 12 0;
#X connect 17 0 11 0;
#X connect 17 1 5 0;
#X connect 17 2 9 0;
#X connect 17 3 9 0;
#X restore 322 171 pd update_vars;
#X obj 733 277 v \$0-nsamples;
#X obj 699 221 t b b b b;
#X obj 558 322 +~;
#X obj 260 338 snapshot~;
#X obj 260 318 bng 15 250 50 0 empty \$0-posS-save s 17 7 0 10 -257985
-1 -1;
#X obj 260 276 bng 15 250 50 0 empty \$0-posS-clear c 17 7 0 10 -262144
-1 -1;
#X obj 414 318 bng 15 250 50 0 empty \$0-posE-save s 17 7 0 10 -4034
-1 -1;
#X obj 414 276 bng 15 250 50 0 empty \$0-posE-clear c 17 7 0 10 -262144
-1 -1;
#X msg 260 296 0;
#X floatatom 414 360 12 0 0 0 end(smpl) - -, f 12;
#X obj 414 439 bng 15 250 50 0 \$0-update_vars empty s:0-update_vars
17 7 0 10 -262144 -1 -1;
#X obj 414 379 t b a;
#X obj 414 338 snapshot~;
#X obj 414 296 v \$0-end-sample_org;
#N canvas 357 273 732 454 apply_ui 0;
#X obj 199 274 f \$0;
#X obj 199 248 bng 15 250 50 0 empty empty empty 17 7 0 10 -262144
-1 -1;
#X obj 224 367 f \$0;
#X obj 224 341 bng 15 250 50 0 empty empty empty 17 7 0 10 -262144
-1 -1;
#X obj 14 125 v \$0-length;
#X floatatom 280 170 12 0 0 1 end(sec) - -, f 12;
#X obj 14 19 inlet;
#X obj 130 142 /;
#X obj 280 142 /;
#X floatatom 130 170 12 0 0 1 start(sec) - -, f 12;
#X obj 199 198 == 0;
#X obj 199 220 route 1 0;
#X obj 130 86 t a b a;
#X msg 199 300 \; \$1-posS color #ffffff #000000 #000000;
#X obj 439 274 f \$0;
#X obj 439 248 bng 15 250 50 0 empty empty empty 17 7 0 10 -262144
-1 -1;
#X obj 464 367 f \$0;
#X obj 464 341 bng 15 250 50 0 empty empty empty 17 7 0 10 -262144
-1 -1;
#X obj 439 220 route 1 0;
#X obj 439 198 ==;
#X obj 280 86 t a b a b;
#X obj 454 103 v \$0-end-sample_org;
#X msg 439 300 \; \$1-posE color #ffffff #000000 #000000;
#X msg 224 394 \; \$1-posS color #ffff00 #0000ff #000000;
#X msg 464 394 \; \$1-posE color #00ff00 #0000ff #000000;
#X obj 130 198 s \$0-posS;
#X obj 280 198 s \$0-posE;
#X obj 14 153 s \$0-len;
#X obj 280 58 v \$0-end-sample;
#X obj 130 58 v \$0-start-sample;
#X obj 149 114 v \$0-rate;
#X obj 297 114 v \$0-rate;
#X obj 14 41 t b b b b;
#X connect 0 0 13 0;
#X connect 1 0 0 0;
#X connect 2 0 23 0;
#X connect 3 0 2 0;
#X connect 4 0 27 0;
#X connect 5 0 26 0;
#X connect 6 0 32 0;
#X connect 7 0 9 0;
#X connect 8 0 5 0;
#X connect 9 0 25 0;
#X connect 10 0 11 0;
#X connect 11 0 1 0;
#X connect 11 1 3 0;
#X connect 12 0 7 0;
#X connect 12 1 30 0;
#X connect 12 2 10 0;
#X connect 14 0 22 0;
#X connect 15 0 14 0;
#X connect 16 0 24 0;
#X connect 17 0 16 0;
#X connect 18 0 15 0;
#X connect 18 1 17 0;
#X connect 19 0 18 0;
#X connect 20 0 8 0;
#X connect 20 1 31 0;
#X connect 20 2 19 0;
#X connect 20 3 21 0;
#X connect 21 0 19 1;
#X connect 28 0 20 0;
#X connect 29 0 12 0;
#X connect 30 0 7 1;
#X connect 31 0 8 1;
#X connect 32 0 4 0;
#X connect 32 2 29 0;
#X connect 32 3 28 0;
#X restore 40 172 pd apply_ui;
#X obj 40 146 bng 15 250 50 0 empty \$0-apply_vars r:0-apply_vars 17
7 0 10 -262144 -1 -1;
#X obj 424 411 v \$0-end-sample;
#X obj 270 411 v \$0-start-sample;
#X obj 750 305 v \$0-start-sample;
#X obj 46 463 s \$0-pos;
#N canvas 232 231 524 383 fileload 1;
#X floatatom 155 162 11 0 0 0 - - -, f 11;
#X obj 155 134 soundfiler;
#X obj 200 50 f \$0;
#X obj 200 22 loadbang;
#X obj 155 78 pack s f;
#X obj 136 22 inlet;
#X obj 360 144 f \$0;
#X obj 360 67 bng 15 250 50 0 empty empty clear_buffer 17 7 0 10 -262144
-1 -1;
#X msg 33 67 1;
#X obj 33 94 tgl 15 0 \$0-loop-set empty s:0-loop-set 17 7 0 10 -262144
-1 -1 1 1;
#X msg 360 166 \; \$1-audio-l resize 1 \; \$1-audio-l 0 0 \; \$1-audio-r
resize 1 \; \$1-audio-r 0 0;
#X obj 218 209 v \$0-end-sample;
#X obj 186 260 v \$0-start-sample;
#X msg 186 232 0;
#X obj 170 288 bng 15 250 50 0 \$0-update_vars empty s:0-update_vars
17 7 0 10 -262144 -1 -1;
#X obj 155 342 v \$0-speedx1_org;
#X obj 155 314 v \$0-speedx1;
#X obj 218 232 v \$0-end-sample_org;
#X obj 136 50 t b a b;
#X obj 155 187 t b b b b a;
#X msg 155 106 read -resize -maxsize 8e+07 \$1 \$2-audio-l \$2-audio-r
;
#X connect 0 0 19 0;
#X connect 1 0 0 0;
#X connect 2 0 4 1;
#X connect 3 0 2 0;
#X connect 4 0 20 0;
#X connect 5 0 18 0;
#X connect 6 0 10 0;
#X connect 7 0 6 0;
#X connect 8 0 9 0;
#X connect 11 0 17 0;
#X connect 13 0 12 0;
#X connect 16 0 15 0;
#X connect 18 0 8 0;
#X connect 18 1 4 0;
#X connect 18 2 7 0;
#X connect 19 0 16 0;
#X connect 19 1 14 0;
#X connect 19 2 13 0;
#X connect 19 3 11 0;
#X connect 19 4 11 0;
#X connect 20 0 1 0;
#X restore 249 92 pd fileload;
#X obj 249 70 inlet;
#X obj 109 490 -;
#X obj 291 546 /;
#X obj 291 485 v \$0-start-sample;
#X obj 318 529 v \$0-rate;
#X obj 109 468 t a b;
#X obj 291 507 t a b;
#X text 394 12 dooho yi / dianaband @ 2017 11 19;
#X obj 687 432 table \$0-audio-l 8820;
#X obj 687 454 table \$0-audio-r 8820;
#X obj 598 73 t b a;
#X obj 111 41 bng 10 250 50 0 empty empty c 14 5 0 10 -262144 -1 -1
;
#X msg 203 3 1;
#X obj 111 3 loadbang;
#X text 550 571 // todo - 1) save-me / 2) recorder (in main patch)
;
#X obj 23 55 hsl 165 33 0 1 0 0 \$0-play-pos-set-DONTCARE \$0-play-pos-set
empty -2 -8 0 10 -228856 -258113 -1 0 1;
#X obj 54 73 nbx 8 14 -1e+37 1e+37 0 0 empty \$0-pos pos -21 8 0 10
-262144 -1 -1 0 256;
#X obj 54 56 nbx 8 14 -1e+37 1e+37 0 0 empty \$0-len len -21 8 0 10
-262144 -1 -1 90.7029 256;
#X obj 152 24 bng 10 250 50 0 \$0-save-state SAVE-ALL save 12 5 0 10
-4160 -257985 -1;
#X obj 878 495 bng 10 250 50 0 empty \$0-save-state r:0-save-state
12 5 0 10 -4160 -257985 -1;
#N canvas 699 401 380 298 loadstate 0;
#X obj 36 165 bng 15 250 50 0 \$0-update_vars empty s:0-update_vars
17 7 0 10 -262144 -1 -1;
#X obj 138 136 v \$0-end-sample;
#X obj 111 108 v \$0-start-sample;
#X obj 84 80 v \$0-rate;
#X obj 17 14 inlet;
#X obj 84 53 unpack f f f f;
#X obj 165 164 t b a;
#X obj 192 192 v \$0-spdscale;
#X obj 192 214 s \$0-spdx-set;
#X obj 17 36 t b b a;
#X msg 17 205 1;
#X obj 17 232 tgl 15 0 \$0-loop-set empty s:0-loop-set 17 7 0 10 -262144
-1 -1 0 1;
#X connect 4 0 9 0;
#X connect 5 0 3 0;
#X connect 5 1 2 0;
#X connect 5 2 1 0;
#X connect 5 3 6 0;
#X connect 6 0 7 0;
#X connect 6 1 7 0;
#X connect 7 0 8 0;
#X connect 9 0 10 0;
#X connect 9 1 0 0;
#X connect 9 2 5 0;
#X connect 10 0 11 0;
#X restore 338 93 pd loadstate;
#X obj 338 71 inlet;
#X obj 878 532 outlet;
#N canvas 202 237 395 309 savestate 0;
#X obj 135 124 v \$0-end-sample;
#X obj 82 96 v \$0-start-sample;
#X obj 188 152 v \$0-spdscale;
#X obj 29 68 v \$0-rate;
#X obj 29 19 inlet;
#X obj 29 219 pack f f f f;
#X obj 29 41 trigger bang bang bang bang;
#X msg 29 241 set \$1 \$2 \$3 \$4;
#X obj 29 263 outlet;
#X connect 0 0 5 2;
#X connect 1 0 5 1;
#X connect 2 0 5 3;
#X connect 3 0 5 0;
#X connect 4 0 6 0;
#X connect 5 0 7 0;
#X connect 6 0 3 0;
#X connect 6 1 1 0;
#X connect 6 2 0 0;
#X connect 6 3 2 0;
#X connect 7 0 8 0;
#X restore 878 510 pd savestate;
#X msg 742 121 44100 2.78268e+06 3.56603e+06 1;
#X floatatom 54 39 5 0 0 0 spdx #0-spdx-set #0-spdx, f 5;
#X obj 203 25 s \$0-spdx-set;
#X floatatom 598 54 5 0 0 1 r:0-spdx #0-spdx -, f 5;
#X connect 0 0 1 0;
#X connect 1 0 54 0;
#X connect 2 0 6 0;
#X connect 2 1 13 0;
#X connect 3 0 2 0;
#X connect 4 0 3 0;
#X connect 5 0 4 0;
#X connect 6 0 22 0;
#X connect 7 0 15 0;
#X connect 8 0 0 1;
#X connect 9 0 10 0;
#X connect 10 0 11 0;
#X connect 13 0 6 1;
#X connect 14 0 8 1;
#X connect 15 0 8 0;
#X connect 15 1 14 0;
#X connect 16 0 17 0;
#X connect 17 0 0 0;
#X connect 19 0 20 1;
#X connect 20 0 18 0;
#X connect 20 0 28 0;
#X connect 21 0 20 0;
#X connect 21 1 19 0;
#X connect 22 0 71 0;
#X connect 22 0 78 0;
#X connect 23 0 41 0;
#X connect 25 0 26 0;
#X connect 25 1 27 0;
#X connect 26 0 0 0;
#X connect 27 0 26 1;
#X connect 33 0 4 0;
#X connect 34 0 45 0;
#X connect 39 0 24 0;
#X connect 40 0 30 0;
#X connect 41 0 25 0;
#X connect 43 0 47 0;
#X connect 44 0 0 1;
#X connect 45 0 16 0;
#X connect 45 1 23 0;
#X connect 47 0 46 0;
#X connect 47 1 69 0;
#X connect 48 0 51 0;
#X connect 50 0 53 0;
#X connect 51 0 49 0;
#X connect 52 0 1 1;
#X connect 53 0 23 0;
#X connect 53 1 44 0;
#X connect 53 2 52 0;
#X connect 53 3 70 0;
#X connect 54 0 3 0;
#X connect 54 0 39 0;
#X connect 54 0 40 0;
#X connect 54 0 55 0;
#X connect 54 0 64 0;
#X connect 55 0 43 0;
#X connect 56 0 55 0;
#X connect 57 0 60 0;
#X connect 58 0 64 0;
#X connect 59 0 65 0;
#X connect 60 0 43 0;
#X connect 61 0 63 0;
#X connect 63 0 62 0;
#X connect 63 1 68 0;
#X connect 64 0 61 0;
#X connect 65 0 61 0;
#X connect 67 0 66 0;
#X connect 70 0 54 1;
#X connect 73 0 72 0;
#X connect 74 0 21 0;
#X connect 75 0 74 1;
#X connect 76 0 79 0;
#X connect 77 0 75 1;
#X connect 78 0 74 0;
#X connect 78 1 76 0;
#X connect 79 0 75 0;
#X connect 79 1 77 0;
#X connect 83 0 23 0;
#X connect 83 1 42 0;
#X connect 84 0 85 0;
#X connect 85 0 99 0;
#X connect 86 0 84 0;
#X connect 92 0 96 0;
#X connect 94 0 93 0;
#X connect 96 0 95 0;
#X connect 96 0 97 0;
#X connect 100 0 83 0;
#X coords 0 -1 1 1 170 105 1 20 20;
