#N canvas 72 142 400 234 10;
#X obj 224 94 inlet~;
#X obj 224 166 outlet~;
#X obj 20 51 vsl 39 50 0 1.5 0 0 empty empty empty 20 -9 0 10 -13330
-257985 -4032 3267 1;
#X text 20 201 tape pitchshifting + gain adjust;
#X floatatom 37 106 5 0 0 0 g - -, f 5;
#X msg 165 127 set \$1;
#X obj 224 144 hip~ 3;
#X obj 224 122 *~;
#X obj 59 51 vsl 10 50 0 1.5 0 0 empty empty empty 20 -9 0 10 -83269
-258113 -4032 3267 1;
#X msg 79 7 set \$1;
#X msg 6 6 set \$1;
#X obj 165 105 line;
#X msg 165 84 \$1 2000;
#X obj 54 20 bng 15 250 50 0 empty empty empty 17 7 0 10 -257985 -1
-1;
#X msg 121 35 1;
#X obj 138 12 loadbang;
#X obj 91 168 v \$0-g;
#X obj 57 37 bng 10 250 50 0 \$0-save-state SAVE-ALL empty 12 5 0 10
-4160 -257985 -1;
#X obj 281 129 bng 10 250 50 0 empty \$0-save-state r:0-save-state
12 5 0 10 -4160 -257985 -1;
#N canvas 282 425 328 158 loadstate 0;
#X obj 17 14 inlet;
#X obj 17 42 s \$0-g-set;
#X connect 0 0 1 0;
#X restore 281 82 pd loadstate;
#X obj 351 45 inlet;
#X obj 281 166 outlet;
#N canvas 721 256 313 152 savestate 0;
#X obj 29 19 inlet;
#X obj 29 107 outlet;
#X obj 29 63 v \$0-g;
#X obj 29 41 trigger bang;
#X msg 29 85 set \$1;
#X connect 0 0 3 0;
#X connect 2 0 4 0;
#X connect 3 0 2 0;
#X connect 4 0 1 0;
#X restore 281 144 pd savestate;
#X obj 20 134 r \$0-g-set;
#X obj 262 32 inlet;
#X connect 0 0 7 0;
#X connect 2 0 9 0;
#X connect 2 0 12 0;
#X connect 4 0 10 0;
#X connect 4 0 12 0;
#X connect 5 0 8 0;
#X connect 6 0 1 0;
#X connect 7 0 6 0;
#X connect 9 0 4 0;
#X connect 10 0 2 0;
#X connect 11 0 7 1;
#X connect 11 0 5 0;
#X connect 11 0 16 0;
#X connect 12 0 11 0;
#X connect 13 0 14 0;
#X connect 14 0 10 0;
#X connect 14 0 9 0;
#X connect 14 0 12 0;
#X connect 15 0 13 0;
#X connect 18 0 22 0;
#X connect 20 0 19 0;
#X connect 22 0 21 0;
#X connect 23 0 4 0;
#X connect 24 0 2 0;
#X coords 0 -1 1 1 49 103 1 20 20;
