#N canvas 529 141 438 555 10;
#X obj 98 377 *~;
#X obj 221 314 line~;
#X floatatom 253 157 0 0 0 0 - - -;
#X obj 221 288 pack 0 200;
#X obj 35 190 exp;
#X floatatom 35 212 6 0 0 0 - - -, f 6;
#X obj 35 282 /;
#X obj 162 212 * 0.001;
#X obj 330 384 line~;
#X obj 330 359 pack 0 200;
#X floatatom 330 308 0 0 0 0 - - -;
#X obj 98 403 +~;
#X obj 35 427 cos~;
#X obj 35 454 *~;
#X obj 35 478 +~;
#X obj 122 336 wrap~;
#X obj 267 379 *~;
#X obj 267 409 +~;
#X obj 204 433 cos~;
#X obj 204 455 *~;
#X obj 162 239 t b f;
#X floatatom 35 304 6 0 0 0 - - -, f 6;
#X obj 122 309 +~ 0.5;
#X obj 35 377 -~ 0.5;
#X obj 35 403 *~ 0.5;
#X obj 204 378 -~ 0.5;
#X obj 204 411 *~ 0.5;
#X obj 35 233 - 1;
#X obj 35 168 * 0.05776;
#X obj 35 255 * -1;
#X text 99 125 <-- transposition;
#X text 142 138 (halftones);
#X text 78 206 speed;
#X text 77 220 change;
#X text 297 156 <--window (msec);
#X text 70 275 tape head;
#X obj 35 335 phasor~;
#X obj 330 335 max 1.5;
#X text 333 241 delay;
#X text 330 259 (msec);
#X obj 253 179 max 1;
#X text 71 288 rotation freq;
#X obj 98 427 vd~ \$0-pitchdel;
#X obj 267 431 vd~ \$0-pitchdel;
#X obj 253 135 init 100;
#X obj 330 282 init 0;
#X floatatom 65 126 0 0 0 0 - - -;
#X obj 65 104 inlet;
#X obj 35 70 delwrite~ \$0-pitchdel 5000;
#X obj 35 48 inlet~;
#X obj 35 511 outlet~;
#X text 34 19 just simple clone of G09.pitchshift.pd example;
#X floatatom 311 72 5 0 0 0 pitch-chg - -, f 5;
#X connect 0 0 11 0;
#X connect 1 0 0 1;
#X connect 1 0 16 1;
#X connect 2 0 40 0;
#X connect 3 0 1 0;
#X connect 4 0 5 0;
#X connect 5 0 27 0;
#X connect 6 0 21 0;
#X connect 7 0 20 0;
#X connect 8 0 11 1;
#X connect 8 0 17 1;
#X connect 9 0 8 0;
#X connect 10 0 37 0;
#X connect 11 0 42 0;
#X connect 12 0 13 0;
#X connect 13 0 14 0;
#X connect 14 0 50 0;
#X connect 15 0 16 0;
#X connect 15 0 25 0;
#X connect 16 0 17 0;
#X connect 17 0 43 0;
#X connect 18 0 19 0;
#X connect 19 0 14 1;
#X connect 20 0 6 0;
#X connect 20 1 6 1;
#X connect 21 0 36 0;
#X connect 22 0 15 0;
#X connect 23 0 24 0;
#X connect 24 0 12 0;
#X connect 25 0 26 0;
#X connect 26 0 18 0;
#X connect 27 0 29 0;
#X connect 28 0 4 0;
#X connect 29 0 6 0;
#X connect 36 0 0 0;
#X connect 36 0 23 0;
#X connect 36 0 22 0;
#X connect 37 0 9 0;
#X connect 40 0 7 0;
#X connect 40 0 3 0;
#X connect 42 0 13 1;
#X connect 43 0 19 1;
#X connect 44 0 2 0;
#X connect 45 0 10 0;
#X connect 46 0 28 0;
#X connect 47 0 52 0;
#X connect 49 0 48 0;
#X connect 52 0 46 0;
#X coords 0 -1 1 1 95 40 1 250 50;
