#N canvas 140 99 514 448 10;
#X msg 32 28 devices;
#X obj 32 143 route analog;
#X floatatom 32 193 5 0 0 0 - - -, f 5;
#X msg 105 28 close;
#X floatatom 50 212 5 0 0 0 - - -, f 5;
#X floatatom 69 231 5 0 0 0 - - -, f 5;
#X floatatom 87 250 5 0 0 0 - - -, f 5;
#X floatatom 106 193 5 0 0 0 - - -, f 5;
#X floatatom 125 212 5 0 0 0 - - -, f 5;
#X floatatom 143 231 5 0 0 0 - - -, f 5;
#X floatatom 162 250 5 0 0 0 - - -, f 5;
#X floatatom 181 193 5 0 0 0 - - -, f 5;
#X floatatom 199 212 5 0 0 0 - - -, f 5;
#X floatatom 218 231 5 0 0 0 - - -, f 5;
#X floatatom 236 250 5 0 0 0 - - -, f 5;
#X obj 32 165 route 0 1 2 3 4 5 6 7 8 9 10 11 12 13 14 15;
#X floatatom 255 193 5 0 0 0 - - -, f 5;
#X floatatom 274 212 5 0 0 0 - - -, f 5;
#X floatatom 292 231 5 0 0 0 - - -, f 5;
#X floatatom 311 250 5 0 0 0 - - -, f 5;
#X obj 32 115 arduino-auto /dev/ttyACM0;
#X obj 204 89 tgl 15 0 empty empty empty 17 7 0 10 -262144 -1 -1 1
1;
#X obj 204 28 loadbang;
#X obj 105 50 t a b;
#X msg 137 72 0;
#X connect 0 0 20 0;
#X connect 1 0 15 0;
#X connect 3 0 23 0;
#X connect 15 0 2 0;
#X connect 15 1 4 0;
#X connect 15 2 5 0;
#X connect 15 3 6 0;
#X connect 15 4 7 0;
#X connect 15 5 8 0;
#X connect 15 6 9 0;
#X connect 15 7 10 0;
#X connect 15 8 11 0;
#X connect 15 9 12 0;
#X connect 15 10 13 0;
#X connect 15 11 14 0;
#X connect 15 12 16 0;
#X connect 15 13 17 0;
#X connect 15 14 18 0;
#X connect 15 15 19 0;
#X connect 20 0 1 0;
#X connect 21 0 20 1;
#X connect 22 0 21 0;
#X connect 23 0 20 0;
#X connect 23 1 24 0;
#X connect 24 0 21 0;
