#N canvas 644 196 312 300 10;
#X obj 71 61 loadbang;
#X obj 71 109 outlet;
#N canvas 483 222 450 300 LICENSE 0;
#X text 18 8 This program is free software: you can redistribute it
and/or modify it under the terms of the GNU General Public License
as published by the Free Software Foundation \, either version 3 of
the License \, or (at your option) any later version. This program
is distributed in the hope that it will be useful \, but WITHOUT ANY
WARRANTY \; without even the implied warranty of MERCHANTABILITY or
FITNESS FOR A PARTICULAR PURPOSE. See the GNU General Public License
for more details. You should have received a copy of the GNU General
Public License along with this program. If not \, see <http://www.gnu.org/licenses/>.
;
#X restore 227 263 pd LICENSE;
#X obj 71 85 symbol \$1;
#X text 16 13 pd-extended's [init] but for symbol;
#X obj 31 44 bng 15 250 50 0 empty empty empty 17 7 0 10 -258113 -262144
-1;
#X connect 0 0 3 0;
#X connect 3 0 1 0;
#X connect 5 0 3 0;
#X coords 0 -1 1 1 30 30 1 30 30;
