#N canvas 387 237 606 560 10;
#X msg 353 216 0;
#X msg 395 204 \; \$1-keymap resize 1 \; \$1-keymap resize 256;
#X obj 395 176 f \$0;
#X obj 36 269 tabread \$0-keymap;
#X obj 146 217 key;
#X floatatom 36 291 5 0 0 0 - - -, f 5;
#X text 1 3 .anchor.;
#X obj 175 101 tgl 15 0 empty empty on/off 17 7 0 10 -262144 -1 -1
0 1;
#X obj 235 101 tgl 15 0 empty empty map 17 7 0 10 -258113 -1 -1 0 1
;
#X obj 36 332 outlet;
#X obj 36 310 spigot;
#X floatatom 261 234 5 0 0 0 - - -, f 5;
#X obj 261 301 t b a;
#X obj 261 382 f;
#X obj 301 382 + 1;
#X floatatom 261 404 5 0 0 0 - - -, f 5;
#X obj 398 426 f \$0;
#X obj 398 406 bng 15 250 50 0 empty empty empty 17 7 0 10 -262144
-1 -1;
#X obj 301 453 pack f f f;
#X obj 398 384 loadbang;
#X msg 301 485 \; \$3-keymap \$2 \$1;
#X obj 261 253 spigot;
#X text 33 355 read table \, return mapped values, f 15;
#X text 216 26 << key-to-midi mapping generator >>;
#X text 348 265 counter == 0 reset keymap array;
#X text 339 348 fill up table with mapped values;
#X text 518 523 .anchor.;
#X obj 300 203 tgl 15 0 empty empty empty 17 7 0 10 -262144 -1 -1 0
1;
#X obj 300 137 sel 1 0;
#X obj 300 159 t b b b;
#X msg 300 181 1;
#X msg 353 186 0;
#X obj 153 485 table \$0-keymap 256;
#X connect 0 0 13 1;
#X connect 2 0 1 0;
#X connect 3 0 5 0;
#X connect 4 0 3 0;
#X connect 4 0 11 0;
#X connect 5 0 10 0;
#X connect 7 0 10 1;
#X connect 8 0 28 0;
#X connect 10 0 9 0;
#X connect 11 0 21 0;
#X connect 12 0 13 0;
#X connect 12 1 18 1;
#X connect 13 0 14 0;
#X connect 13 0 15 0;
#X connect 14 0 13 1;
#X connect 15 0 18 0;
#X connect 16 0 18 2;
#X connect 17 0 16 0;
#X connect 18 0 20 0;
#X connect 19 0 17 0;
#X connect 21 0 12 0;
#X connect 27 0 21 1;
#X connect 28 0 29 0;
#X connect 28 1 31 0;
#X connect 29 0 30 0;
#X connect 29 1 0 0;
#X connect 29 2 2 0;
#X connect 30 0 27 0;
#X connect 31 0 27 0;
#X coords 0 -1 1 1 180 17 1 100 100;
