#N canvas 414 282 439 376 12;
#X obj 141 161 f;
#X obj 171 161 +;
#X obj 49 49 t b b;
#X obj 231 51 t b b;
#X floatatom 171 196 5 0 0 0 - - -;
#X floatatom 263 304 5 0 0 0 - - -;
#X msg 28 216 0;
#X obj 352 140 f \$2;
#X msg 352 190 set \$1;
#X obj 263 273 moses;
#X obj 352 109 loadbang;
#X msg 352 247 8;
#X obj 263 328 outlet;
#X obj 49 18 inlet;
#X obj 231 20 inlet;
#X obj 28 115 loadbang;
#X obj 28 146 f \$1;
#X obj 171 242 moses;
#X msg 28 171 set \$1;
#X text 27 292 bangged counter from \$1 to \$2;
#X text 27 312 limited at each edges;
#X obj 295 199 + 1;
#X msg 117 69 -1;
#X msg 263 141 1;
#X connect 0 0 1 0;
#X connect 1 0 0 1;
#X connect 1 0 4 0;
#X connect 2 0 0 0;
#X connect 2 1 22 0;
#X connect 3 0 0 0;
#X connect 3 1 23 0;
#X connect 4 0 17 0;
#X connect 5 0 12 0;
#X connect 6 0 0 1;
#X connect 7 0 21 0;
#X connect 7 0 8 0;
#X connect 8 0 11 0;
#X connect 9 0 5 0;
#X connect 9 1 11 0;
#X connect 10 0 7 0;
#X connect 11 0 0 1;
#X connect 13 0 2 0;
#X connect 14 0 3 0;
#X connect 15 0 16 0;
#X connect 16 0 18 0;
#X connect 16 0 17 1;
#X connect 17 0 6 0;
#X connect 17 1 9 0;
#X connect 18 0 6 0;
#X connect 21 0 9 1;
#X connect 22 0 1 1;
#X connect 23 0 1 1;
