#N canvas 3 88 1265 707 10;
#X floatatom 431 278 5 0 0 0 - - -, f 5;
#X obj 760 437 ctlin;
#X floatatom 760 459 5 0 0 0 - - -, f 5;
#X floatatom 769 476 5 0 0 0 - - -, f 5;
#X floatatom 783 495 5 0 0 0 - - -, f 5;
#X obj 431 256 ctlin 0 1;
#X floatatom 501 278 5 0 0 0 - - -, f 5;
#X obj 501 256 ctlin 1 1;
#X floatatom 571 278 5 0 0 0 - - -, f 5;
#X obj 571 256 ctlin 2 1;
#X floatatom 641 278 5 0 0 0 - - -, f 5;
#X floatatom 711 278 5 0 0 0 - - -, f 5;
#X floatatom 781 278 5 0 0 0 - - -, f 5;
#X obj 641 256 ctlin 3 1;
#X obj 711 256 ctlin 4 1;
#X obj 781 256 ctlin 5 1;
#X floatatom 851 278 5 0 0 0 - - -, f 5;
#X floatatom 921 278 5 0 0 0 - - -, f 5;
#X obj 851 256 ctlin 6 1;
#X obj 921 256 ctlin 7 1;
#X obj 20 39 vsl 15 65 0 127 0 0 empty empty empty 0 -9 0 10 -228856
-4160 -1 0 1;
#X obj 35 39 vsl 15 65 0 127 0 0 empty empty empty 0 -9 0 10 -261234
-4160 -1 0 1;
#X obj 50 39 vsl 15 65 0 127 0 0 empty empty empty 0 -9 0 10 -261682
-4160 -1 0 1;
#X obj 65 39 vsl 15 65 0 127 0 0 empty empty empty 0 -9 0 10 -262130
-4160 -1 0 1;
#X obj 80 39 vsl 15 65 0 127 0 0 empty empty empty 0 -9 0 10 -204786
-4160 -1 0 1;
#X obj 95 39 vsl 15 65 0 127 0 0 empty empty empty 0 -9 0 10 -204800
-4160 -1 0 1;
#X obj 110 39 vsl 15 65 0 127 0 0 empty empty empty 0 -9 0 10 -203904
-4160 -1 0 1;
#X obj 125 39 vsl 15 65 0 127 0 0 empty empty empty 0 -9 0 10 -232576
-4160 -1 0 1;
#X floatatom 711 460 5 0 0 0 - - -, f 5;
#X obj 693 508 midiout;
#X obj 431 319 outlet;
#X obj 431 297 / 127;
#X obj 501 319 outlet;
#X obj 501 297 / 127;
#X obj 571 319 outlet;
#X obj 571 297 / 127;
#X obj 641 319 outlet;
#X obj 641 297 / 127;
#X obj 711 319 outlet;
#X obj 711 297 / 127;
#X obj 781 319 outlet;
#X obj 781 297 / 127;
#X obj 851 319 outlet;
#X obj 851 297 / 127;
#X obj 921 319 outlet;
#X obj 921 297 / 127;
#X connect 0 0 20 0;
#X connect 0 0 31 0;
#X connect 1 0 2 0;
#X connect 1 1 3 0;
#X connect 1 2 4 0;
#X connect 5 0 0 0;
#X connect 6 0 21 0;
#X connect 6 0 33 0;
#X connect 7 0 6 0;
#X connect 8 0 22 0;
#X connect 8 0 35 0;
#X connect 9 0 8 0;
#X connect 10 0 23 0;
#X connect 10 0 37 0;
#X connect 11 0 24 0;
#X connect 11 0 39 0;
#X connect 12 0 25 0;
#X connect 12 0 41 0;
#X connect 13 0 10 0;
#X connect 14 0 11 0;
#X connect 15 0 12 0;
#X connect 16 0 26 0;
#X connect 16 0 43 0;
#X connect 17 0 27 0;
#X connect 17 0 45 0;
#X connect 18 0 16 0;
#X connect 19 0 17 0;
#X connect 28 0 29 0;
#X connect 31 0 30 0;
#X connect 33 0 32 0;
#X connect 35 0 34 0;
#X connect 37 0 36 0;
#X connect 39 0 38 0;
#X connect 41 0 40 0;
#X connect 43 0 42 0;
#X connect 45 0 44 0;
#X coords 0 -1 1 1 120 90 1 20 20;
