#N canvas 186 98 994 570 12;
#X obj 208 361 qlist;
#X obj 33 193 tgl 15 0 empty empty rec_start/stop 17 7 0 10 -262144
-1 -1 0 1;
#X obj 33 213 sel 1 0;
#X obj 33 287 t b b;
#X msg 65 317 clear;
#X msg 254 329 print;
#X msg 208 318 bang;
#N canvas 0 23 484 421 nanokontrol2-recorder 0;
#X obj 216 49 timer;
#X obj 63 40 ctlin;
#X obj 333 40 notein;
#X obj 63 70 pack f f f;
#X obj 333 70 pack f f;
#X msg 217 116 add2 \$1;
#X msg 110 249 4.35374 CTLIN_Q;
#X obj 217 73 t a b;
#X msg 269 92 set;
#X obj 29 279 list prepend;
#X obj 29 303 list prepend add;
#X obj 29 327 list trim;
#X msg 370 130 add2 NOTEIN_Q;
#X obj 333 100 t a b b b b;
#X obj 63 100 t a b b b b;
#X obj 28 378 outlet;
#X msg 100 130 add2 CTLIN_Q;
#X obj 216 19 inlet;
#X connect 0 0 7 0;
#X connect 1 0 3 0;
#X connect 1 1 3 1;
#X connect 1 2 3 2;
#X connect 2 0 4 0;
#X connect 2 1 4 1;
#X connect 3 0 14 0;
#X connect 4 0 13 0;
#X connect 5 0 6 0;
#X connect 6 0 9 1;
#X connect 7 0 5 0;
#X connect 7 1 8 0;
#X connect 8 0 6 0;
#X connect 9 0 10 0;
#X connect 10 0 11 0;
#X connect 11 0 15 0;
#X connect 12 0 6 0;
#X connect 13 0 9 0;
#X connect 13 1 6 0;
#X connect 13 2 12 0;
#X connect 13 3 0 0;
#X connect 13 4 0 1;
#X connect 14 0 9 0;
#X connect 14 1 6 0;
#X connect 14 2 16 0;
#X connect 14 3 0 0;
#X connect 14 4 0 1;
#X connect 16 0 6 0;
#X connect 17 0 0 0;
#X restore 33 397 pd nanokontrol2-recorder;
#X symbolatom 126 250 10 0 0 0 - - -;
#X msg 126 273 write \$1;
#X obj 157 167 loadbang;
#X text 55 99 * nanokontrol2-recorder !;
#X floatatom 392 537 5 0 0 0 - - -;
#X floatatom 452 537 5 0 0 0 - - -;
#X obj 513 537 tgl 15 0 empty empty empty 17 7 0 10 -262144 -1 -1 0
1;
#X obj 573 537 tgl 15 0 empty empty empty 17 7 0 10 -262144 -1 -1 0
1;
#X obj 634 537 tgl 15 0 empty empty empty 17 7 0 10 -262144 -1 -1 0
1;
#X obj 287 16 nanokontrol2-channel 1 10 0 10 0 20;
#X obj 322 146 nanokontrol2-channel 2 11 1 11 1 21;
#X obj 357 276 nanokontrol2-channel 3 12 2 12 2 22;
#X obj 392 406 nanokontrol2-channel 4 13 3 13 3 23;
#X obj 597 16 nanokontrol2-channel 5 14 4 14 4 24;
#X obj 632 146 nanokontrol2-channel 6 15 5 15 5 25;
#X obj 667 276 nanokontrol2-channel 7 16 6 16 6 26;
#X obj 702 406 nanokontrol2-channel 8 17 7 17 7 27;
#X msg 157 191 symbol q.txt;
#X msg 157 215 set \$1;
#X connect 1 0 2 0;
#X connect 2 0 3 0;
#X connect 2 1 8 0;
#X connect 3 0 7 0;
#X connect 3 1 4 0;
#X connect 4 0 0 0;
#X connect 5 0 0 0;
#X connect 6 0 0 0;
#X connect 7 0 0 0;
#X connect 8 0 9 0;
#X connect 9 0 0 0;
#X connect 10 0 25 0;
#X connect 20 0 12 0;
#X connect 20 1 13 0;
#X connect 20 2 14 0;
#X connect 20 3 15 0;
#X connect 20 4 16 0;
#X connect 25 0 26 0;
#X connect 26 0 8 0;
#X coords 0 570 1 569 280 120 0;
