#N canvas 20 79 853 545 12;
#X obj 259 191 vsl 15 65 0 127 0 0 empty \$0-color empty 0 -9 0 10
-228856 -1 -1 3225 1;
#X obj 242 159 mknob 25 100 0 127 0 0 empty \$0-color empty -2 -6 0
8 -228856 -1 -1 6470 1;
#X floatatom 83 192 5 0 0 0 - - -;
#X obj 83 239 outlet;
#X obj 83 215 / 127;
#X floatatom 26 192 5 0 0 0 - - -;
#X obj 26 239 outlet;
#X obj 26 215 / 127;
#X obj 362 20 notein;
#X obj 242 198 tgl 15 0 empty \$0-color empty 17 7 0 10 -228856 -1
-1 0 1;
#X obj 242 218 tgl 15 0 empty \$0-color empty 17 7 0 10 -228856 -1
-1 0 1;
#X obj 242 238 tgl 15 0 empty \$0-color empty 17 7 0 10 -228856 -1
-1 0 1;
#X obj 391 90 != 0;
#X obj 362 149 f;
#X obj 389 149 f;
#X obj 416 149 f;
#X obj 362 195 outlet;
#X obj 389 217 outlet;
#X obj 416 239 outlet;
#X obj 746 479 ctlin \$2 1;
#X obj 746 501 ctlin \$3 1;
#X obj 362 120 sel \$4 \$5 \$6;
#X obj 26 281 loadbang;
#X obj 26 305 f \$1;
#X msg 26 373 color #dfdfdf;
#X msg 42 397 color #fcc4c4;
#X msg 58 421 color #fce0c4;
#X msg 74 445 color #fcfcc4;
#X msg 151 373 color #c4fcc4;
#X msg 167 397 color #c4fcfc;
#X msg 183 421 color #c4c4fc;
#X msg 199 445 color #e0c4fc;
#X obj 26 329 sel 1 2 3 4 5 6 7 8;
#X obj 56 497 s \$0-color;
#X msg 564 110 1;
#X obj 518 56 t b a b;
#X obj 518 137 noteout;
#X obj 541 83 * 127;
#X msg 654 110 1;
#X obj 608 56 t b a b;
#X obj 608 137 noteout;
#X obj 631 83 * 127;
#X msg 744 110 1;
#X obj 698 56 t b a b;
#X obj 698 137 noteout;
#X obj 721 83 * 127;
#X obj 518 110 f \$4;
#X obj 608 110 f \$5;
#X obj 698 110 f \$6;
#X obj 518 26 inlet;
#X obj 608 26 inlet;
#X obj 698 26 inlet;
#X text 617 161 LED feedback;
#X obj 224 43 unpack f f;
#X obj 26 20 ctlin;
#X obj 26 80 pack f f f;
#X msg 26 104 \$3 \$2 \$1;
#X obj 26 128 route 1;
#X obj 26 152 route \$2 \$3;
#X obj 94 44 unpack f f f;
#X obj 224 20 r NOTEIN_Q;
#X obj 94 20 r CTLIN_Q;
#X connect 2 0 4 0;
#X connect 2 0 0 0;
#X connect 4 0 3 0;
#X connect 5 0 7 0;
#X connect 5 0 1 0;
#X connect 7 0 6 0;
#X connect 8 0 21 0;
#X connect 8 1 12 0;
#X connect 12 0 13 1;
#X connect 12 0 14 1;
#X connect 12 0 15 1;
#X connect 13 0 9 0;
#X connect 13 0 16 0;
#X connect 14 0 10 0;
#X connect 14 0 17 0;
#X connect 15 0 11 0;
#X connect 15 0 18 0;
#X connect 21 0 13 0;
#X connect 21 1 14 0;
#X connect 21 2 15 0;
#X connect 22 0 23 0;
#X connect 23 0 32 0;
#X connect 24 0 33 0;
#X connect 25 0 33 0;
#X connect 26 0 33 0;
#X connect 27 0 33 0;
#X connect 28 0 33 0;
#X connect 29 0 33 0;
#X connect 30 0 33 0;
#X connect 31 0 33 0;
#X connect 32 0 24 0;
#X connect 32 1 25 0;
#X connect 32 2 26 0;
#X connect 32 3 27 0;
#X connect 32 4 28 0;
#X connect 32 5 29 0;
#X connect 32 6 30 0;
#X connect 32 7 31 0;
#X connect 34 0 36 2;
#X connect 35 0 46 0;
#X connect 35 1 37 0;
#X connect 35 2 34 0;
#X connect 37 0 36 1;
#X connect 38 0 40 2;
#X connect 39 0 47 0;
#X connect 39 1 41 0;
#X connect 39 2 38 0;
#X connect 41 0 40 1;
#X connect 42 0 44 2;
#X connect 43 0 48 0;
#X connect 43 1 45 0;
#X connect 43 2 42 0;
#X connect 45 0 44 1;
#X connect 46 0 36 0;
#X connect 47 0 40 0;
#X connect 48 0 44 0;
#X connect 49 0 35 0;
#X connect 50 0 39 0;
#X connect 51 0 43 0;
#X connect 53 0 21 0;
#X connect 53 1 12 0;
#X connect 54 0 55 0;
#X connect 54 1 55 1;
#X connect 54 2 55 2;
#X connect 55 0 56 0;
#X connect 56 0 57 0;
#X connect 57 0 58 0;
#X connect 58 0 5 0;
#X connect 58 1 2 0;
#X connect 59 0 55 0;
#X connect 59 1 55 1;
#X connect 59 2 55 2;
#X connect 60 0 53 0;
#X connect 61 0 59 0;
#X coords 0 -1 1 1 35 120 1 240 140;
