#N canvas 0 88 1191 707 10;
#X floatatom 31 278 5 0 0 0 - - -;
#X obj 486 16 ctlin;
#X floatatom 486 38 5 0 0 0 - - -;
#X floatatom 495 55 5 0 0 0 - - -;
#X floatatom 509 74 5 0 0 0 - - -;
#X obj 31 256 ctlin 0 1;
#X floatatom 171 278 5 0 0 0 - - -;
#X obj 171 256 ctlin 1 1;
#X floatatom 311 278 5 0 0 0 - - -;
#X obj 311 256 ctlin 2 1;
#X floatatom 451 278 5 0 0 0 - - -;
#X floatatom 591 278 5 0 0 0 - - -;
#X floatatom 731 278 5 0 0 0 - - -;
#X obj 451 256 ctlin 3 1;
#X obj 591 256 ctlin 4 1;
#X obj 731 256 ctlin 5 1;
#X floatatom 881 278 5 0 0 0 - - -;
#X floatatom 1021 278 5 0 0 0 - - -;
#X obj 881 256 ctlin 6 1;
#X obj 1021 256 ctlin 7 1;
#X obj 20 69 vsl 15 65 0 127 0 0 empty empty empty 0 -9 0 10 -228856
-4160 -1 0 1;
#X obj 55 69 vsl 15 65 0 127 0 0 empty empty empty 0 -9 0 10 -261234
-4160 -1 0 1;
#X obj 90 69 vsl 15 65 0 127 0 0 empty empty empty 0 -9 0 10 -261682
-4160 -1 0 1;
#X obj 125 69 vsl 15 65 0 127 0 0 empty empty empty 0 -9 0 10 -262130
-4160 -1 0 1;
#X obj 160 69 vsl 15 65 0 127 0 0 empty empty empty 0 -9 0 10 -204786
-4160 -1 0 1;
#X obj 195 69 vsl 15 65 0 127 0 0 empty empty empty 0 -9 0 10 -204800
-4160 -1 0 1;
#X obj 230 69 vsl 15 65 0 127 0 0 empty empty empty 0 -9 0 10 -203904
-4160 -1 0 1;
#X obj 265 69 vsl 15 65 0 127 0 0 empty empty empty 0 -9 0 10 -232576
-4160 -1 0 1;
#X floatatom 437 39 5 0 0 0 - - -;
#X obj 419 87 midiout;
#X obj 31 319 outlet;
#X obj 31 297 / 127;
#X obj 171 319 outlet;
#X obj 171 297 / 127;
#X obj 311 319 outlet;
#X obj 311 297 / 127;
#X obj 451 319 outlet;
#X obj 451 297 / 127;
#X obj 591 319 outlet;
#X obj 591 297 / 127;
#X obj 731 319 outlet;
#X obj 731 297 / 127;
#X obj 881 319 outlet;
#X obj 881 297 / 127;
#X obj 1021 319 outlet;
#X obj 1021 297 / 127;
#X obj 40 39 vsl 15 15 0 127 0 0 empty empty empty 0 -9 0 10 -228856
-4160 -1 0 1;
#X obj 75 39 vsl 15 15 0 127 0 0 empty empty empty 0 -9 0 10 -261234
-4160 -1 0 1;
#X obj 110 39 vsl 15 15 0 127 0 0 empty empty empty 0 -9 0 10 -261682
-4160 -1 0 1;
#X obj 145 39 vsl 15 15 0 127 0 0 empty empty empty 0 -9 0 10 -262130
-4160 -1 0 1;
#X obj 180 39 vsl 15 15 0 127 0 0 empty empty empty 0 -9 0 10 -204786
-4160 -1 0 1;
#X obj 215 39 vsl 15 15 0 127 0 0 empty empty empty 0 -9 0 10 -204800
-4160 -1 0 1;
#X obj 250 39 vsl 15 15 0 127 0 0 empty empty empty 0 -9 0 10 -203904
-4160 -1 0 1;
#X obj 285 39 vsl 15 15 0 127 0 0 empty empty empty 0 -9 0 10 -232576
-4160 -1 0 1;
#X floatatom 81 418 5 0 0 0 - - -;
#X floatatom 221 418 5 0 0 0 - - -;
#X floatatom 361 418 5 0 0 0 - - -;
#X floatatom 501 418 5 0 0 0 - - -;
#X floatatom 641 418 5 0 0 0 - - -;
#X floatatom 781 418 5 0 0 0 - - -;
#X floatatom 921 418 5 0 0 0 - - -;
#X floatatom 1061 418 5 0 0 0 - - -;
#X obj 81 459 outlet;
#X obj 81 437 / 127;
#X obj 221 459 outlet;
#X obj 221 437 / 127;
#X obj 361 459 outlet;
#X obj 361 437 / 127;
#X obj 501 459 outlet;
#X obj 501 437 / 127;
#X obj 641 459 outlet;
#X obj 641 437 / 127;
#X obj 781 459 outlet;
#X obj 781 437 / 127;
#X obj 921 459 outlet;
#X obj 921 437 / 127;
#X obj 1061 459 outlet;
#X obj 1061 437 / 127;
#X obj 81 396 ctlin 10 1;
#X obj 221 396 ctlin 11 1;
#X obj 361 396 ctlin 12 1;
#X obj 501 396 ctlin 13 1;
#X obj 641 396 ctlin 14 1;
#X obj 781 396 ctlin 15 1;
#X obj 921 396 ctlin 16 1;
#X obj 1061 396 ctlin 17 1;
#X connect 0 0 20 0;
#X connect 0 0 31 0;
#X connect 1 0 2 0;
#X connect 1 1 3 0;
#X connect 1 2 4 0;
#X connect 5 0 0 0;
#X connect 6 0 21 0;
#X connect 6 0 33 0;
#X connect 7 0 6 0;
#X connect 8 0 22 0;
#X connect 8 0 35 0;
#X connect 9 0 8 0;
#X connect 10 0 23 0;
#X connect 10 0 37 0;
#X connect 11 0 24 0;
#X connect 11 0 39 0;
#X connect 12 0 25 0;
#X connect 12 0 41 0;
#X connect 13 0 10 0;
#X connect 14 0 11 0;
#X connect 15 0 12 0;
#X connect 16 0 26 0;
#X connect 16 0 43 0;
#X connect 17 0 27 0;
#X connect 17 0 45 0;
#X connect 18 0 16 0;
#X connect 19 0 17 0;
#X connect 28 0 29 0;
#X connect 31 0 30 0;
#X connect 33 0 32 0;
#X connect 35 0 34 0;
#X connect 37 0 36 0;
#X connect 39 0 38 0;
#X connect 41 0 40 0;
#X connect 43 0 42 0;
#X connect 45 0 44 0;
#X connect 54 0 63 0;
#X connect 54 0 46 0;
#X connect 55 0 65 0;
#X connect 55 0 47 0;
#X connect 56 0 67 0;
#X connect 56 0 48 0;
#X connect 57 0 69 0;
#X connect 57 0 49 0;
#X connect 58 0 71 0;
#X connect 58 0 50 0;
#X connect 59 0 73 0;
#X connect 59 0 51 0;
#X connect 60 0 75 0;
#X connect 60 0 52 0;
#X connect 61 0 77 0;
#X connect 61 0 53 0;
#X connect 63 0 62 0;
#X connect 65 0 64 0;
#X connect 67 0 66 0;
#X connect 69 0 68 0;
#X connect 71 0 70 0;
#X connect 73 0 72 0;
#X connect 75 0 74 0;
#X connect 77 0 76 0;
#X connect 78 0 54 0;
#X connect 79 0 55 0;
#X connect 80 0 56 0;
#X connect 81 0 57 0;
#X connect 82 0 58 0;
#X connect 83 0 59 0;
#X connect 84 0 60 0;
#X connect 85 0 61 0;
#X coords 0 -1 1 1 280 120 1 20 20;
