#N canvas 259 250 600 453 12;
#X obj 39 71 vsl 15 65 0 127 0 0 empty \$0-color empty 0 -9 0 10 -204786
-1 -1 0 1;
#X obj 22 39 mknob 25 100 0 127 0 0 empty \$0-color empty -2 -6 0 8
-204786 -1 -1 0 1;
#X floatatom 42 296 5 0 0 0 - - -;
#X obj 42 339 outlet;
#X obj 42 317 / 127;
#X floatatom 22 203 5 0 0 0 - - -;
#X obj 22 246 outlet;
#X obj 22 224 / 127;
#X obj 153 181 notein;
#X obj 22 78 tgl 15 0 empty \$0-color empty 17 7 0 10 -204786 -1 -1
0 1;
#X obj 22 98 tgl 15 0 empty \$0-color empty 17 7 0 10 -204786 -1 -1
0 1;
#X obj 22 118 tgl 15 0 empty \$0-color empty 17 7 0 10 -204786 -1 -1
0 1;
#X obj 182 211 != 0;
#X obj 153 300 f;
#X obj 180 300 f;
#X obj 207 300 f;
#X obj 153 326 outlet;
#X obj 180 348 outlet;
#X obj 207 370 outlet;
#X obj 22 181 ctlin \$2 1;
#X obj 42 274 ctlin \$3 1;
#X obj 153 271 sel \$4 \$5 \$6;
#X obj 285 180 loadbang;
#X obj 285 204 f \$1;
#X msg 285 272 color #dfdfdf;
#X msg 301 296 color #fcc4c4;
#X msg 317 320 color #fce0c4;
#X msg 333 344 color #fcfcc4;
#X msg 410 272 color #c4fcc4;
#X msg 426 296 color #c4fcfc;
#X msg 442 320 color #c4c4fc;
#X msg 458 344 color #e0c4fc;
#X obj 285 228 sel 1 2 3 4 5 6 7 8;
#X obj 315 396 s \$0-color;
#X connect 2 0 4 0;
#X connect 2 0 0 0;
#X connect 4 0 3 0;
#X connect 5 0 7 0;
#X connect 5 0 1 0;
#X connect 7 0 6 0;
#X connect 8 0 21 0;
#X connect 8 1 12 0;
#X connect 12 0 13 1;
#X connect 12 0 14 1;
#X connect 12 0 15 1;
#X connect 13 0 9 0;
#X connect 13 0 16 0;
#X connect 14 0 10 0;
#X connect 14 0 17 0;
#X connect 15 0 11 0;
#X connect 15 0 18 0;
#X connect 19 0 5 0;
#X connect 20 0 2 0;
#X connect 21 0 13 0;
#X connect 21 1 14 0;
#X connect 21 2 15 0;
#X connect 22 0 23 0;
#X connect 23 0 32 0;
#X connect 24 0 33 0;
#X connect 25 0 33 0;
#X connect 26 0 33 0;
#X connect 27 0 33 0;
#X connect 28 0 33 0;
#X connect 29 0 33 0;
#X connect 30 0 33 0;
#X connect 31 0 33 0;
#X connect 32 0 24 0;
#X connect 32 1 25 0;
#X connect 32 2 26 0;
#X connect 32 3 27 0;
#X connect 32 4 28 0;
#X connect 32 5 29 0;
#X connect 32 6 30 0;
#X connect 32 7 31 0;
#X coords 0 -1 1 1 35 120 1 20 20;
