#N canvas 222 193 613 345 10;
#X obj 17 98 *~ 0.5;
#X floatatom 81 93 5 0 0 2 direct-pan-(0-8000)-1000-per-channel - -
;
#X floatatom 81 133 5 0 0 2 direct-near-far-(800-8000)-1000-exact-xfade
- -;
#X text 13 12 8 channels adaption of 'quadropan' of toxonic;
#X text 13 32 https://forum.pdpatchrepo.info/topic/2930/4-channels-surround-pan
;
#X obj 17 75 noise~;
#X obj 62 214 hsl 128 15 0 8000 0 1 empty empty empty -2 -8 0 10 -4032
-4160 -1 4307 1;
#X text 54 196 0___90___180___270___360;
#X obj 399 302 line;
#X msg 399 222 0 0 \, 8000 10000;
#X msg 439 264 8000 0 \, 0 10000;
#X text 395 202 channle 1 to 8 in 10 seconds ---;
#X obj 87 254 wrap 8000;
#X obj 397 109 metro 50;
#X obj 397 130 f;
#X floatatom 304 204 5 0 0 0 s:0-autopan - #0-autopan;
#X obj 397 83 tgl 15 0 empty empty empty 17 7 0 10 -262144 -1 -1 0
1;
#X obj 427 130 + 50;
#X msg 468 152 50;
#X msg 502 152 -50;
#X floatatom 508 127 5 0 0 0 - - -;
#X floatatom 87 234 5 0 0 0 r:0-autopan #0-autopan -;
#X text 480 104 circular panning;
#X text 410 244 channle 8 to 1 in 10 seconds;
#X text 407 38 >>> pan automation examples <<<;
#X obj 17 167 panaz8~;
#X connect 0 0 25 0;
#X connect 1 0 25 1;
#X connect 2 0 25 2;
#X connect 5 0 0 0;
#X connect 8 0 15 0;
#X connect 9 0 8 0;
#X connect 10 0 8 0;
#X connect 12 0 6 0;
#X connect 13 0 14 0;
#X connect 14 0 17 0;
#X connect 16 0 13 0;
#X connect 17 0 14 1;
#X connect 17 0 15 0;
#X connect 18 0 17 1;
#X connect 19 0 17 1;
#X connect 20 0 17 1;
#X connect 21 0 12 0;
