#N canvas 1 77 1280 211 10;
#N canvas 1 77 450 250 (subpatch) 0;
#X array \$0-scope 1000 float 0;
#X coords 0 1 999 0 1000 140 1 0 0;
#X restore 22 33 graph;
#X floatatom 1076 57 5 0 0 0 - - -, f 5;
#X obj 1175 91 f;
#X obj 1209 91 + 1;
#X floatatom 1175 135 5 0 0 0 - - -, f 5;
#X obj 1175 113 mod 1000;
#X obj 1175 71 bng 15 250 50 0 empty empty empty 17 7 0 10 -262144
-1 -1;
#X obj 1076 154 tabwrite \$0-scope;
#X obj 1076 35 inlet;
#X connect 1 0 6 0;
#X connect 1 0 7 0;
#X connect 2 0 3 0;
#X connect 2 0 5 0;
#X connect 3 0 2 1;
#X connect 4 0 7 1;
#X connect 5 0 4 0;
#X connect 6 0 2 0;
#X connect 8 0 1 0;
