#N canvas 240 23 254 344 12;
#X floatatom 18 49 5 0 0 0 - - -;
#X obj 18 108 change;
#X obj 18 78 spigot;
#X obj 18 138 t a b;
#X obj 50 168 t b b;
#X msg 118 278 0;
#X obj 73 63 tgl 15 0 empty \$0-gate r:0-gate 17 7 0 10 -262144 -1
-1 1 1;
#X msg 50 278 1;
#X msg 161 43 1;
#X floatatom 167 265 5 0 0 0 - - -;
#X obj 18 19 inlet;
#X obj 161 19 loadbang;
#X obj 161 73 tgl 15 0 \$0-gate empty s:0-gate 17 7 0 10 -262144 -1
-1 1 1;
#X obj 50 308 tgl 15 0 \$0-gate empty s:0-gate 17 7 0 10 -262144 -1
-1 1 1;
#X obj 50 198 del \$1;
#X obj 50 222 t b b;
#X obj 81 108 v \$0-track;
#X obj 82 246 v \$0-track;
#X obj 167 294 outlet;
#X connect 0 0 2 0;
#X connect 0 0 16 0;
#X connect 1 0 3 0;
#X connect 2 0 1 0;
#X connect 3 1 4 0;
#X connect 4 0 14 0;
#X connect 4 1 5 0;
#X connect 5 0 13 0;
#X connect 6 0 2 1;
#X connect 7 0 13 0;
#X connect 8 0 12 0;
#X connect 9 0 18 0;
#X connect 10 0 0 0;
#X connect 11 0 8 0;
#X connect 14 0 15 0;
#X connect 15 0 7 0;
#X connect 15 1 17 0;
#X connect 17 0 9 0;
