#N canvas 67 34 1128 660 10;
#X obj 503 518 writesf~;
#X obj 503 408 f \$0;
#X msg 457 408 start;
#X msg 523 342 stop;
#X text 316 530 record mono!;
#X obj 476 320 route 1 0;
#X obj 476 342 t b b;
#X obj 408 515 loadbang;
#X obj 308 600 tabwrite~ \$0-buf-rec;
#X obj 308 501 clip~ -1 1;
#X obj 321 574 metro 100;
#X text 19 147 KORG nanoPAD2 I/F;
#X obj 21 38 cnv 15 198 90 empty \$0-cnv src/coil 13 42 0 32 -262144
-258112 0;
#N canvas 482 138 450 278 (subpatch) 0;
#X array \$0-buf-rec 4410 float 0;
#X coords 0 1 4409 -1 200 70 1 0 0;
#X restore 20 60 graph;
#X obj 20 321 tgl 15 0 \$0-rec-start/stop empty s:0-rec-start/stop
17 7 0 10 -262144 -1 -1 0 1;
#N canvas 6 56 170 226 getkey 0;
#X floatatom 11 33 5 0 0 0 - - -, f 5;
#X floatatom 56 33 5 0 0 0 - - -, f 5;
#X obj 56 52 != 0;
#X floatatom 56 74 5 0 0 0 - - -, f 5;
#X obj 11 11 notein 1;
#X obj 11 88 *;
#X floatatom 38 132 5 0 0 1 note_down_only - -, f 5;
#X obj 11 110 sel 0;
#X floatatom 38 173 5 0 0 0 - - -, f 5;
#X obj 38 192 outlet;
#X obj 38 151 - 36;
#X connect 0 0 5 0;
#X connect 1 0 2 0;
#X connect 2 0 3 0;
#X connect 3 0 5 1;
#X connect 4 0 0 0;
#X connect 4 1 1 0;
#X connect 5 0 7 0;
#X connect 6 0 10 0;
#X connect 7 1 6 0;
#X connect 8 0 9 0;
#X connect 10 0 8 0;
#X restore 20 171 pd getkey;
#X floatatom 20 193 5 0 0 0 - - -, f 5;
#X obj 20 457 s \$0-cnv;
#X msg 47 413 label recording;
#X msg 20 435 color #ff0000 #ff00ff #ffffff;
#X obj 20 391 t b b;
#X obj 711 573 s \$0-cnv;
#X obj 711 507 t b b;
#X msg 711 551 color #ffffff #ff00ff #ff00ff;
#X obj 711 479 s \$0-cnv;
#X obj 711 413 t b b;
#X msg 738 529 label src/coil;
#X msg 738 435 label src/piezo;
#X floatatom 365 190 5 0 0 1 selected-src - -, f 5;
#X obj 495 49 loadbang;
#X msg 495 71 0;
#X text 532 71 default src: 0 - coil;
#X obj 349 282 tgl 15 0 empty empty empty 17 7 0 10 -262144 -1 -1 1
1;
#X obj 367 304 tgl 15 0 empty empty empty 17 7 0 10 -262144 -1 -1 0
1;
#X obj 331 413 *~;
#X obj 308 413 *~;
#X obj 308 441 +~;
#X obj 20 363 route 1 0;
#X obj 39 272 loadbang;
#X msg 39 294 0;
#X obj 686 369 spigot;
#X obj 20 337 tgl 15 0 empty \$0-rec-start/stop r:0-rec-start/stop
17 7 0 10 -262144 -1 -1 0 1;
#X obj 719 327 tgl 15 0 empty \$0-rec-start/stop r:0-rec-start/stop
17 7 0 10 -262144 -1 -1 0 1;
#X obj 719 347 == 0;
#X text 754 356 blk src ui while recording!;
#X obj 231 400 t b;
#X obj 476 300 tgl 15 0 empty \$0-rec-start/stop r:0-rec-start/stop
17 7 0 10 -262144 -1 -1 0 1;
#X text 879 611 doohoyi @ June/2017 \, 14th howling-live;
#X text 945 626 doh! (applecargo & donghee);
#X obj 503 430 makefilename autorec-%d.wav;
#X obj 503 452 t a a;
#X msg 503 474 open \$1;
#X msg 530 496 set \$1;
#X obj 523 364 t b a;
#X obj 523 386 del 200;
#X obj 20 626 outlet;
#X text 64 626 (1) rec. done w/ filename;
#X obj 321 554 tgl 15 0 empty empty empty 17 7 0 10 -262144 -1 -1 1
1;
#X msg 408 537 1;
#X obj 308 385 adc~ 1 2 7 8;
#X obj 377 413 *~;
#X obj 354 413 *~;
#X obj 383 326 tgl 15 0 empty empty empty 17 7 0 10 -262144 -1 -1 0
1;
#X obj 400 348 tgl 15 0 empty empty empty 17 7 0 10 -262144 -1 -1 0
1;
#X obj 686 391 route 0 1 2 3;
#X obj 921 573 s \$0-cnv;
#X obj 921 507 t b b;
#X obj 921 479 s \$0-cnv;
#X obj 921 413 t b b;
#X msg 948 435 label src/stmp1;
#X msg 948 529 label src/stmp2;
#X msg 921 457 color #ffffff #ff00ff #00aaff;
#X msg 921 551 color #ffffff #ff00ff #ff0000;
#X msg 711 457 color #ffffff #ff00ff #ffcc77;
#X obj 308 463 *~;
#X obj 294 64 loadbang;
#X obj 244 79 dac~ 1;
#X obj 244 54 *~;
#X obj 290 37 r \$0-g;
#X msg 294 86 1;
#X obj 244 29 inlet~;
#X obj 294 108 s \$0-g-set;
#X floatatom 390 72 5 0 0 0 - - -, f 5;
#X obj 390 50 ctlin 1 1;
#X text 367 24 touchpad X-> dir.;
#X obj 365 446 r \$0-g;
#X obj 100 20 tgl 25 0 empty empty sel 17 7 0 10 -257985 -258113 -258113
0 1;
#X obj 20 212 spigot;
#X obj 20 234 route \$2;
#X obj 390 91 spigot;
#X obj 70 207 route \$1;
#X obj 349 254 == 0;
#X obj 367 276 == 1;
#X obj 349 232 t a a a a;
#X obj 383 298 == 2;
#X obj 400 320 == 3;
#X obj 175 224 - 9;
#X obj 175 246 / 2;
#X obj 175 268 sel 0 1 2 3;
#X msg 175 290 0;
#X msg 190 312 1;
#X msg 206 334 2;
#X msg 222 356 3;
#X obj 151 20 nbx 3 28 1 1e+37 0 0 \$0-g \$0-g-set g -12 6 0 20 -204786
-258113 -4034 1 256;
#X floatatom 383 476 5 0 0 0 - - -, f 5;
#X obj 133 495 *~;
#X obj 170 555 dac~ 2;
#X msg 457 609;
#X connect 1 0 49 0;
#X connect 2 0 0 0;
#X connect 3 0 53 0;
#X connect 5 0 6 0;
#X connect 5 1 3 0;
#X connect 6 0 2 0;
#X connect 6 1 1 0;
#X connect 7 0 58 0;
#X connect 9 0 8 0;
#X connect 9 0 0 0;
#X connect 9 0 105 0;
#X connect 10 0 8 0;
#X connect 15 0 16 0;
#X connect 16 0 87 0;
#X connect 16 0 90 0;
#X connect 18 0 17 0;
#X connect 19 0 17 0;
#X connect 20 0 19 0;
#X connect 20 1 18 0;
#X connect 22 0 23 0;
#X connect 22 1 26 0;
#X connect 23 0 21 0;
#X connect 25 0 73 0;
#X connect 25 1 27 0;
#X connect 26 0 21 0;
#X connect 27 0 24 0;
#X connect 28 0 40 0;
#X connect 28 0 93 0;
#X connect 29 0 30 0;
#X connect 30 0 28 0;
#X connect 32 0 35 1;
#X connect 33 0 34 1;
#X connect 34 0 36 1;
#X connect 35 0 36 0;
#X connect 36 0 74 0;
#X connect 37 0 20 0;
#X connect 37 1 45 0;
#X connect 38 0 39 0;
#X connect 39 0 14 0;
#X connect 40 0 64 0;
#X connect 41 0 37 0;
#X connect 42 0 43 0;
#X connect 43 0 40 1;
#X connect 45 0 28 0;
#X connect 46 0 5 0;
#X connect 49 0 50 0;
#X connect 50 0 51 0;
#X connect 50 1 52 0;
#X connect 51 0 0 0;
#X connect 52 0 107 0;
#X connect 53 0 54 0;
#X connect 53 1 0 0;
#X connect 54 0 107 0;
#X connect 57 0 10 0;
#X connect 58 0 57 0;
#X connect 59 0 35 0;
#X connect 59 1 34 0;
#X connect 59 2 61 0;
#X connect 59 3 60 0;
#X connect 60 0 36 1;
#X connect 61 0 36 1;
#X connect 62 0 61 1;
#X connect 63 0 60 1;
#X connect 64 0 22 0;
#X connect 64 1 25 0;
#X connect 64 2 68 0;
#X connect 64 3 66 0;
#X connect 66 0 72 0;
#X connect 66 1 70 0;
#X connect 68 0 71 0;
#X connect 68 1 69 0;
#X connect 69 0 67 0;
#X connect 70 0 65 0;
#X connect 71 0 67 0;
#X connect 72 0 65 0;
#X connect 73 0 24 0;
#X connect 74 0 9 0;
#X connect 75 0 79 0;
#X connect 77 0 76 0;
#X connect 78 0 77 1;
#X connect 79 0 81 0;
#X connect 80 0 77 0;
#X connect 82 0 89 0;
#X connect 83 0 82 0;
#X connect 85 0 74 1;
#X connect 85 0 104 0;
#X connect 86 0 87 1;
#X connect 86 0 89 1;
#X connect 86 0 105 1;
#X connect 87 0 88 0;
#X connect 88 0 14 0;
#X connect 88 1 96 0;
#X connect 89 0 81 0;
#X connect 90 0 86 0;
#X connect 91 0 32 0;
#X connect 92 0 33 0;
#X connect 93 0 91 0;
#X connect 93 1 92 0;
#X connect 93 2 94 0;
#X connect 93 3 95 0;
#X connect 94 0 62 0;
#X connect 95 0 63 0;
#X connect 96 0 97 0;
#X connect 97 0 98 0;
#X connect 98 0 99 0;
#X connect 98 1 100 0;
#X connect 98 2 101 0;
#X connect 98 3 102 0;
#X connect 99 0 28 0;
#X connect 100 0 28 0;
#X connect 101 0 28 0;
#X connect 102 0 28 0;
#X connect 105 0 106 0;
#X connect 107 0 55 0;
#X coords 0 -1 1 1 200 110 1 20 20;
