#N canvas 38 83 796 569 10;
#X obj 370 241 phasor~;
#X obj 369 269 *~;
#X floatatom 510 297 5 0 0 1 seek(sec) - -, f 5;
#X obj 510 365 *;
#X obj 20 368 loadbang;
#X msg 20 390 44100;
#X obj 20 412 v \$0-rate;
#X obj 537 338 v \$0-speedx1;
#X obj 510 316 t a b;
#X obj 305 159 bng 15 250 50 0 empty empty stop! 17 7 0 10 -262144
-1 -1;
#X msg 305 185 0;
#X obj 370 134 bng 15 250 50 0 empty empty start 17 7 0 10 -262144
-1 -1;
#X obj 379 501 outlet~;
#X obj 370 176 t a b;
#X obj 370 219 *;
#X obj 397 198 v \$0-speedx1;
#X obj 146 38 tgl 15 0 \$0-loop \$0-loop-set loop 17 7 0 10 -257985
-4160 -4160 0 1;
#X obj 464 530 outlet~;
#X obj 54 90 nbx 8 14 -1e+37 1e+37 0 0 empty \$0-posS posS -27 8 0
10 -262144 -1 -1 0 256;
#X obj 54 107 nbx 8 14 -1e+37 1e+37 0 0 empty \$0-posE posE -27 8 0
10 -262144 -1 -1 0 256;
#X obj 345 92 tgl 15 0 empty \$0-loop r:0-loop 17 7 0 10 -262144 -1
-1 0 1;
#X obj 146 90 bng 15 250 50 0 \$0-posS-save empty s -8 7 0 10 -257985
-1 -1;
#X obj 171 90 bng 15 250 50 0 \$0-posS-clear empty c -8 7 0 10 -262144
-1 -1;
#X obj 146 107 bng 15 250 50 0 \$0-posE-save empty s -8 7 0 10 -4034
-1 -1;
#X obj 171 107 bng 15 250 50 0 \$0-posE-clear empty c -8 7 0 10 -262144
-1 -1;
#X obj 379 479 tabread4~ \$0-audio-l;
#X obj 464 508 tabread4~ \$0-audio-r;
#X obj 370 154 v \$0-spdscale;
#X obj 456 100 v \$0-spdscale;
#X msg 497 203 0;
#X obj 345 112 route 0 1;
#X obj 480 155 bng 15 250 50 0 empty \$0-apply_vars r:0-apply_vars
17 7 0 10 -262144 -1 -1;
#X obj 514 231 v \$0-nsamples;
#X obj 480 175 t b b b b;
#X obj 369 297 +~;
#X obj 531 259 v \$0-start-sample;
#N canvas 63 83 524 683 fileload 0;
#X floatatom 155 252 11 0 0 0 - - -, f 11;
#X obj 155 224 soundfiler;
#X obj 200 40 f \$0;
#X obj 200 12 loadbang;
#X obj 155 78 pack s f;
#X obj 136 22 inlet;
#X obj 360 235 f \$0;
#X obj 360 68 bng 15 250 50 0 empty empty clear_buffer 17 7 0 10 -262144
-1 -1;
#X msg 33 108 1;
#X obj 33 135 tgl 15 0 \$0-loop-set empty s:0-loop-set 17 7 0 10 -262144
-1 -1 0 1;
#X msg 360 257 \; \$1-audio-l resize 1 \; \$1-audio-l 0 0 \; \$1-audio-r
resize 1 \; \$1-audio-r 0 0;
#X obj 218 299 v \$0-end-sample;
#X obj 186 350 v \$0-start-sample;
#X msg 186 322 0;
#X obj 170 378 bng 15 250 50 0 \$0-update_vars empty s:0-update_vars
17 7 0 10 -262144 -1 -1;
#X obj 155 432 v \$0-speedx1_org;
#X obj 155 404 v \$0-speedx1;
#X obj 218 322 v \$0-end-sample_org;
#X obj 136 50 t b a b;
#X obj 155 277 t b b b b a;
#X msg 155 196 read -resize -maxsize 8e+07 \$1 \$2-audio-l \$2-audio-r
;
#X connect 0 0 19 0;
#X connect 1 0 0 0;
#X connect 2 0 4 1;
#X connect 3 0 2 0;
#X connect 4 0 20 0;
#X connect 5 0 18 0;
#X connect 6 0 10 0;
#X connect 7 0 6 0;
#X connect 8 0 9 0;
#X connect 11 0 17 0;
#X connect 13 0 12 0;
#X connect 16 0 15 0;
#X connect 18 0 8 0;
#X connect 18 1 4 0;
#X connect 18 2 7 0;
#X connect 19 0 16 0;
#X connect 19 1 14 0;
#X connect 19 2 13 0;
#X connect 19 3 11 0;
#X connect 19 4 11 0;
#X connect 20 0 1 0;
#X restore 20 280 pd fileload;
#X obj 20 258 inlet;
#X obj 538 451 table \$0-audio-l 8820;
#X obj 538 473 table \$0-audio-r 8820;
#X obj 429 78 t b a;
#X obj 111 41 bng 10 250 50 0 empty empty c 14 5 0 10 -262144 -1 -1
;
#X msg 201 85 1;
#X obj 111 3 loadbang;
#X obj 23 55 hsl 165 33 0 1 0 0 \$0-play-pos-set-DONTCARE \$0-play-pos-set
empty -2 -8 0 10 -228856 -258113 -1 0 1;
#X obj 54 73 nbx 8 14 -1e+37 1e+37 0 0 empty \$0-pos pos -21 8 0 10
-262144 -1 -1 0 256;
#X obj 54 56 nbx 8 14 -1e+37 1e+37 0 0 empty \$0-len len -21 8 0 10
-262144 -1 -1 0 256;
#X obj 152 24 bng 10 250 50 0 \$0-save-state SAVE-ALL save 12 5 0 10
-4160 -257985 -1;
#X obj 664 133 bng 10 250 50 0 empty \$0-save-state r:0-save-state
12 5 0 10 -4160 -257985 -1;
#X obj 619 106 inlet;
#X obj 619 187 outlet;
#X floatatom 54 39 5 0 0 0 spdx #0-spdx-set #0-spdx, f 5;
#X obj 201 107 s \$0-spdx-set;
#X floatatom 429 59 5 0 0 1 r:0-spdx #0-spdx -, f 5;
#X obj 379 450 r~ \$0-bufread;
#X obj 369 326 s~ \$0-bufread;
#N canvas 42 191 598 554 gui 0;
#X obj 115 240 t a b;
#X obj 115 212 snapshot~;
#X obj 115 184 metro 50;
#X obj 115 156 loadbang;
#X obj 115 295 /;
#X obj 142 268 v \$0-rate;
#X obj 145 492 hsl 128 15 0 1 0 0 empty empty 0-1 -2 -8 0 10 -262144
-1 -1 0 1;
#X obj 142 458 v \$0-length;
#X obj 115 475 /;
#X obj 115 436 t a b;
#X floatatom 115 323 5 0 0 1 sec - -, f 5;
#X obj 115 512 s \$0-play-pos-set;
#X obj 27 179 tgl 15 0 empty \$0-loop r:0-loop 17 7 0 10 -262144 -1
-1 0 1;
#X floatatom 441 148 12 0 0 0 start(smpl) - -, f 12;
#X obj 441 227 bng 15 250 50 0 \$0-update_vars empty s:0-update_vars
17 7 0 10 -262144 -1 -1;
#X obj 441 167 t b a;
#X obj 370 308 bng 15 250 50 0 empty \$0-update_vars r:0-update_vars
17 7 0 10 -262144 -1 -1;
#X obj 370 350 bng 15 250 50 0 \$0-apply_vars empty s:0-apply_vars
17 7 0 10 -262144 -1 -1;
#N canvas 531 193 328 521 update_vars 0;
#X obj 140 280 /;
#X obj 140 333 v \$0-speedx1;
#X obj 174 361 t a b;
#X obj 174 416 /;
#X floatatom 174 444 9 0 0 0 length(sec) - -, f 9;
#X obj 140 252 v \$0-rate;
#X obj 201 389 v \$0-rate;
#X floatatom 140 308 9 0 0 0 - - -, f 9;
#X obj 174 469 v \$0-length;
#X obj 174 224 v \$0-nsamples;
#X obj 123 87 inlet;
#X obj 46 275 outlet;
#X obj 123 175 -;
#X obj 123 109 t b b;
#X obj 150 131 v \$0-start-sample;
#X obj 123 153 v \$0-end-sample;
#X text 26 16 input vars. : start-sample \, end-sample \, rate;
#X obj 123 197 t b b b a;
#X text 26 36 output vars. : nsamples \, speedx1 \, length;
#X connect 0 0 7 0;
#X connect 2 0 3 0;
#X connect 2 1 6 0;
#X connect 3 0 4 0;
#X connect 4 0 8 0;
#X connect 5 0 0 0;
#X connect 6 0 3 1;
#X connect 7 0 1 0;
#X connect 9 0 2 0;
#X connect 9 0 0 1;
#X connect 10 0 13 0;
#X connect 12 0 17 0;
#X connect 13 0 15 0;
#X connect 13 1 14 0;
#X connect 14 0 12 1;
#X connect 15 0 12 0;
#X connect 17 0 11 0;
#X connect 17 1 5 0;
#X connect 17 2 9 0;
#X connect 17 3 9 0;
#X restore 370 328 pd update_vars;
#X obj 441 126 snapshot~;
#X obj 441 106 bng 15 250 50 0 empty \$0-posS-save s 17 7 0 10 -257985
-1 -1;
#X obj 441 64 bng 15 250 50 0 empty \$0-posS-clear c 17 7 0 10 -262144
-1 -1;
#X obj 271 106 bng 15 250 50 0 empty \$0-posE-save s 17 7 0 10 -4034
-1 -1;
#X obj 271 64 bng 15 250 50 0 empty \$0-posE-clear c 17 7 0 10 -262144
-1 -1;
#X msg 441 84 0;
#X floatatom 271 148 12 0 0 0 end(smpl) - -, f 12;
#X obj 271 227 bng 15 250 50 0 \$0-update_vars empty s:0-update_vars
17 7 0 10 -262144 -1 -1;
#X obj 271 167 t b a;
#X obj 271 126 snapshot~;
#X obj 271 84 v \$0-end-sample_org;
#N canvas 353 156 703 518 apply_ui 0;
#X obj 184 341 f \$0;
#X obj 184 315 bng 15 250 50 0 empty empty empty 17 7 0 10 -262144
-1 -1;
#X obj 209 434 f \$0;
#X obj 209 408 bng 15 250 50 0 empty empty empty 17 7 0 10 -262144
-1 -1;
#X obj 14 125 v \$0-length;
#X floatatom 265 237 12 0 0 1 end(sec) - -, f 12;
#X obj 14 19 inlet;
#X obj 115 209 /;
#X obj 265 209 /;
#X floatatom 115 237 12 0 0 1 start(sec) - -, f 12;
#X obj 184 265 == 0;
#X obj 184 287 route 1 0;
#X obj 115 153 t a b a;
#X msg 184 367 \; \$1-posS color #ffffff #000000 #000000;
#X obj 424 341 f \$0;
#X obj 424 315 bng 15 250 50 0 empty empty empty 17 7 0 10 -262144
-1 -1;
#X obj 449 434 f \$0;
#X obj 449 408 bng 15 250 50 0 empty empty empty 17 7 0 10 -262144
-1 -1;
#X obj 424 287 route 1 0;
#X obj 424 265 ==;
#X obj 265 153 t a b a b;
#X obj 439 200 v \$0-end-sample_org;
#X msg 424 367 \; \$1-posE color #ffffff #000000 #000000;
#X msg 209 461 \; \$1-posS color #ffff00 #0000ff #000000;
#X msg 449 461 \; \$1-posE color #00ff00 #0000ff #000000;
#X obj 115 265 s \$0-posS;
#X obj 265 265 s \$0-posE;
#X obj 14 153 s \$0-len;
#X obj 265 125 v \$0-end-sample;
#X obj 115 125 v \$0-start-sample;
#X obj 134 181 v \$0-rate;
#X obj 282 181 v \$0-rate;
#X obj 14 51 t b b b b;
#X connect 0 0 13 0;
#X connect 1 0 0 0;
#X connect 2 0 23 0;
#X connect 3 0 2 0;
#X connect 4 0 27 0;
#X connect 5 0 26 0;
#X connect 6 0 32 0;
#X connect 7 0 9 0;
#X connect 8 0 5 0;
#X connect 9 0 25 0;
#X connect 10 0 11 0;
#X connect 11 0 1 0;
#X connect 11 1 3 0;
#X connect 12 0 7 0;
#X connect 12 1 30 0;
#X connect 12 2 10 0;
#X connect 14 0 22 0;
#X connect 15 0 14 0;
#X connect 16 0 24 0;
#X connect 17 0 16 0;
#X connect 18 0 15 0;
#X connect 18 1 17 0;
#X connect 19 0 18 0;
#X connect 20 0 8 0;
#X connect 20 1 31 0;
#X connect 20 2 19 0;
#X connect 20 3 21 0;
#X connect 21 0 19 1;
#X connect 28 0 20 0;
#X connect 29 0 12 0;
#X connect 30 0 7 1;
#X connect 31 0 8 1;
#X connect 32 0 4 0;
#X connect 32 2 29 0;
#X connect 32 3 28 0;
#X restore 46 76 pd apply_ui;
#X obj 46 50 bng 15 250 50 0 empty \$0-apply_vars r:0-apply_vars 17
7 0 10 -262144 -1 -1;
#X obj 281 199 v \$0-end-sample;
#X obj 451 199 v \$0-start-sample;
#X obj 52 386 s \$0-pos;
#X obj 115 364 -;
#X obj 197 400 /;
#X obj 197 329 v \$0-start-sample;
#X obj 224 373 v \$0-rate;
#X obj 115 342 t a b;
#X obj 197 351 t a b;
#X obj 27 240 r~ \$0-bufread;
#X obj 497 175 r~ \$0-bufread;
#X obj 327 175 r~ \$0-bufread;
#X text 30 123 (display playing position);
#X text 30 23 (redo ui related calculations);
#X text 270 23 (react on posS/posE set requests);
#X text 315 274 (let buffer reader apply the changes);
#X connect 0 0 4 0;
#X connect 0 1 5 0;
#X connect 1 0 0 0;
#X connect 2 0 1 0;
#X connect 3 0 2 0;
#X connect 4 0 10 0;
#X connect 5 0 4 1;
#X connect 7 0 8 1;
#X connect 8 0 6 0;
#X connect 8 0 11 0;
#X connect 9 0 8 0;
#X connect 9 1 7 0;
#X connect 10 0 34 0;
#X connect 10 0 39 0;
#X connect 12 0 2 0;
#X connect 13 0 15 0;
#X connect 15 0 14 0;
#X connect 15 1 33 0;
#X connect 16 0 18 0;
#X connect 18 0 17 0;
#X connect 19 0 13 0;
#X connect 20 0 19 0;
#X connect 21 0 24 0;
#X connect 22 0 28 0;
#X connect 23 0 29 0;
#X connect 24 0 13 0;
#X connect 25 0 27 0;
#X connect 27 0 26 0;
#X connect 27 1 32 0;
#X connect 28 0 25 0;
#X connect 29 0 25 0;
#X connect 31 0 30 0;
#X connect 35 0 9 0;
#X connect 36 0 35 1;
#X connect 37 0 40 0;
#X connect 38 0 36 1;
#X connect 39 0 35 0;
#X connect 39 1 37 0;
#X connect 40 0 36 0;
#X connect 40 1 38 0;
#X connect 41 0 1 0;
#X connect 42 0 19 0;
#X connect 43 0 28 0;
#X restore 20 178 pd gui;
#X text 20 223 ## file loader ##;
#X text 20 333 ## the (default) samplerate : 44.1kz ##;
#X text 58 258 (1) filename;
#X text 657 106 (2) saved states;
#X text 20 463 ## changelog ##;
#X text 19 521 dooho yi (pilotedeguerre@gmail.com) @ dianaband;
#X text 308 422 ## audio buffers and outputs;
#X text 20 143 ## graphical user interfaces ##;
#X text 308 22 ## buffer reading processor (+react on spdx/loop @ gui)
##;
#X text 617 67 ## state saving/loading ##;
#N canvas 91 214 630 298 state 0;
#X obj 36 165 bng 15 250 50 0 \$0-update_vars empty s:0-update_vars
17 7 0 10 -262144 -1 -1;
#X obj 138 137 v \$0-end-sample;
#X obj 111 109 v \$0-start-sample;
#X obj 84 81 v \$0-rate;
#X obj 17 14 inlet;
#X obj 84 54 unpack f f f f;
#X obj 165 165 t b a;
#X obj 192 193 v \$0-spdscale;
#X obj 192 215 s \$0-spdx-set;
#X obj 17 36 t b b a;
#X msg 17 205 1;
#X obj 17 232 tgl 15 0 \$0-loop-set empty s:0-loop-set 17 7 0 10 -262144
-1 -1 0 1;
#X obj 445 119 v \$0-end-sample;
#X obj 392 91 v \$0-start-sample;
#X obj 498 147 v \$0-spdscale;
#X obj 339 63 v \$0-rate;
#X obj 339 14 inlet;
#X obj 339 214 pack f f f f;
#X obj 339 36 trigger bang bang bang bang;
#X msg 339 236 set \$1 \$2 \$3 \$4;
#X obj 339 258 outlet;
#X text 113 18 (loader);
#X text 523 18 (saver);
#X msg 255 147 44100 0 0 0.4;
#X connect 4 0 9 0;
#X connect 5 0 3 0;
#X connect 5 1 2 0;
#X connect 5 2 1 0;
#X connect 5 3 6 0;
#X connect 6 0 7 0;
#X connect 6 1 7 0;
#X connect 7 0 8 0;
#X connect 9 0 10 0;
#X connect 9 1 0 0;
#X connect 9 2 5 0;
#X connect 10 0 11 0;
#X connect 12 0 17 2;
#X connect 13 0 17 1;
#X connect 14 0 17 3;
#X connect 15 0 17 0;
#X connect 16 0 18 0;
#X connect 17 0 19 0;
#X connect 18 0 15 0;
#X connect 18 1 13 0;
#X connect 18 2 12 0;
#X connect 18 3 14 0;
#X connect 19 0 20 0;
#X connect 19 0 23 0;
#X restore 619 148 pd state;
#X text 375 524 (1) out_L;
#X text 515 534 (2) out_R;
#X text 664 192 (3) cur. states;
#N canvas 79 83 471 397 changelog/todos 1;
#X text 17 62 dooho yi / dianaband @ 2017 11 19 / initial commit;
#X text 17 82 dooho yi / dianaband @ 2018 8 12 / rearranged \, comments
;
#X text 140 25 ## changelog ##;
#X text 140 135 ## todo ##;
#X text 73 176 fileloading has hardcoded 'maxsize' \, parameterize
it : -maxsize 8e+07;
#X text 73 226 samplerate is fixed to be '44100' \, parameterize it
;
#X restore 20 498 pd changelog/todos;
#X connect 0 0 1 0;
#X connect 1 0 34 0;
#X connect 2 0 8 0;
#X connect 3 0 0 1;
#X connect 4 0 5 0;
#X connect 5 0 6 0;
#X connect 7 0 3 1;
#X connect 8 0 3 0;
#X connect 8 1 7 0;
#X connect 9 0 10 0;
#X connect 10 0 0 0;
#X connect 11 0 27 0;
#X connect 13 0 14 0;
#X connect 13 1 15 0;
#X connect 14 0 0 0;
#X connect 15 0 14 1;
#X connect 20 0 30 0;
#X connect 25 0 12 0;
#X connect 26 0 17 0;
#X connect 27 0 13 0;
#X connect 29 0 0 1;
#X connect 30 0 9 0;
#X connect 30 1 11 0;
#X connect 31 0 33 0;
#X connect 32 0 1 1;
#X connect 33 0 11 0;
#X connect 33 1 29 0;
#X connect 33 2 32 0;
#X connect 33 3 35 0;
#X connect 34 0 55 0;
#X connect 35 0 34 1;
#X connect 37 0 36 0;
#X connect 40 0 11 0;
#X connect 40 1 28 0;
#X connect 41 0 42 0;
#X connect 42 0 52 0;
#X connect 43 0 41 0;
#X connect 48 0 67 1;
#X connect 49 0 67 0;
#X connect 53 0 40 0;
#X connect 54 0 25 0;
#X connect 54 0 26 0;
#X connect 67 0 50 0;
#X coords 0 -1 1 1 170 105 1 20 20;
