#N canvas 76 90 1008 369 10;
#X obj 24 49 looper2~;
#X obj 24 175 mx~;
#X obj 104 175 mx~;
#X obj 264 49 looper2~;
#X obj 504 49 looper2~;
#X obj 744 49 looper2~;
#X obj 264 175 mx~;
#X obj 344 175 mx~;
#X obj 504 175 mx~;
#X obj 584 175 mx~;
#X obj 744 175 mx~;
#X obj 824 175 mx~;
#X obj 24 289 dac~ 1;
#X obj 104 289 dac~ 2;
#X obj 264 289 dac~ 3;
#X obj 344 289 dac~ 4;
#X obj 504 289 dac~ 5;
#X obj 584 289 dac~ 6;
#X obj 744 289 dac~ 7;
#X obj 824 289 dac~ 8;
#X msg 4 1 sequence01.wav;
#X text 115 1 some how i discover.. this 1 0.6 1 1 combination so nice..?!
;
#X obj 227 76 bng 15 250 50 0 empty empty empty 17 7 0 10 -262144 -1
-1;
#X msg 24 21 rec-2017-12-1-2-24-54-413-(ab).wav;
#X msg 264 21 rec-2017-12-1-2-24-54-413-(cd).wav;
#X msg 504 21 rec-2017-12-1-2-24-54-413-(ef).wav;
#X msg 744 21 rec-2017-12-1-2-24-54-413-(gh).wav;
#X connect 0 0 1 0;
#X connect 0 1 2 0;
#X connect 1 0 12 0;
#X connect 2 0 13 0;
#X connect 3 0 6 0;
#X connect 3 1 7 0;
#X connect 4 0 8 0;
#X connect 4 1 9 0;
#X connect 5 0 10 0;
#X connect 5 1 11 0;
#X connect 6 0 14 0;
#X connect 7 0 15 0;
#X connect 8 0 16 0;
#X connect 9 0 17 0;
#X connect 10 0 18 0;
#X connect 11 0 19 0;
#X connect 22 0 24 0;
#X connect 22 0 25 0;
#X connect 22 0 26 0;
#X connect 22 0 23 0;
#X connect 23 0 0 0;
#X connect 24 0 3 0;
#X connect 25 0 4 0;
#X connect 26 0 5 0;
