#N canvas 0 90 1280 710 10;
#X obj 24 165 gpui~;
#X obj 24 49 looper2~;
#N canvas 501 322 361 201 s 0;
#X obj 78 6 inlet;
#X obj 23 43 bng 15 250 50 0 empty RELOAD-ALL empty 17 7 0 10 -186348
-1 -1;
#X msg 78 58 44100 2.77711e+06 3.24608e+06 -0.4;
#X obj 78 80 outlet;
#N canvas 3 90 341 467 randomcolor 0;
#X obj 176 172 t b f;
#X obj 176 262 +;
#X obj 176 284 t b f;
#X obj 176 372 +;
#X obj 77 335 * -65536;
#X obj 96 225 * -256;
#X obj 176 150 * -1;
#X obj 176 394 - 1;
#X obj 77 313 int;
#X obj 96 203 int;
#X obj 176 128 int;
#X obj 77 67 t b b b;
#X obj 77 47 bng 15 250 50 0 empty empty empty 17 7 0 10 -262144 -1
-1;
#X obj 77 25 inlet;
#X text 64 233 R;
#X text 84 131 G;
#X text 144 89 B;
#X obj 176 416 outlet;
#X obj 176 84 random 155;
#X obj 96 159 random 155;
#X obj 77 269 random 155;
#X obj 176 106 + 100;
#X obj 96 181 + 100;
#X obj 77 291 + 100;
#X connect 0 0 1 0;
#X connect 0 1 1 1;
#X connect 1 0 2 0;
#X connect 2 0 3 0;
#X connect 2 1 3 1;
#X connect 3 0 7 0;
#X connect 4 0 3 0;
#X connect 5 0 1 0;
#X connect 6 0 0 0;
#X connect 7 0 17 0;
#X connect 8 0 4 0;
#X connect 9 0 5 0;
#X connect 10 0 6 0;
#X connect 11 0 20 0;
#X connect 11 1 19 0;
#X connect 11 2 18 0;
#X connect 12 0 11 0;
#X connect 13 0 12 0;
#X connect 18 0 21 0;
#X connect 19 0 22 0;
#X connect 20 0 23 0;
#X connect 21 0 10 0;
#X connect 22 0 9 0;
#X connect 23 0 8 0;
#X restore 23 118 pd randomcolor;
#X msg 23 140 color \$1;
#X obj 78 28 t a b;
#X connect 0 0 6 0;
#X connect 1 0 2 0;
#X connect 2 0 3 0;
#X connect 4 0 5 0;
#X connect 5 0 1 0;
#X connect 6 0 2 0;
#X connect 6 1 4 0;
#X coords 0 -1 1 1 21 21 2 20 40;
#X restore 187 17 pd s;
#X obj 1178 16 bng 25 250 50 0 SAVE-ALL empty SAVE-ALL 27 7 0 10 -258113
-262144 -1;
#X obj 1178 46 bng 25 250 50 0 RELOAD-ALL empty RELOAD-ALL 27 7 0 10
-159808 -262144 -1;
#N canvas 501 322 361 201 s 0;
#X obj 78 6 inlet;
#X obj 23 43 bng 15 250 50 0 empty RELOAD-ALL empty 17 7 0 10 -237466
-1 -1;
#X msg 78 58 0 0.5;
#X obj 78 80 outlet;
#N canvas 3 90 341 467 randomcolor 0;
#X obj 176 172 t b f;
#X obj 176 262 +;
#X obj 176 284 t b f;
#X obj 176 372 +;
#X obj 77 335 * -65536;
#X obj 96 225 * -256;
#X obj 176 150 * -1;
#X obj 176 394 - 1;
#X obj 77 313 int;
#X obj 96 203 int;
#X obj 176 128 int;
#X obj 77 67 t b b b;
#X obj 77 47 bng 15 250 50 0 empty empty empty 17 7 0 10 -262144 -1
-1;
#X obj 77 25 inlet;
#X text 64 233 R;
#X text 84 131 G;
#X text 144 89 B;
#X obj 176 416 outlet;
#X obj 176 84 random 155;
#X obj 96 159 random 155;
#X obj 77 269 random 155;
#X obj 176 106 + 100;
#X obj 96 181 + 100;
#X obj 77 291 + 100;
#X connect 0 0 1 0;
#X connect 0 1 1 1;
#X connect 1 0 2 0;
#X connect 2 0 3 0;
#X connect 2 1 3 1;
#X connect 3 0 7 0;
#X connect 4 0 3 0;
#X connect 5 0 1 0;
#X connect 6 0 0 0;
#X connect 7 0 17 0;
#X connect 8 0 4 0;
#X connect 9 0 5 0;
#X connect 10 0 6 0;
#X connect 11 0 20 0;
#X connect 11 1 19 0;
#X connect 11 2 18 0;
#X connect 12 0 11 0;
#X connect 13 0 12 0;
#X connect 18 0 21 0;
#X connect 19 0 22 0;
#X connect 20 0 23 0;
#X connect 21 0 10 0;
#X connect 22 0 9 0;
#X connect 23 0 8 0;
#X restore 23 118 pd randomcolor;
#X msg 23 140 color \$1;
#X obj 78 28 t a b;
#X connect 0 0 6 0;
#X connect 1 0 2 0;
#X connect 2 0 3 0;
#X connect 4 0 5 0;
#X connect 5 0 1 0;
#X connect 6 0 2 0;
#X connect 6 1 4 0;
#X coords 0 -1 1 1 21 21 2 20 40;
#X restore 159 194 pd s;
#X obj 24 286 mx~;
#N canvas 501 322 361 201 s 0;
#X obj 78 6 inlet;
#X obj 23 43 bng 15 250 50 0 empty RELOAD-ALL empty 17 7 0 10 -150646
-1 -1;
#X msg 78 58 0.6;
#X obj 78 80 outlet;
#N canvas 3 90 341 467 randomcolor 0;
#X obj 176 172 t b f;
#X obj 176 262 +;
#X obj 176 284 t b f;
#X obj 176 372 +;
#X obj 77 335 * -65536;
#X obj 96 225 * -256;
#X obj 176 150 * -1;
#X obj 176 394 - 1;
#X obj 77 313 int;
#X obj 96 203 int;
#X obj 176 128 int;
#X obj 77 67 t b b b;
#X obj 77 47 bng 15 250 50 0 empty empty empty 17 7 0 10 -262144 -1
-1;
#X obj 77 25 inlet;
#X text 64 233 R;
#X text 84 131 G;
#X text 144 89 B;
#X obj 176 416 outlet;
#X obj 176 84 random 155;
#X obj 96 159 random 155;
#X obj 77 269 random 155;
#X obj 176 106 + 100;
#X obj 96 181 + 100;
#X obj 77 291 + 100;
#X connect 0 0 1 0;
#X connect 0 1 1 1;
#X connect 1 0 2 0;
#X connect 2 0 3 0;
#X connect 2 1 3 1;
#X connect 3 0 7 0;
#X connect 4 0 3 0;
#X connect 5 0 1 0;
#X connect 6 0 0 0;
#X connect 7 0 17 0;
#X connect 8 0 4 0;
#X connect 9 0 5 0;
#X connect 10 0 6 0;
#X connect 11 0 20 0;
#X connect 11 1 19 0;
#X connect 11 2 18 0;
#X connect 12 0 11 0;
#X connect 13 0 12 0;
#X connect 18 0 21 0;
#X connect 19 0 22 0;
#X connect 20 0 23 0;
#X connect 21 0 10 0;
#X connect 22 0 9 0;
#X connect 23 0 8 0;
#X restore 23 118 pd randomcolor;
#X msg 23 140 color \$1;
#X obj 78 28 t a b;
#X connect 0 0 6 0;
#X connect 1 0 2 0;
#X connect 2 0 3 0;
#X connect 4 0 5 0;
#X connect 5 0 1 0;
#X connect 6 0 2 0;
#X connect 6 1 4 0;
#X coords 0 -1 1 1 21 21 2 20 40;
#X restore 99 321 pd s;
#N canvas 172 90 1049 707 nanokontrol2 0;
#X floatatom 431 278 5 0 0 0 - - -, f 5;
#X obj 760 437 ctlin;
#X floatatom 760 459 5 0 0 0 - - -, f 5;
#X floatatom 769 476 5 0 0 0 - - -, f 5;
#X floatatom 783 495 5 0 0 0 - - -, f 5;
#X obj 431 256 ctlin 0 1;
#X floatatom 501 278 5 0 0 0 - - -, f 5;
#X obj 501 256 ctlin 1 1;
#X floatatom 571 278 5 0 0 0 - - -, f 5;
#X obj 571 256 ctlin 2 1;
#X floatatom 641 278 5 0 0 0 - - -, f 5;
#X floatatom 711 278 5 0 0 0 - - -, f 5;
#X floatatom 781 278 5 0 0 0 - - -, f 5;
#X obj 641 256 ctlin 3 1;
#X obj 711 256 ctlin 4 1;
#X obj 781 256 ctlin 5 1;
#X floatatom 851 278 5 0 0 0 - - -, f 5;
#X floatatom 921 278 5 0 0 0 - - -, f 5;
#X obj 851 256 ctlin 6 1;
#X obj 921 256 ctlin 7 1;
#X obj 20 39 vsl 15 65 0 127 0 0 empty empty empty 0 -9 0 10 -228856
-4160 -1 0 1;
#X obj 35 39 vsl 15 65 0 127 0 0 empty empty empty 0 -9 0 10 -261234
-4160 -1 0 1;
#X obj 50 39 vsl 15 65 0 127 0 0 empty empty empty 0 -9 0 10 -261682
-4160 -1 0 1;
#X obj 65 39 vsl 15 65 0 127 0 0 empty empty empty 0 -9 0 10 -262130
-4160 -1 0 1;
#X obj 80 39 vsl 15 65 0 127 0 0 empty empty empty 0 -9 0 10 -204786
-4160 -1 0 1;
#X obj 95 39 vsl 15 65 0 127 0 0 empty empty empty 0 -9 0 10 -204800
-4160 -1 0 1;
#X obj 110 39 vsl 15 65 0 127 0 0 empty empty empty 0 -9 0 10 -203904
-4160 -1 0 1;
#X obj 125 39 vsl 15 65 0 127 0 0 empty empty empty 0 -9 0 10 -232576
-4160 -1 0 1;
#X floatatom 711 460 5 0 0 0 - - -, f 5;
#X obj 693 508 midiout;
#X obj 431 319 outlet;
#X obj 431 297 / 127;
#X obj 501 319 outlet;
#X obj 501 297 / 127;
#X obj 571 319 outlet;
#X obj 571 297 / 127;
#X obj 641 319 outlet;
#X obj 641 297 / 127;
#X obj 711 319 outlet;
#X obj 711 297 / 127;
#X obj 781 319 outlet;
#X obj 781 297 / 127;
#X obj 851 319 outlet;
#X obj 851 297 / 127;
#X obj 921 319 outlet;
#X obj 921 297 / 127;
#X connect 0 0 20 0;
#X connect 0 0 31 0;
#X connect 1 0 2 0;
#X connect 1 1 3 0;
#X connect 1 2 4 0;
#X connect 5 0 0 0;
#X connect 6 0 21 0;
#X connect 6 0 33 0;
#X connect 7 0 6 0;
#X connect 8 0 22 0;
#X connect 8 0 35 0;
#X connect 9 0 8 0;
#X connect 10 0 23 0;
#X connect 10 0 37 0;
#X connect 11 0 24 0;
#X connect 11 0 39 0;
#X connect 12 0 25 0;
#X connect 12 0 41 0;
#X connect 13 0 10 0;
#X connect 14 0 11 0;
#X connect 15 0 12 0;
#X connect 16 0 26 0;
#X connect 16 0 43 0;
#X connect 17 0 27 0;
#X connect 17 0 45 0;
#X connect 18 0 16 0;
#X connect 19 0 17 0;
#X connect 28 0 29 0;
#X connect 31 0 30 0;
#X connect 33 0 32 0;
#X connect 35 0 34 0;
#X connect 37 0 36 0;
#X connect 39 0 38 0;
#X connect 41 0 40 0;
#X connect 43 0 42 0;
#X connect 45 0 44 0;
#X coords 0 -1 1 1 120 90 1 20 20;
#X restore 874 354 pd nanokontrol2;
#X obj 24 400 throw~ a;
#X obj 224 165 gpui~;
#N canvas 501 322 361 201 s 0;
#X obj 78 6 inlet;
#X obj 23 43 bng 15 250 50 0 empty RELOAD-ALL empty 17 7 0 10 -186348
-1 -1;
#X msg 78 58 44100 2.77711e+06 3.24608e+06 -0.4;
#X obj 78 80 outlet;
#N canvas 3 90 341 467 randomcolor 0;
#X obj 176 172 t b f;
#X obj 176 262 +;
#X obj 176 284 t b f;
#X obj 176 372 +;
#X obj 77 335 * -65536;
#X obj 96 225 * -256;
#X obj 176 150 * -1;
#X obj 176 394 - 1;
#X obj 77 313 int;
#X obj 96 203 int;
#X obj 176 128 int;
#X obj 77 67 t b b b;
#X obj 77 47 bng 15 250 50 0 empty empty empty 17 7 0 10 -262144 -1
-1;
#X obj 77 25 inlet;
#X text 64 233 R;
#X text 84 131 G;
#X text 144 89 B;
#X obj 176 416 outlet;
#X obj 176 84 random 155;
#X obj 96 159 random 155;
#X obj 77 269 random 155;
#X obj 176 106 + 100;
#X obj 96 181 + 100;
#X obj 77 291 + 100;
#X connect 0 0 1 0;
#X connect 0 1 1 1;
#X connect 1 0 2 0;
#X connect 2 0 3 0;
#X connect 2 1 3 1;
#X connect 3 0 7 0;
#X connect 4 0 3 0;
#X connect 5 0 1 0;
#X connect 6 0 0 0;
#X connect 7 0 17 0;
#X connect 8 0 4 0;
#X connect 9 0 5 0;
#X connect 10 0 6 0;
#X connect 11 0 20 0;
#X connect 11 1 19 0;
#X connect 11 2 18 0;
#X connect 12 0 11 0;
#X connect 13 0 12 0;
#X connect 18 0 21 0;
#X connect 19 0 22 0;
#X connect 20 0 23 0;
#X connect 21 0 10 0;
#X connect 22 0 9 0;
#X connect 23 0 8 0;
#X restore 23 118 pd randomcolor;
#X msg 23 140 color \$1;
#X obj 78 28 t a b;
#X connect 0 0 6 0;
#X connect 1 0 2 0;
#X connect 2 0 3 0;
#X connect 4 0 5 0;
#X connect 5 0 1 0;
#X connect 6 0 2 0;
#X connect 6 1 4 0;
#X coords 0 -1 1 1 21 21 2 20 40;
#X restore 387 17 pd s;
#N canvas 501 322 361 201 s 0;
#X obj 78 6 inlet;
#X obj 23 43 bng 15 250 50 0 empty RELOAD-ALL empty 17 7 0 10 -237466
-1 -1;
#X msg 78 58 0 0.5;
#X obj 78 80 outlet;
#N canvas 3 90 341 467 randomcolor 0;
#X obj 176 172 t b f;
#X obj 176 262 +;
#X obj 176 284 t b f;
#X obj 176 372 +;
#X obj 77 335 * -65536;
#X obj 96 225 * -256;
#X obj 176 150 * -1;
#X obj 176 394 - 1;
#X obj 77 313 int;
#X obj 96 203 int;
#X obj 176 128 int;
#X obj 77 67 t b b b;
#X obj 77 47 bng 15 250 50 0 empty empty empty 17 7 0 10 -262144 -1
-1;
#X obj 77 25 inlet;
#X text 64 233 R;
#X text 84 131 G;
#X text 144 89 B;
#X obj 176 416 outlet;
#X obj 176 84 random 155;
#X obj 96 159 random 155;
#X obj 77 269 random 155;
#X obj 176 106 + 100;
#X obj 96 181 + 100;
#X obj 77 291 + 100;
#X connect 0 0 1 0;
#X connect 0 1 1 1;
#X connect 1 0 2 0;
#X connect 2 0 3 0;
#X connect 2 1 3 1;
#X connect 3 0 7 0;
#X connect 4 0 3 0;
#X connect 5 0 1 0;
#X connect 6 0 0 0;
#X connect 7 0 17 0;
#X connect 8 0 4 0;
#X connect 9 0 5 0;
#X connect 10 0 6 0;
#X connect 11 0 20 0;
#X connect 11 1 19 0;
#X connect 11 2 18 0;
#X connect 12 0 11 0;
#X connect 13 0 12 0;
#X connect 18 0 21 0;
#X connect 19 0 22 0;
#X connect 20 0 23 0;
#X connect 21 0 10 0;
#X connect 22 0 9 0;
#X connect 23 0 8 0;
#X restore 23 118 pd randomcolor;
#X msg 23 140 color \$1;
#X obj 78 28 t a b;
#X connect 0 0 6 0;
#X connect 1 0 2 0;
#X connect 2 0 3 0;
#X connect 4 0 5 0;
#X connect 5 0 1 0;
#X connect 6 0 2 0;
#X connect 6 1 4 0;
#X coords 0 -1 1 1 21 21 2 20 40;
#X restore 359 194 pd s;
#X obj 224 286 mx~;
#N canvas 501 322 361 201 s 0;
#X obj 78 6 inlet;
#X obj 23 43 bng 15 250 50 0 empty RELOAD-ALL empty 17 7 0 10 -150646
-1 -1;
#X msg 78 58 0.6;
#X obj 78 80 outlet;
#N canvas 3 90 341 467 randomcolor 0;
#X obj 176 172 t b f;
#X obj 176 262 +;
#X obj 176 284 t b f;
#X obj 176 372 +;
#X obj 77 335 * -65536;
#X obj 96 225 * -256;
#X obj 176 150 * -1;
#X obj 176 394 - 1;
#X obj 77 313 int;
#X obj 96 203 int;
#X obj 176 128 int;
#X obj 77 67 t b b b;
#X obj 77 47 bng 15 250 50 0 empty empty empty 17 7 0 10 -262144 -1
-1;
#X obj 77 25 inlet;
#X text 64 233 R;
#X text 84 131 G;
#X text 144 89 B;
#X obj 176 416 outlet;
#X obj 176 84 random 155;
#X obj 96 159 random 155;
#X obj 77 269 random 155;
#X obj 176 106 + 100;
#X obj 96 181 + 100;
#X obj 77 291 + 100;
#X connect 0 0 1 0;
#X connect 0 1 1 1;
#X connect 1 0 2 0;
#X connect 2 0 3 0;
#X connect 2 1 3 1;
#X connect 3 0 7 0;
#X connect 4 0 3 0;
#X connect 5 0 1 0;
#X connect 6 0 0 0;
#X connect 7 0 17 0;
#X connect 8 0 4 0;
#X connect 9 0 5 0;
#X connect 10 0 6 0;
#X connect 11 0 20 0;
#X connect 11 1 19 0;
#X connect 11 2 18 0;
#X connect 12 0 11 0;
#X connect 13 0 12 0;
#X connect 18 0 21 0;
#X connect 19 0 22 0;
#X connect 20 0 23 0;
#X connect 21 0 10 0;
#X connect 22 0 9 0;
#X connect 23 0 8 0;
#X restore 23 118 pd randomcolor;
#X msg 23 140 color \$1;
#X obj 78 28 t a b;
#X connect 0 0 6 0;
#X connect 1 0 2 0;
#X connect 2 0 3 0;
#X connect 4 0 5 0;
#X connect 5 0 1 0;
#X connect 6 0 2 0;
#X connect 6 1 4 0;
#X coords 0 -1 1 1 21 21 2 20 40;
#X restore 299 321 pd s;
#X obj 424 165 gpui~;
#N canvas 501 322 361 201 s 0;
#X obj 78 6 inlet;
#X obj 23 43 bng 15 250 50 0 empty RELOAD-ALL empty 17 7 0 10 -186348
-1 -1;
#X msg 78 58 44100 2.77711e+06 3.24608e+06 -0.4;
#X obj 78 80 outlet;
#N canvas 3 90 341 467 randomcolor 0;
#X obj 176 172 t b f;
#X obj 176 262 +;
#X obj 176 284 t b f;
#X obj 176 372 +;
#X obj 77 335 * -65536;
#X obj 96 225 * -256;
#X obj 176 150 * -1;
#X obj 176 394 - 1;
#X obj 77 313 int;
#X obj 96 203 int;
#X obj 176 128 int;
#X obj 77 67 t b b b;
#X obj 77 47 bng 15 250 50 0 empty empty empty 17 7 0 10 -262144 -1
-1;
#X obj 77 25 inlet;
#X text 64 233 R;
#X text 84 131 G;
#X text 144 89 B;
#X obj 176 416 outlet;
#X obj 176 84 random 155;
#X obj 96 159 random 155;
#X obj 77 269 random 155;
#X obj 176 106 + 100;
#X obj 96 181 + 100;
#X obj 77 291 + 100;
#X connect 0 0 1 0;
#X connect 0 1 1 1;
#X connect 1 0 2 0;
#X connect 2 0 3 0;
#X connect 2 1 3 1;
#X connect 3 0 7 0;
#X connect 4 0 3 0;
#X connect 5 0 1 0;
#X connect 6 0 0 0;
#X connect 7 0 17 0;
#X connect 8 0 4 0;
#X connect 9 0 5 0;
#X connect 10 0 6 0;
#X connect 11 0 20 0;
#X connect 11 1 19 0;
#X connect 11 2 18 0;
#X connect 12 0 11 0;
#X connect 13 0 12 0;
#X connect 18 0 21 0;
#X connect 19 0 22 0;
#X connect 20 0 23 0;
#X connect 21 0 10 0;
#X connect 22 0 9 0;
#X connect 23 0 8 0;
#X restore 23 118 pd randomcolor;
#X msg 23 140 color \$1;
#X obj 78 28 t a b;
#X connect 0 0 6 0;
#X connect 1 0 2 0;
#X connect 2 0 3 0;
#X connect 4 0 5 0;
#X connect 5 0 1 0;
#X connect 6 0 2 0;
#X connect 6 1 4 0;
#X coords 0 -1 1 1 21 21 2 20 40;
#X restore 587 17 pd s;
#N canvas 501 322 361 201 s 0;
#X obj 78 6 inlet;
#X obj 23 43 bng 15 250 50 0 empty RELOAD-ALL empty 17 7 0 10 -237466
-1 -1;
#X msg 78 58 0 0.5;
#X obj 78 80 outlet;
#N canvas 3 90 341 467 randomcolor 0;
#X obj 176 172 t b f;
#X obj 176 262 +;
#X obj 176 284 t b f;
#X obj 176 372 +;
#X obj 77 335 * -65536;
#X obj 96 225 * -256;
#X obj 176 150 * -1;
#X obj 176 394 - 1;
#X obj 77 313 int;
#X obj 96 203 int;
#X obj 176 128 int;
#X obj 77 67 t b b b;
#X obj 77 47 bng 15 250 50 0 empty empty empty 17 7 0 10 -262144 -1
-1;
#X obj 77 25 inlet;
#X text 64 233 R;
#X text 84 131 G;
#X text 144 89 B;
#X obj 176 416 outlet;
#X obj 176 84 random 155;
#X obj 96 159 random 155;
#X obj 77 269 random 155;
#X obj 176 106 + 100;
#X obj 96 181 + 100;
#X obj 77 291 + 100;
#X connect 0 0 1 0;
#X connect 0 1 1 1;
#X connect 1 0 2 0;
#X connect 2 0 3 0;
#X connect 2 1 3 1;
#X connect 3 0 7 0;
#X connect 4 0 3 0;
#X connect 5 0 1 0;
#X connect 6 0 0 0;
#X connect 7 0 17 0;
#X connect 8 0 4 0;
#X connect 9 0 5 0;
#X connect 10 0 6 0;
#X connect 11 0 20 0;
#X connect 11 1 19 0;
#X connect 11 2 18 0;
#X connect 12 0 11 0;
#X connect 13 0 12 0;
#X connect 18 0 21 0;
#X connect 19 0 22 0;
#X connect 20 0 23 0;
#X connect 21 0 10 0;
#X connect 22 0 9 0;
#X connect 23 0 8 0;
#X restore 23 118 pd randomcolor;
#X msg 23 140 color \$1;
#X obj 78 28 t a b;
#X connect 0 0 6 0;
#X connect 1 0 2 0;
#X connect 2 0 3 0;
#X connect 4 0 5 0;
#X connect 5 0 1 0;
#X connect 6 0 2 0;
#X connect 6 1 4 0;
#X coords 0 -1 1 1 21 21 2 20 40;
#X restore 559 194 pd s;
#X obj 424 286 mx~;
#N canvas 501 322 361 201 s 0;
#X obj 78 6 inlet;
#X obj 23 43 bng 15 250 50 0 empty RELOAD-ALL empty 17 7 0 10 -150646
-1 -1;
#X msg 78 58 0.6;
#X obj 78 80 outlet;
#N canvas 3 90 341 467 randomcolor 0;
#X obj 176 172 t b f;
#X obj 176 262 +;
#X obj 176 284 t b f;
#X obj 176 372 +;
#X obj 77 335 * -65536;
#X obj 96 225 * -256;
#X obj 176 150 * -1;
#X obj 176 394 - 1;
#X obj 77 313 int;
#X obj 96 203 int;
#X obj 176 128 int;
#X obj 77 67 t b b b;
#X obj 77 47 bng 15 250 50 0 empty empty empty 17 7 0 10 -262144 -1
-1;
#X obj 77 25 inlet;
#X text 64 233 R;
#X text 84 131 G;
#X text 144 89 B;
#X obj 176 416 outlet;
#X obj 176 84 random 155;
#X obj 96 159 random 155;
#X obj 77 269 random 155;
#X obj 176 106 + 100;
#X obj 96 181 + 100;
#X obj 77 291 + 100;
#X connect 0 0 1 0;
#X connect 0 1 1 1;
#X connect 1 0 2 0;
#X connect 2 0 3 0;
#X connect 2 1 3 1;
#X connect 3 0 7 0;
#X connect 4 0 3 0;
#X connect 5 0 1 0;
#X connect 6 0 0 0;
#X connect 7 0 17 0;
#X connect 8 0 4 0;
#X connect 9 0 5 0;
#X connect 10 0 6 0;
#X connect 11 0 20 0;
#X connect 11 1 19 0;
#X connect 11 2 18 0;
#X connect 12 0 11 0;
#X connect 13 0 12 0;
#X connect 18 0 21 0;
#X connect 19 0 22 0;
#X connect 20 0 23 0;
#X connect 21 0 10 0;
#X connect 22 0 9 0;
#X connect 23 0 8 0;
#X restore 23 118 pd randomcolor;
#X msg 23 140 color \$1;
#X obj 78 28 t a b;
#X connect 0 0 6 0;
#X connect 1 0 2 0;
#X connect 2 0 3 0;
#X connect 4 0 5 0;
#X connect 5 0 1 0;
#X connect 6 0 2 0;
#X connect 6 1 4 0;
#X coords 0 -1 1 1 21 21 2 20 40;
#X restore 499 321 pd s;
#X obj 624 165 gpui~;
#N canvas 501 322 361 201 s 0;
#X obj 78 6 inlet;
#X obj 23 43 bng 15 250 50 0 empty RELOAD-ALL empty 17 7 0 10 -186348
-1 -1;
#X msg 78 58 44100 2.77711e+06 3.24608e+06 -0.4;
#X obj 78 80 outlet;
#N canvas 3 90 341 467 randomcolor 0;
#X obj 176 172 t b f;
#X obj 176 262 +;
#X obj 176 284 t b f;
#X obj 176 372 +;
#X obj 77 335 * -65536;
#X obj 96 225 * -256;
#X obj 176 150 * -1;
#X obj 176 394 - 1;
#X obj 77 313 int;
#X obj 96 203 int;
#X obj 176 128 int;
#X obj 77 67 t b b b;
#X obj 77 47 bng 15 250 50 0 empty empty empty 17 7 0 10 -262144 -1
-1;
#X obj 77 25 inlet;
#X text 64 233 R;
#X text 84 131 G;
#X text 144 89 B;
#X obj 176 416 outlet;
#X obj 176 84 random 155;
#X obj 96 159 random 155;
#X obj 77 269 random 155;
#X obj 176 106 + 100;
#X obj 96 181 + 100;
#X obj 77 291 + 100;
#X connect 0 0 1 0;
#X connect 0 1 1 1;
#X connect 1 0 2 0;
#X connect 2 0 3 0;
#X connect 2 1 3 1;
#X connect 3 0 7 0;
#X connect 4 0 3 0;
#X connect 5 0 1 0;
#X connect 6 0 0 0;
#X connect 7 0 17 0;
#X connect 8 0 4 0;
#X connect 9 0 5 0;
#X connect 10 0 6 0;
#X connect 11 0 20 0;
#X connect 11 1 19 0;
#X connect 11 2 18 0;
#X connect 12 0 11 0;
#X connect 13 0 12 0;
#X connect 18 0 21 0;
#X connect 19 0 22 0;
#X connect 20 0 23 0;
#X connect 21 0 10 0;
#X connect 22 0 9 0;
#X connect 23 0 8 0;
#X restore 23 118 pd randomcolor;
#X msg 23 140 color \$1;
#X obj 78 28 t a b;
#X connect 0 0 6 0;
#X connect 1 0 2 0;
#X connect 2 0 3 0;
#X connect 4 0 5 0;
#X connect 5 0 1 0;
#X connect 6 0 2 0;
#X connect 6 1 4 0;
#X coords 0 -1 1 1 21 21 2 20 40;
#X restore 787 17 pd s;
#N canvas 501 322 361 201 s 0;
#X obj 78 6 inlet;
#X obj 23 43 bng 15 250 50 0 empty RELOAD-ALL empty 17 7 0 10 -237466
-1 -1;
#X msg 78 58 0 0.5;
#X obj 78 80 outlet;
#N canvas 3 90 341 467 randomcolor 0;
#X obj 176 172 t b f;
#X obj 176 262 +;
#X obj 176 284 t b f;
#X obj 176 372 +;
#X obj 77 335 * -65536;
#X obj 96 225 * -256;
#X obj 176 150 * -1;
#X obj 176 394 - 1;
#X obj 77 313 int;
#X obj 96 203 int;
#X obj 176 128 int;
#X obj 77 67 t b b b;
#X obj 77 47 bng 15 250 50 0 empty empty empty 17 7 0 10 -262144 -1
-1;
#X obj 77 25 inlet;
#X text 64 233 R;
#X text 84 131 G;
#X text 144 89 B;
#X obj 176 416 outlet;
#X obj 176 84 random 155;
#X obj 96 159 random 155;
#X obj 77 269 random 155;
#X obj 176 106 + 100;
#X obj 96 181 + 100;
#X obj 77 291 + 100;
#X connect 0 0 1 0;
#X connect 0 1 1 1;
#X connect 1 0 2 0;
#X connect 2 0 3 0;
#X connect 2 1 3 1;
#X connect 3 0 7 0;
#X connect 4 0 3 0;
#X connect 5 0 1 0;
#X connect 6 0 0 0;
#X connect 7 0 17 0;
#X connect 8 0 4 0;
#X connect 9 0 5 0;
#X connect 10 0 6 0;
#X connect 11 0 20 0;
#X connect 11 1 19 0;
#X connect 11 2 18 0;
#X connect 12 0 11 0;
#X connect 13 0 12 0;
#X connect 18 0 21 0;
#X connect 19 0 22 0;
#X connect 20 0 23 0;
#X connect 21 0 10 0;
#X connect 22 0 9 0;
#X connect 23 0 8 0;
#X restore 23 118 pd randomcolor;
#X msg 23 140 color \$1;
#X obj 78 28 t a b;
#X connect 0 0 6 0;
#X connect 1 0 2 0;
#X connect 2 0 3 0;
#X connect 4 0 5 0;
#X connect 5 0 1 0;
#X connect 6 0 2 0;
#X connect 6 1 4 0;
#X coords 0 -1 1 1 21 21 2 20 40;
#X restore 759 194 pd s;
#X obj 624 286 mx~;
#N canvas 501 322 361 201 s 0;
#X obj 78 6 inlet;
#X obj 23 43 bng 15 250 50 0 empty RELOAD-ALL empty 17 7 0 10 -150646
-1 -1;
#X msg 78 58 0.6;
#X obj 78 80 outlet;
#N canvas 3 90 341 467 randomcolor 0;
#X obj 176 172 t b f;
#X obj 176 262 +;
#X obj 176 284 t b f;
#X obj 176 372 +;
#X obj 77 335 * -65536;
#X obj 96 225 * -256;
#X obj 176 150 * -1;
#X obj 176 394 - 1;
#X obj 77 313 int;
#X obj 96 203 int;
#X obj 176 128 int;
#X obj 77 67 t b b b;
#X obj 77 47 bng 15 250 50 0 empty empty empty 17 7 0 10 -262144 -1
-1;
#X obj 77 25 inlet;
#X text 64 233 R;
#X text 84 131 G;
#X text 144 89 B;
#X obj 176 416 outlet;
#X obj 176 84 random 155;
#X obj 96 159 random 155;
#X obj 77 269 random 155;
#X obj 176 106 + 100;
#X obj 96 181 + 100;
#X obj 77 291 + 100;
#X connect 0 0 1 0;
#X connect 0 1 1 1;
#X connect 1 0 2 0;
#X connect 2 0 3 0;
#X connect 2 1 3 1;
#X connect 3 0 7 0;
#X connect 4 0 3 0;
#X connect 5 0 1 0;
#X connect 6 0 0 0;
#X connect 7 0 17 0;
#X connect 8 0 4 0;
#X connect 9 0 5 0;
#X connect 10 0 6 0;
#X connect 11 0 20 0;
#X connect 11 1 19 0;
#X connect 11 2 18 0;
#X connect 12 0 11 0;
#X connect 13 0 12 0;
#X connect 18 0 21 0;
#X connect 19 0 22 0;
#X connect 20 0 23 0;
#X connect 21 0 10 0;
#X connect 22 0 9 0;
#X connect 23 0 8 0;
#X restore 23 118 pd randomcolor;
#X msg 23 140 color \$1;
#X obj 78 28 t a b;
#X connect 0 0 6 0;
#X connect 1 0 2 0;
#X connect 2 0 3 0;
#X connect 4 0 5 0;
#X connect 5 0 1 0;
#X connect 6 0 2 0;
#X connect 6 1 4 0;
#X coords 0 -1 1 1 21 21 2 20 40;
#X restore 699 321 pd s;
#X obj 224 400 throw~ b;
#X obj 424 400 throw~ c;
#X obj 624 400 throw~ d;
#X obj 24 625 gpui~;
#N canvas 501 322 361 201 s 0;
#X obj 78 6 inlet;
#X obj 23 43 bng 15 250 50 0 empty RELOAD-ALL empty 17 7 0 10 -186348
-1 -1;
#X msg 78 58 44100 2.77711e+06 3.24608e+06 -0.4;
#X obj 78 80 outlet;
#N canvas 3 90 341 467 randomcolor 0;
#X obj 176 172 t b f;
#X obj 176 262 +;
#X obj 176 284 t b f;
#X obj 176 372 +;
#X obj 77 335 * -65536;
#X obj 96 225 * -256;
#X obj 176 150 * -1;
#X obj 176 394 - 1;
#X obj 77 313 int;
#X obj 96 203 int;
#X obj 176 128 int;
#X obj 77 67 t b b b;
#X obj 77 47 bng 15 250 50 0 empty empty empty 17 7 0 10 -262144 -1
-1;
#X obj 77 25 inlet;
#X text 64 233 R;
#X text 84 131 G;
#X text 144 89 B;
#X obj 176 416 outlet;
#X obj 176 84 random 155;
#X obj 96 159 random 155;
#X obj 77 269 random 155;
#X obj 176 106 + 100;
#X obj 96 181 + 100;
#X obj 77 291 + 100;
#X connect 0 0 1 0;
#X connect 0 1 1 1;
#X connect 1 0 2 0;
#X connect 2 0 3 0;
#X connect 2 1 3 1;
#X connect 3 0 7 0;
#X connect 4 0 3 0;
#X connect 5 0 1 0;
#X connect 6 0 0 0;
#X connect 7 0 17 0;
#X connect 8 0 4 0;
#X connect 9 0 5 0;
#X connect 10 0 6 0;
#X connect 11 0 20 0;
#X connect 11 1 19 0;
#X connect 11 2 18 0;
#X connect 12 0 11 0;
#X connect 13 0 12 0;
#X connect 18 0 21 0;
#X connect 19 0 22 0;
#X connect 20 0 23 0;
#X connect 21 0 10 0;
#X connect 22 0 9 0;
#X connect 23 0 8 0;
#X restore 23 118 pd randomcolor;
#X msg 23 140 color \$1;
#X obj 78 28 t a b;
#X connect 0 0 6 0;
#X connect 1 0 2 0;
#X connect 2 0 3 0;
#X connect 4 0 5 0;
#X connect 5 0 1 0;
#X connect 6 0 2 0;
#X connect 6 1 4 0;
#X coords 0 -1 1 1 21 21 2 20 40;
#X restore 187 477 pd s;
#N canvas 501 322 361 201 s 0;
#X obj 78 6 inlet;
#X obj 23 43 bng 15 250 50 0 empty RELOAD-ALL empty 17 7 0 10 -237466
-1 -1;
#X msg 78 58 0 0.5;
#X obj 78 80 outlet;
#N canvas 3 90 341 467 randomcolor 0;
#X obj 176 172 t b f;
#X obj 176 262 +;
#X obj 176 284 t b f;
#X obj 176 372 +;
#X obj 77 335 * -65536;
#X obj 96 225 * -256;
#X obj 176 150 * -1;
#X obj 176 394 - 1;
#X obj 77 313 int;
#X obj 96 203 int;
#X obj 176 128 int;
#X obj 77 67 t b b b;
#X obj 77 47 bng 15 250 50 0 empty empty empty 17 7 0 10 -262144 -1
-1;
#X obj 77 25 inlet;
#X text 64 233 R;
#X text 84 131 G;
#X text 144 89 B;
#X obj 176 416 outlet;
#X obj 176 84 random 155;
#X obj 96 159 random 155;
#X obj 77 269 random 155;
#X obj 176 106 + 100;
#X obj 96 181 + 100;
#X obj 77 291 + 100;
#X connect 0 0 1 0;
#X connect 0 1 1 1;
#X connect 1 0 2 0;
#X connect 2 0 3 0;
#X connect 2 1 3 1;
#X connect 3 0 7 0;
#X connect 4 0 3 0;
#X connect 5 0 1 0;
#X connect 6 0 0 0;
#X connect 7 0 17 0;
#X connect 8 0 4 0;
#X connect 9 0 5 0;
#X connect 10 0 6 0;
#X connect 11 0 20 0;
#X connect 11 1 19 0;
#X connect 11 2 18 0;
#X connect 12 0 11 0;
#X connect 13 0 12 0;
#X connect 18 0 21 0;
#X connect 19 0 22 0;
#X connect 20 0 23 0;
#X connect 21 0 10 0;
#X connect 22 0 9 0;
#X connect 23 0 8 0;
#X restore 23 118 pd randomcolor;
#X msg 23 140 color \$1;
#X obj 78 28 t a b;
#X connect 0 0 6 0;
#X connect 1 0 2 0;
#X connect 2 0 3 0;
#X connect 4 0 5 0;
#X connect 5 0 1 0;
#X connect 6 0 2 0;
#X connect 6 1 4 0;
#X coords 0 -1 1 1 21 21 2 20 40;
#X restore 159 654 pd s;
#X obj 24 746 mx~;
#N canvas 501 322 361 201 s 0;
#X obj 78 6 inlet;
#X obj 23 43 bng 15 250 50 0 empty RELOAD-ALL empty 17 7 0 10 -150646
-1 -1;
#X msg 78 58 0.6;
#X obj 78 80 outlet;
#N canvas 3 90 341 467 randomcolor 0;
#X obj 176 172 t b f;
#X obj 176 262 +;
#X obj 176 284 t b f;
#X obj 176 372 +;
#X obj 77 335 * -65536;
#X obj 96 225 * -256;
#X obj 176 150 * -1;
#X obj 176 394 - 1;
#X obj 77 313 int;
#X obj 96 203 int;
#X obj 176 128 int;
#X obj 77 67 t b b b;
#X obj 77 47 bng 15 250 50 0 empty empty empty 17 7 0 10 -262144 -1
-1;
#X obj 77 25 inlet;
#X text 64 233 R;
#X text 84 131 G;
#X text 144 89 B;
#X obj 176 416 outlet;
#X obj 176 84 random 155;
#X obj 96 159 random 155;
#X obj 77 269 random 155;
#X obj 176 106 + 100;
#X obj 96 181 + 100;
#X obj 77 291 + 100;
#X connect 0 0 1 0;
#X connect 0 1 1 1;
#X connect 1 0 2 0;
#X connect 2 0 3 0;
#X connect 2 1 3 1;
#X connect 3 0 7 0;
#X connect 4 0 3 0;
#X connect 5 0 1 0;
#X connect 6 0 0 0;
#X connect 7 0 17 0;
#X connect 8 0 4 0;
#X connect 9 0 5 0;
#X connect 10 0 6 0;
#X connect 11 0 20 0;
#X connect 11 1 19 0;
#X connect 11 2 18 0;
#X connect 12 0 11 0;
#X connect 13 0 12 0;
#X connect 18 0 21 0;
#X connect 19 0 22 0;
#X connect 20 0 23 0;
#X connect 21 0 10 0;
#X connect 22 0 9 0;
#X connect 23 0 8 0;
#X restore 23 118 pd randomcolor;
#X msg 23 140 color \$1;
#X obj 78 28 t a b;
#X connect 0 0 6 0;
#X connect 1 0 2 0;
#X connect 2 0 3 0;
#X connect 4 0 5 0;
#X connect 5 0 1 0;
#X connect 6 0 2 0;
#X connect 6 1 4 0;
#X coords 0 -1 1 1 21 21 2 20 40;
#X restore 99 781 pd s;
#X obj 224 625 gpui~;
#N canvas 501 322 361 201 s 0;
#X obj 78 6 inlet;
#X obj 23 43 bng 15 250 50 0 empty RELOAD-ALL empty 17 7 0 10 -186348
-1 -1;
#X msg 78 58 44100 2.77711e+06 3.24608e+06 -0.4;
#X obj 78 80 outlet;
#N canvas 3 90 341 467 randomcolor 0;
#X obj 176 172 t b f;
#X obj 176 262 +;
#X obj 176 284 t b f;
#X obj 176 372 +;
#X obj 77 335 * -65536;
#X obj 96 225 * -256;
#X obj 176 150 * -1;
#X obj 176 394 - 1;
#X obj 77 313 int;
#X obj 96 203 int;
#X obj 176 128 int;
#X obj 77 67 t b b b;
#X obj 77 47 bng 15 250 50 0 empty empty empty 17 7 0 10 -262144 -1
-1;
#X obj 77 25 inlet;
#X text 64 233 R;
#X text 84 131 G;
#X text 144 89 B;
#X obj 176 416 outlet;
#X obj 176 84 random 155;
#X obj 96 159 random 155;
#X obj 77 269 random 155;
#X obj 176 106 + 100;
#X obj 96 181 + 100;
#X obj 77 291 + 100;
#X connect 0 0 1 0;
#X connect 0 1 1 1;
#X connect 1 0 2 0;
#X connect 2 0 3 0;
#X connect 2 1 3 1;
#X connect 3 0 7 0;
#X connect 4 0 3 0;
#X connect 5 0 1 0;
#X connect 6 0 0 0;
#X connect 7 0 17 0;
#X connect 8 0 4 0;
#X connect 9 0 5 0;
#X connect 10 0 6 0;
#X connect 11 0 20 0;
#X connect 11 1 19 0;
#X connect 11 2 18 0;
#X connect 12 0 11 0;
#X connect 13 0 12 0;
#X connect 18 0 21 0;
#X connect 19 0 22 0;
#X connect 20 0 23 0;
#X connect 21 0 10 0;
#X connect 22 0 9 0;
#X connect 23 0 8 0;
#X restore 23 118 pd randomcolor;
#X msg 23 140 color \$1;
#X obj 78 28 t a b;
#X connect 0 0 6 0;
#X connect 1 0 2 0;
#X connect 2 0 3 0;
#X connect 4 0 5 0;
#X connect 5 0 1 0;
#X connect 6 0 2 0;
#X connect 6 1 4 0;
#X coords 0 -1 1 1 21 21 2 20 40;
#X restore 387 477 pd s;
#N canvas 501 322 361 201 s 0;
#X obj 78 6 inlet;
#X obj 23 43 bng 15 250 50 0 empty RELOAD-ALL empty 17 7 0 10 -237466
-1 -1;
#X msg 78 58 0 0.5;
#X obj 78 80 outlet;
#N canvas 3 90 341 467 randomcolor 0;
#X obj 176 172 t b f;
#X obj 176 262 +;
#X obj 176 284 t b f;
#X obj 176 372 +;
#X obj 77 335 * -65536;
#X obj 96 225 * -256;
#X obj 176 150 * -1;
#X obj 176 394 - 1;
#X obj 77 313 int;
#X obj 96 203 int;
#X obj 176 128 int;
#X obj 77 67 t b b b;
#X obj 77 47 bng 15 250 50 0 empty empty empty 17 7 0 10 -262144 -1
-1;
#X obj 77 25 inlet;
#X text 64 233 R;
#X text 84 131 G;
#X text 144 89 B;
#X obj 176 416 outlet;
#X obj 176 84 random 155;
#X obj 96 159 random 155;
#X obj 77 269 random 155;
#X obj 176 106 + 100;
#X obj 96 181 + 100;
#X obj 77 291 + 100;
#X connect 0 0 1 0;
#X connect 0 1 1 1;
#X connect 1 0 2 0;
#X connect 2 0 3 0;
#X connect 2 1 3 1;
#X connect 3 0 7 0;
#X connect 4 0 3 0;
#X connect 5 0 1 0;
#X connect 6 0 0 0;
#X connect 7 0 17 0;
#X connect 8 0 4 0;
#X connect 9 0 5 0;
#X connect 10 0 6 0;
#X connect 11 0 20 0;
#X connect 11 1 19 0;
#X connect 11 2 18 0;
#X connect 12 0 11 0;
#X connect 13 0 12 0;
#X connect 18 0 21 0;
#X connect 19 0 22 0;
#X connect 20 0 23 0;
#X connect 21 0 10 0;
#X connect 22 0 9 0;
#X connect 23 0 8 0;
#X restore 23 118 pd randomcolor;
#X msg 23 140 color \$1;
#X obj 78 28 t a b;
#X connect 0 0 6 0;
#X connect 1 0 2 0;
#X connect 2 0 3 0;
#X connect 4 0 5 0;
#X connect 5 0 1 0;
#X connect 6 0 2 0;
#X connect 6 1 4 0;
#X coords 0 -1 1 1 21 21 2 20 40;
#X restore 359 654 pd s;
#X obj 224 746 mx~;
#N canvas 501 322 361 201 s 0;
#X obj 78 6 inlet;
#X obj 23 43 bng 15 250 50 0 empty RELOAD-ALL empty 17 7 0 10 -150646
-1 -1;
#X msg 78 58 0.6;
#X obj 78 80 outlet;
#N canvas 3 90 341 467 randomcolor 0;
#X obj 176 172 t b f;
#X obj 176 262 +;
#X obj 176 284 t b f;
#X obj 176 372 +;
#X obj 77 335 * -65536;
#X obj 96 225 * -256;
#X obj 176 150 * -1;
#X obj 176 394 - 1;
#X obj 77 313 int;
#X obj 96 203 int;
#X obj 176 128 int;
#X obj 77 67 t b b b;
#X obj 77 47 bng 15 250 50 0 empty empty empty 17 7 0 10 -262144 -1
-1;
#X obj 77 25 inlet;
#X text 64 233 R;
#X text 84 131 G;
#X text 144 89 B;
#X obj 176 416 outlet;
#X obj 176 84 random 155;
#X obj 96 159 random 155;
#X obj 77 269 random 155;
#X obj 176 106 + 100;
#X obj 96 181 + 100;
#X obj 77 291 + 100;
#X connect 0 0 1 0;
#X connect 0 1 1 1;
#X connect 1 0 2 0;
#X connect 2 0 3 0;
#X connect 2 1 3 1;
#X connect 3 0 7 0;
#X connect 4 0 3 0;
#X connect 5 0 1 0;
#X connect 6 0 0 0;
#X connect 7 0 17 0;
#X connect 8 0 4 0;
#X connect 9 0 5 0;
#X connect 10 0 6 0;
#X connect 11 0 20 0;
#X connect 11 1 19 0;
#X connect 11 2 18 0;
#X connect 12 0 11 0;
#X connect 13 0 12 0;
#X connect 18 0 21 0;
#X connect 19 0 22 0;
#X connect 20 0 23 0;
#X connect 21 0 10 0;
#X connect 22 0 9 0;
#X connect 23 0 8 0;
#X restore 23 118 pd randomcolor;
#X msg 23 140 color \$1;
#X obj 78 28 t a b;
#X connect 0 0 6 0;
#X connect 1 0 2 0;
#X connect 2 0 3 0;
#X connect 4 0 5 0;
#X connect 5 0 1 0;
#X connect 6 0 2 0;
#X connect 6 1 4 0;
#X coords 0 -1 1 1 21 21 2 20 40;
#X restore 299 781 pd s;
#X obj 424 625 gpui~;
#N canvas 501 322 361 201 s 0;
#X obj 78 6 inlet;
#X obj 23 43 bng 15 250 50 0 empty RELOAD-ALL empty 17 7 0 10 -186348
-1 -1;
#X msg 78 58 44100 2.77711e+06 3.24608e+06 -0.4;
#X obj 78 80 outlet;
#N canvas 3 90 341 467 randomcolor 0;
#X obj 176 172 t b f;
#X obj 176 262 +;
#X obj 176 284 t b f;
#X obj 176 372 +;
#X obj 77 335 * -65536;
#X obj 96 225 * -256;
#X obj 176 150 * -1;
#X obj 176 394 - 1;
#X obj 77 313 int;
#X obj 96 203 int;
#X obj 176 128 int;
#X obj 77 67 t b b b;
#X obj 77 47 bng 15 250 50 0 empty empty empty 17 7 0 10 -262144 -1
-1;
#X obj 77 25 inlet;
#X text 64 233 R;
#X text 84 131 G;
#X text 144 89 B;
#X obj 176 416 outlet;
#X obj 176 84 random 155;
#X obj 96 159 random 155;
#X obj 77 269 random 155;
#X obj 176 106 + 100;
#X obj 96 181 + 100;
#X obj 77 291 + 100;
#X connect 0 0 1 0;
#X connect 0 1 1 1;
#X connect 1 0 2 0;
#X connect 2 0 3 0;
#X connect 2 1 3 1;
#X connect 3 0 7 0;
#X connect 4 0 3 0;
#X connect 5 0 1 0;
#X connect 6 0 0 0;
#X connect 7 0 17 0;
#X connect 8 0 4 0;
#X connect 9 0 5 0;
#X connect 10 0 6 0;
#X connect 11 0 20 0;
#X connect 11 1 19 0;
#X connect 11 2 18 0;
#X connect 12 0 11 0;
#X connect 13 0 12 0;
#X connect 18 0 21 0;
#X connect 19 0 22 0;
#X connect 20 0 23 0;
#X connect 21 0 10 0;
#X connect 22 0 9 0;
#X connect 23 0 8 0;
#X restore 23 118 pd randomcolor;
#X msg 23 140 color \$1;
#X obj 78 28 t a b;
#X connect 0 0 6 0;
#X connect 1 0 2 0;
#X connect 2 0 3 0;
#X connect 4 0 5 0;
#X connect 5 0 1 0;
#X connect 6 0 2 0;
#X connect 6 1 4 0;
#X coords 0 -1 1 1 21 21 2 20 40;
#X restore 587 477 pd s;
#N canvas 501 322 361 201 s 0;
#X obj 78 6 inlet;
#X obj 23 43 bng 15 250 50 0 empty RELOAD-ALL empty 17 7 0 10 -237466
-1 -1;
#X msg 78 58 0 0.5;
#X obj 78 80 outlet;
#N canvas 3 90 341 467 randomcolor 0;
#X obj 176 172 t b f;
#X obj 176 262 +;
#X obj 176 284 t b f;
#X obj 176 372 +;
#X obj 77 335 * -65536;
#X obj 96 225 * -256;
#X obj 176 150 * -1;
#X obj 176 394 - 1;
#X obj 77 313 int;
#X obj 96 203 int;
#X obj 176 128 int;
#X obj 77 67 t b b b;
#X obj 77 47 bng 15 250 50 0 empty empty empty 17 7 0 10 -262144 -1
-1;
#X obj 77 25 inlet;
#X text 64 233 R;
#X text 84 131 G;
#X text 144 89 B;
#X obj 176 416 outlet;
#X obj 176 84 random 155;
#X obj 96 159 random 155;
#X obj 77 269 random 155;
#X obj 176 106 + 100;
#X obj 96 181 + 100;
#X obj 77 291 + 100;
#X connect 0 0 1 0;
#X connect 0 1 1 1;
#X connect 1 0 2 0;
#X connect 2 0 3 0;
#X connect 2 1 3 1;
#X connect 3 0 7 0;
#X connect 4 0 3 0;
#X connect 5 0 1 0;
#X connect 6 0 0 0;
#X connect 7 0 17 0;
#X connect 8 0 4 0;
#X connect 9 0 5 0;
#X connect 10 0 6 0;
#X connect 11 0 20 0;
#X connect 11 1 19 0;
#X connect 11 2 18 0;
#X connect 12 0 11 0;
#X connect 13 0 12 0;
#X connect 18 0 21 0;
#X connect 19 0 22 0;
#X connect 20 0 23 0;
#X connect 21 0 10 0;
#X connect 22 0 9 0;
#X connect 23 0 8 0;
#X restore 23 118 pd randomcolor;
#X msg 23 140 color \$1;
#X obj 78 28 t a b;
#X connect 0 0 6 0;
#X connect 1 0 2 0;
#X connect 2 0 3 0;
#X connect 4 0 5 0;
#X connect 5 0 1 0;
#X connect 6 0 2 0;
#X connect 6 1 4 0;
#X coords 0 -1 1 1 21 21 2 20 40;
#X restore 559 654 pd s;
#X obj 424 746 mx~;
#N canvas 501 322 361 201 s 0;
#X obj 78 6 inlet;
#X obj 23 43 bng 15 250 50 0 empty RELOAD-ALL empty 17 7 0 10 -150646
-1 -1;
#X msg 78 58 0.6;
#X obj 78 80 outlet;
#N canvas 3 90 341 467 randomcolor 0;
#X obj 176 172 t b f;
#X obj 176 262 +;
#X obj 176 284 t b f;
#X obj 176 372 +;
#X obj 77 335 * -65536;
#X obj 96 225 * -256;
#X obj 176 150 * -1;
#X obj 176 394 - 1;
#X obj 77 313 int;
#X obj 96 203 int;
#X obj 176 128 int;
#X obj 77 67 t b b b;
#X obj 77 47 bng 15 250 50 0 empty empty empty 17 7 0 10 -262144 -1
-1;
#X obj 77 25 inlet;
#X text 64 233 R;
#X text 84 131 G;
#X text 144 89 B;
#X obj 176 416 outlet;
#X obj 176 84 random 155;
#X obj 96 159 random 155;
#X obj 77 269 random 155;
#X obj 176 106 + 100;
#X obj 96 181 + 100;
#X obj 77 291 + 100;
#X connect 0 0 1 0;
#X connect 0 1 1 1;
#X connect 1 0 2 0;
#X connect 2 0 3 0;
#X connect 2 1 3 1;
#X connect 3 0 7 0;
#X connect 4 0 3 0;
#X connect 5 0 1 0;
#X connect 6 0 0 0;
#X connect 7 0 17 0;
#X connect 8 0 4 0;
#X connect 9 0 5 0;
#X connect 10 0 6 0;
#X connect 11 0 20 0;
#X connect 11 1 19 0;
#X connect 11 2 18 0;
#X connect 12 0 11 0;
#X connect 13 0 12 0;
#X connect 18 0 21 0;
#X connect 19 0 22 0;
#X connect 20 0 23 0;
#X connect 21 0 10 0;
#X connect 22 0 9 0;
#X connect 23 0 8 0;
#X restore 23 118 pd randomcolor;
#X msg 23 140 color \$1;
#X obj 78 28 t a b;
#X connect 0 0 6 0;
#X connect 1 0 2 0;
#X connect 2 0 3 0;
#X connect 4 0 5 0;
#X connect 5 0 1 0;
#X connect 6 0 2 0;
#X connect 6 1 4 0;
#X coords 0 -1 1 1 21 21 2 20 40;
#X restore 499 781 pd s;
#X obj 624 625 gpui~;
#N canvas 501 322 361 201 s 0;
#X obj 78 6 inlet;
#X obj 23 43 bng 15 250 50 0 empty RELOAD-ALL empty 17 7 0 10 -186348
-1 -1;
#X msg 78 58 44100 2.77711e+06 3.24608e+06 -0.4;
#X obj 78 80 outlet;
#N canvas 3 90 341 467 randomcolor 0;
#X obj 176 172 t b f;
#X obj 176 262 +;
#X obj 176 284 t b f;
#X obj 176 372 +;
#X obj 77 335 * -65536;
#X obj 96 225 * -256;
#X obj 176 150 * -1;
#X obj 176 394 - 1;
#X obj 77 313 int;
#X obj 96 203 int;
#X obj 176 128 int;
#X obj 77 67 t b b b;
#X obj 77 47 bng 15 250 50 0 empty empty empty 17 7 0 10 -262144 -1
-1;
#X obj 77 25 inlet;
#X text 64 233 R;
#X text 84 131 G;
#X text 144 89 B;
#X obj 176 416 outlet;
#X obj 176 84 random 155;
#X obj 96 159 random 155;
#X obj 77 269 random 155;
#X obj 176 106 + 100;
#X obj 96 181 + 100;
#X obj 77 291 + 100;
#X connect 0 0 1 0;
#X connect 0 1 1 1;
#X connect 1 0 2 0;
#X connect 2 0 3 0;
#X connect 2 1 3 1;
#X connect 3 0 7 0;
#X connect 4 0 3 0;
#X connect 5 0 1 0;
#X connect 6 0 0 0;
#X connect 7 0 17 0;
#X connect 8 0 4 0;
#X connect 9 0 5 0;
#X connect 10 0 6 0;
#X connect 11 0 20 0;
#X connect 11 1 19 0;
#X connect 11 2 18 0;
#X connect 12 0 11 0;
#X connect 13 0 12 0;
#X connect 18 0 21 0;
#X connect 19 0 22 0;
#X connect 20 0 23 0;
#X connect 21 0 10 0;
#X connect 22 0 9 0;
#X connect 23 0 8 0;
#X restore 23 118 pd randomcolor;
#X msg 23 140 color \$1;
#X obj 78 28 t a b;
#X connect 0 0 6 0;
#X connect 1 0 2 0;
#X connect 2 0 3 0;
#X connect 4 0 5 0;
#X connect 5 0 1 0;
#X connect 6 0 2 0;
#X connect 6 1 4 0;
#X coords 0 -1 1 1 21 21 2 20 40;
#X restore 787 477 pd s;
#N canvas 501 322 361 201 s 0;
#X obj 78 6 inlet;
#X obj 23 43 bng 15 250 50 0 empty RELOAD-ALL empty 17 7 0 10 -237466
-1 -1;
#X msg 78 58 0 0.5;
#X obj 78 80 outlet;
#N canvas 3 90 341 467 randomcolor 0;
#X obj 176 172 t b f;
#X obj 176 262 +;
#X obj 176 284 t b f;
#X obj 176 372 +;
#X obj 77 335 * -65536;
#X obj 96 225 * -256;
#X obj 176 150 * -1;
#X obj 176 394 - 1;
#X obj 77 313 int;
#X obj 96 203 int;
#X obj 176 128 int;
#X obj 77 67 t b b b;
#X obj 77 47 bng 15 250 50 0 empty empty empty 17 7 0 10 -262144 -1
-1;
#X obj 77 25 inlet;
#X text 64 233 R;
#X text 84 131 G;
#X text 144 89 B;
#X obj 176 416 outlet;
#X obj 176 84 random 155;
#X obj 96 159 random 155;
#X obj 77 269 random 155;
#X obj 176 106 + 100;
#X obj 96 181 + 100;
#X obj 77 291 + 100;
#X connect 0 0 1 0;
#X connect 0 1 1 1;
#X connect 1 0 2 0;
#X connect 2 0 3 0;
#X connect 2 1 3 1;
#X connect 3 0 7 0;
#X connect 4 0 3 0;
#X connect 5 0 1 0;
#X connect 6 0 0 0;
#X connect 7 0 17 0;
#X connect 8 0 4 0;
#X connect 9 0 5 0;
#X connect 10 0 6 0;
#X connect 11 0 20 0;
#X connect 11 1 19 0;
#X connect 11 2 18 0;
#X connect 12 0 11 0;
#X connect 13 0 12 0;
#X connect 18 0 21 0;
#X connect 19 0 22 0;
#X connect 20 0 23 0;
#X connect 21 0 10 0;
#X connect 22 0 9 0;
#X connect 23 0 8 0;
#X restore 23 118 pd randomcolor;
#X msg 23 140 color \$1;
#X obj 78 28 t a b;
#X connect 0 0 6 0;
#X connect 1 0 2 0;
#X connect 2 0 3 0;
#X connect 4 0 5 0;
#X connect 5 0 1 0;
#X connect 6 0 2 0;
#X connect 6 1 4 0;
#X coords 0 -1 1 1 21 21 2 20 40;
#X restore 759 654 pd s;
#X obj 624 746 mx~;
#N canvas 501 322 361 201 s 0;
#X obj 78 6 inlet;
#X obj 23 43 bng 15 250 50 0 empty RELOAD-ALL empty 17 7 0 10 -150646
-1 -1;
#X msg 78 58 0.6;
#X obj 78 80 outlet;
#N canvas 3 90 341 467 randomcolor 0;
#X obj 176 172 t b f;
#X obj 176 262 +;
#X obj 176 284 t b f;
#X obj 176 372 +;
#X obj 77 335 * -65536;
#X obj 96 225 * -256;
#X obj 176 150 * -1;
#X obj 176 394 - 1;
#X obj 77 313 int;
#X obj 96 203 int;
#X obj 176 128 int;
#X obj 77 67 t b b b;
#X obj 77 47 bng 15 250 50 0 empty empty empty 17 7 0 10 -262144 -1
-1;
#X obj 77 25 inlet;
#X text 64 233 R;
#X text 84 131 G;
#X text 144 89 B;
#X obj 176 416 outlet;
#X obj 176 84 random 155;
#X obj 96 159 random 155;
#X obj 77 269 random 155;
#X obj 176 106 + 100;
#X obj 96 181 + 100;
#X obj 77 291 + 100;
#X connect 0 0 1 0;
#X connect 0 1 1 1;
#X connect 1 0 2 0;
#X connect 2 0 3 0;
#X connect 2 1 3 1;
#X connect 3 0 7 0;
#X connect 4 0 3 0;
#X connect 5 0 1 0;
#X connect 6 0 0 0;
#X connect 7 0 17 0;
#X connect 8 0 4 0;
#X connect 9 0 5 0;
#X connect 10 0 6 0;
#X connect 11 0 20 0;
#X connect 11 1 19 0;
#X connect 11 2 18 0;
#X connect 12 0 11 0;
#X connect 13 0 12 0;
#X connect 18 0 21 0;
#X connect 19 0 22 0;
#X connect 20 0 23 0;
#X connect 21 0 10 0;
#X connect 22 0 9 0;
#X connect 23 0 8 0;
#X restore 23 118 pd randomcolor;
#X msg 23 140 color \$1;
#X obj 78 28 t a b;
#X connect 0 0 6 0;
#X connect 1 0 2 0;
#X connect 2 0 3 0;
#X connect 4 0 5 0;
#X connect 5 0 1 0;
#X connect 6 0 2 0;
#X connect 6 1 4 0;
#X coords 0 -1 1 1 21 21 2 20 40;
#X restore 699 781 pd s;
#X obj 24 860 throw~ e;
#X obj 224 860 throw~ f;
#X obj 424 860 throw~ g;
#X obj 624 860 throw~ h;
#X obj 224 49 looper2~;
#X obj 424 49 looper2~;
#X obj 624 49 looper2~;
#X obj 24 509 looper2~;
#X obj 224 509 looper2~;
#X obj 424 509 looper2~;
#X obj 624 509 looper2~;
#X msg 24 21 sequence01.wav;
#X msg 224 21 sequence01.wav;
#X msg 424 21 sequence01.wav;
#X msg 624 21 sequence01.wav;
#X msg 24 481 sequence01.wav;
#X msg 224 481 sequence01.wav;
#X msg 424 481 sequence01.wav;
#X msg 624 481 sequence01.wav;
#X text 1195 1220 .anchor.;
#X obj 25 947 catch~ a;
#X obj 120 947 catch~ b;
#X obj 245 947 catch~ c;
#X obj 340 947 catch~ d;
#X obj 25 1005 ezrec/ezrec~ ab;
#X obj 245 1005 ezrec/ezrec~ cd;
#X obj 465 1005 ezrec/ezrec~ ef;
#X obj 685 1005 ezrec/ezrec~ gh;
#X obj 465 947 catch~ e;
#X obj 560 947 catch~ f;
#X obj 685 947 catch~ g;
#X obj 780 947 catch~ h;
#X obj 1065 721 tgl 15 0 empty empty on_recording4all 17 7 0 10 -262144
-1 -1 0 1;
#X connect 0 0 6 0;
#X connect 0 1 5 0;
#X connect 1 0 0 0;
#X connect 1 2 2 0;
#X connect 2 0 1 1;
#X connect 5 0 0 1;
#X connect 6 0 9 0;
#X connect 6 1 7 0;
#X connect 7 0 6 2;
#X connect 8 0 6 1;
#X connect 8 1 13 1;
#X connect 8 2 18 1;
#X connect 8 3 23 1;
#X connect 8 4 31 1;
#X connect 8 5 36 1;
#X connect 8 6 41 1;
#X connect 8 7 46 1;
#X connect 10 0 13 0;
#X connect 10 1 12 0;
#X connect 11 0 52 1;
#X connect 12 0 10 1;
#X connect 13 0 25 0;
#X connect 13 1 14 0;
#X connect 14 0 13 2;
#X connect 15 0 18 0;
#X connect 15 1 17 0;
#X connect 16 0 53 1;
#X connect 17 0 15 1;
#X connect 18 0 26 0;
#X connect 18 1 19 0;
#X connect 19 0 18 2;
#X connect 20 0 23 0;
#X connect 20 1 22 0;
#X connect 21 0 54 1;
#X connect 22 0 20 1;
#X connect 23 0 27 0;
#X connect 23 1 24 0;
#X connect 24 0 23 2;
#X connect 28 0 31 0;
#X connect 28 1 30 0;
#X connect 29 0 55 1;
#X connect 30 0 28 1;
#X connect 31 0 48 0;
#X connect 31 1 32 0;
#X connect 32 0 31 2;
#X connect 33 0 36 0;
#X connect 33 1 35 0;
#X connect 34 0 56 1;
#X connect 35 0 33 1;
#X connect 36 0 49 0;
#X connect 36 1 37 0;
#X connect 37 0 36 2;
#X connect 38 0 41 0;
#X connect 38 1 40 0;
#X connect 39 0 57 1;
#X connect 40 0 38 1;
#X connect 41 0 50 0;
#X connect 41 1 42 0;
#X connect 42 0 41 2;
#X connect 43 0 46 0;
#X connect 43 1 45 0;
#X connect 44 0 58 1;
#X connect 45 0 43 1;
#X connect 46 0 51 0;
#X connect 46 1 47 0;
#X connect 47 0 46 2;
#X connect 52 0 10 0;
#X connect 52 2 11 0;
#X connect 53 0 15 0;
#X connect 53 2 16 0;
#X connect 54 0 20 0;
#X connect 54 2 21 0;
#X connect 55 0 28 0;
#X connect 55 2 29 0;
#X connect 56 0 33 0;
#X connect 56 2 34 0;
#X connect 57 0 38 0;
#X connect 57 2 39 0;
#X connect 58 0 43 0;
#X connect 58 2 44 0;
#X connect 59 0 1 0;
#X connect 60 0 52 0;
#X connect 61 0 53 0;
#X connect 62 0 54 0;
#X connect 63 0 55 0;
#X connect 64 0 56 0;
#X connect 65 0 57 0;
#X connect 66 0 58 0;
#X connect 68 0 72 0;
#X connect 69 0 72 1;
#X connect 70 0 73 0;
#X connect 71 0 73 1;
#X connect 76 0 74 0;
#X connect 77 0 74 1;
#X connect 78 0 75 0;
#X connect 79 0 75 1;
#X connect 80 0 72 2;
#X connect 80 0 73 2;
#X connect 80 0 74 2;
#X connect 80 0 75 2;
