#N canvas 390 159 718 513 10;
#X msg 24 21 ssm-rec-2.wav;
#X obj 105 195 gpui~;
#X obj 24 59 looper2~;
#N canvas 501 322 361 201 s 0;
#X obj 78 6 inlet;
#X obj 23 43 bng 15 250 50 0 empty RELOAD-ALL empty 17 7 0 10 -214708
-1 -1;
#X msg 78 58 44100 2.78268e+06 3.56603e+06 1;
#X obj 78 80 outlet;
#N canvas 3 90 341 467 randomcolor 0;
#X obj 176 172 t b f;
#X obj 176 262 +;
#X obj 176 284 t b f;
#X obj 176 372 +;
#X obj 77 335 * -65536;
#X obj 96 225 * -256;
#X obj 176 150 * -1;
#X obj 176 394 - 1;
#X obj 77 313 int;
#X obj 96 203 int;
#X obj 176 128 int;
#X obj 77 67 t b b b;
#X obj 77 47 bng 15 250 50 0 empty empty empty 17 7 0 10 -262144 -1
-1;
#X obj 77 25 inlet;
#X text 64 233 R;
#X text 84 131 G;
#X text 144 89 B;
#X obj 176 416 outlet;
#X obj 176 84 random 155;
#X obj 96 159 random 155;
#X obj 77 269 random 155;
#X obj 176 106 + 100;
#X obj 96 181 + 100;
#X obj 77 291 + 100;
#X connect 0 0 1 0;
#X connect 0 1 1 1;
#X connect 1 0 2 0;
#X connect 2 0 3 0;
#X connect 2 1 3 1;
#X connect 3 0 7 0;
#X connect 4 0 3 0;
#X connect 5 0 1 0;
#X connect 6 0 0 0;
#X connect 7 0 17 0;
#X connect 8 0 4 0;
#X connect 9 0 5 0;
#X connect 10 0 6 0;
#X connect 11 0 20 0;
#X connect 11 1 19 0;
#X connect 11 2 18 0;
#X connect 12 0 11 0;
#X connect 13 0 12 0;
#X connect 18 0 21 0;
#X connect 19 0 22 0;
#X connect 20 0 23 0;
#X connect 21 0 10 0;
#X connect 22 0 9 0;
#X connect 23 0 8 0;
#X restore 23 118 pd randomcolor;
#X msg 23 140 color \$1;
#X obj 78 28 t a b;
#X connect 0 0 6 0;
#X connect 1 0 2 0;
#X connect 2 0 3 0;
#X connect 4 0 5 0;
#X connect 5 0 1 0;
#X connect 6 0 2 0;
#X connect 6 1 4 0;
#X coords 0 -1 1 1 21 21 2 20 40;
#X restore 240 104 pd s;
#X obj 624 9 bng 25 250 50 0 SAVE-ALL empty SAVE-ALL 27 7 0 10 -258113
-262144 -1;
#X obj 624 39 bng 25 250 50 0 RELOAD-ALL empty RELOAD-ALL 27 7 0 10
-159808 -262144 -1;
#N canvas 501 322 361 201 s 0;
#X obj 78 6 inlet;
#X obj 23 43 bng 15 250 50 0 empty RELOAD-ALL empty 17 7 0 10 -171824
-1 -1;
#X msg 78 58 -8 0.68745;
#X obj 78 80 outlet;
#N canvas 3 90 341 467 randomcolor 0;
#X obj 176 172 t b f;
#X obj 176 262 +;
#X obj 176 284 t b f;
#X obj 176 372 +;
#X obj 77 335 * -65536;
#X obj 96 225 * -256;
#X obj 176 150 * -1;
#X obj 176 394 - 1;
#X obj 77 313 int;
#X obj 96 203 int;
#X obj 176 128 int;
#X obj 77 67 t b b b;
#X obj 77 47 bng 15 250 50 0 empty empty empty 17 7 0 10 -262144 -1
-1;
#X obj 77 25 inlet;
#X text 64 233 R;
#X text 84 131 G;
#X text 144 89 B;
#X obj 176 416 outlet;
#X obj 176 84 random 155;
#X obj 96 159 random 155;
#X obj 77 269 random 155;
#X obj 176 106 + 100;
#X obj 96 181 + 100;
#X obj 77 291 + 100;
#X connect 0 0 1 0;
#X connect 0 1 1 1;
#X connect 1 0 2 0;
#X connect 2 0 3 0;
#X connect 2 1 3 1;
#X connect 3 0 7 0;
#X connect 4 0 3 0;
#X connect 5 0 1 0;
#X connect 6 0 0 0;
#X connect 7 0 17 0;
#X connect 8 0 4 0;
#X connect 9 0 5 0;
#X connect 10 0 6 0;
#X connect 11 0 20 0;
#X connect 11 1 19 0;
#X connect 11 2 18 0;
#X connect 12 0 11 0;
#X connect 13 0 12 0;
#X connect 18 0 21 0;
#X connect 19 0 22 0;
#X connect 20 0 23 0;
#X connect 21 0 10 0;
#X connect 22 0 9 0;
#X connect 23 0 8 0;
#X restore 23 118 pd randomcolor;
#X msg 23 140 color \$1;
#X obj 78 28 t a b;
#X connect 0 0 6 0;
#X connect 1 0 2 0;
#X connect 2 0 3 0;
#X connect 4 0 5 0;
#X connect 5 0 1 0;
#X connect 6 0 2 0;
#X connect 6 1 4 0;
#X coords 0 -1 1 1 21 21 2 20 40;
#X restore 240 224 pd s;
#X obj 104 319 mx~;
#N canvas 501 322 361 201 s 0;
#X obj 78 6 inlet;
#X obj 23 43 bng 15 250 50 0 empty RELOAD-ALL empty 17 7 0 10 -122667
-1 -1;
#X msg 78 58 0.591735;
#X obj 78 80 outlet;
#N canvas 3 90 341 467 randomcolor 0;
#X obj 176 172 t b f;
#X obj 176 262 +;
#X obj 176 284 t b f;
#X obj 176 372 +;
#X obj 77 335 * -65536;
#X obj 96 225 * -256;
#X obj 176 150 * -1;
#X obj 176 394 - 1;
#X obj 77 313 int;
#X obj 96 203 int;
#X obj 176 128 int;
#X obj 77 67 t b b b;
#X obj 77 47 bng 15 250 50 0 empty empty empty 17 7 0 10 -262144 -1
-1;
#X obj 77 25 inlet;
#X text 64 233 R;
#X text 84 131 G;
#X text 144 89 B;
#X obj 176 416 outlet;
#X obj 176 84 random 155;
#X obj 96 159 random 155;
#X obj 77 269 random 155;
#X obj 176 106 + 100;
#X obj 96 181 + 100;
#X obj 77 291 + 100;
#X connect 0 0 1 0;
#X connect 0 1 1 1;
#X connect 1 0 2 0;
#X connect 2 0 3 0;
#X connect 2 1 3 1;
#X connect 3 0 7 0;
#X connect 4 0 3 0;
#X connect 5 0 1 0;
#X connect 6 0 0 0;
#X connect 7 0 17 0;
#X connect 8 0 4 0;
#X connect 9 0 5 0;
#X connect 10 0 6 0;
#X connect 11 0 20 0;
#X connect 11 1 19 0;
#X connect 11 2 18 0;
#X connect 12 0 11 0;
#X connect 13 0 12 0;
#X connect 18 0 21 0;
#X connect 19 0 22 0;
#X connect 20 0 23 0;
#X connect 21 0 10 0;
#X connect 22 0 9 0;
#X connect 23 0 8 0;
#X restore 23 118 pd randomcolor;
#X msg 23 140 color \$1;
#X obj 78 28 t a b;
#X connect 0 0 6 0;
#X connect 1 0 2 0;
#X connect 2 0 3 0;
#X connect 4 0 5 0;
#X connect 5 0 1 0;
#X connect 6 0 2 0;
#X connect 6 1 4 0;
#X coords 0 -1 1 1 21 21 2 20 40;
#X restore 179 354 pd s;
#X obj 104 459 dac~;
#X obj 166 446 throw~ live;
#X obj 550 243 catch~ live;
#X obj 510 291 ezrec/ezrec~;
#X connect 0 0 2 0;
#X connect 1 0 7 0;
#X connect 1 1 6 0;
#X connect 2 1 1 0;
#X connect 2 2 3 0;
#X connect 3 0 2 1;
#X connect 6 0 1 1;
#X connect 7 0 9 0;
#X connect 7 0 10 0;
#X connect 7 1 8 0;
#X connect 8 0 7 1;
#X connect 11 0 12 0;
#X connect 11 0 12 1;
