#N canvas 3 90 1265 707 10;
#X obj 25 195 gpui~;
#X obj 24 59 sources/looper2~;
#N canvas 501 322 361 201 s 0;
#X obj 78 6 inlet;
#X obj 23 43 bng 15 250 50 0 empty RELOAD-ALL empty 17 7 0 10 -186348
-1 -1;
#X msg 78 58 44100 2.77711e+06 3.24608e+06 -0.4;
#X obj 78 80 outlet;
#N canvas 3 90 341 467 randomcolor 0;
#X obj 176 172 t b f;
#X obj 176 262 +;
#X obj 176 284 t b f;
#X obj 176 372 +;
#X obj 77 335 * -65536;
#X obj 96 225 * -256;
#X obj 176 150 * -1;
#X obj 176 394 - 1;
#X obj 77 313 int;
#X obj 96 203 int;
#X obj 176 128 int;
#X obj 77 67 t b b b;
#X obj 77 47 bng 15 250 50 0 empty empty empty 17 7 0 10 -262144 -1
-1;
#X obj 77 25 inlet;
#X text 64 233 R;
#X text 84 131 G;
#X text 144 89 B;
#X obj 176 416 outlet;
#X obj 176 84 random 155;
#X obj 96 159 random 155;
#X obj 77 269 random 155;
#X obj 176 106 + 100;
#X obj 96 181 + 100;
#X obj 77 291 + 100;
#X connect 0 0 1 0;
#X connect 0 1 1 1;
#X connect 1 0 2 0;
#X connect 2 0 3 0;
#X connect 2 1 3 1;
#X connect 3 0 7 0;
#X connect 4 0 3 0;
#X connect 5 0 1 0;
#X connect 6 0 0 0;
#X connect 7 0 17 0;
#X connect 8 0 4 0;
#X connect 9 0 5 0;
#X connect 10 0 6 0;
#X connect 11 0 20 0;
#X connect 11 1 19 0;
#X connect 11 2 18 0;
#X connect 12 0 11 0;
#X connect 13 0 12 0;
#X connect 18 0 21 0;
#X connect 19 0 22 0;
#X connect 20 0 23 0;
#X connect 21 0 10 0;
#X connect 22 0 9 0;
#X connect 23 0 8 0;
#X restore 23 118 pd randomcolor;
#X msg 23 140 color \$1;
#X obj 78 28 t a b;
#X connect 0 0 6 0;
#X connect 1 0 2 0;
#X connect 2 0 3 0;
#X connect 4 0 5 0;
#X connect 5 0 1 0;
#X connect 6 0 2 0;
#X connect 6 1 4 0;
#X coords 0 -1 1 1 21 21 2 20 40;
#X restore 240 104 pd s;
#X obj 1178 16 bng 25 250 50 0 SAVE-ALL empty SAVE-ALL 27 7 0 10 -258113
-262144 -1;
#X obj 1178 46 bng 25 250 50 0 RELOAD-ALL empty RELOAD-ALL 27 7 0 10
-159808 -262144 -1;
#N canvas 501 322 361 201 s 0;
#X obj 78 6 inlet;
#X obj 23 43 bng 15 250 50 0 empty RELOAD-ALL empty 17 7 0 10 -237466
-1 -1;
#X msg 78 58 0 0.5;
#X obj 78 80 outlet;
#N canvas 3 90 341 467 randomcolor 0;
#X obj 176 172 t b f;
#X obj 176 262 +;
#X obj 176 284 t b f;
#X obj 176 372 +;
#X obj 77 335 * -65536;
#X obj 96 225 * -256;
#X obj 176 150 * -1;
#X obj 176 394 - 1;
#X obj 77 313 int;
#X obj 96 203 int;
#X obj 176 128 int;
#X obj 77 67 t b b b;
#X obj 77 47 bng 15 250 50 0 empty empty empty 17 7 0 10 -262144 -1
-1;
#X obj 77 25 inlet;
#X text 64 233 R;
#X text 84 131 G;
#X text 144 89 B;
#X obj 176 416 outlet;
#X obj 176 84 random 155;
#X obj 96 159 random 155;
#X obj 77 269 random 155;
#X obj 176 106 + 100;
#X obj 96 181 + 100;
#X obj 77 291 + 100;
#X connect 0 0 1 0;
#X connect 0 1 1 1;
#X connect 1 0 2 0;
#X connect 2 0 3 0;
#X connect 2 1 3 1;
#X connect 3 0 7 0;
#X connect 4 0 3 0;
#X connect 5 0 1 0;
#X connect 6 0 0 0;
#X connect 7 0 17 0;
#X connect 8 0 4 0;
#X connect 9 0 5 0;
#X connect 10 0 6 0;
#X connect 11 0 20 0;
#X connect 11 1 19 0;
#X connect 11 2 18 0;
#X connect 12 0 11 0;
#X connect 13 0 12 0;
#X connect 18 0 21 0;
#X connect 19 0 22 0;
#X connect 20 0 23 0;
#X connect 21 0 10 0;
#X connect 22 0 9 0;
#X connect 23 0 8 0;
#X restore 23 118 pd randomcolor;
#X msg 23 140 color \$1;
#X obj 78 28 t a b;
#X connect 0 0 6 0;
#X connect 1 0 2 0;
#X connect 2 0 3 0;
#X connect 4 0 5 0;
#X connect 5 0 1 0;
#X connect 6 0 2 0;
#X connect 6 1 4 0;
#X coords 0 -1 1 1 21 21 2 20 40;
#X restore 160 224 pd s;
#X obj 24 319 mx~;
#N canvas 501 322 361 201 s 0;
#X obj 78 6 inlet;
#X obj 23 43 bng 15 250 50 0 empty RELOAD-ALL empty 17 7 0 10 -150646
-1 -1;
#X msg 78 58 0.6;
#X obj 78 80 outlet;
#N canvas 3 90 341 467 randomcolor 0;
#X obj 176 172 t b f;
#X obj 176 262 +;
#X obj 176 284 t b f;
#X obj 176 372 +;
#X obj 77 335 * -65536;
#X obj 96 225 * -256;
#X obj 176 150 * -1;
#X obj 176 394 - 1;
#X obj 77 313 int;
#X obj 96 203 int;
#X obj 176 128 int;
#X obj 77 67 t b b b;
#X obj 77 47 bng 15 250 50 0 empty empty empty 17 7 0 10 -262144 -1
-1;
#X obj 77 25 inlet;
#X text 64 233 R;
#X text 84 131 G;
#X text 144 89 B;
#X obj 176 416 outlet;
#X obj 176 84 random 155;
#X obj 96 159 random 155;
#X obj 77 269 random 155;
#X obj 176 106 + 100;
#X obj 96 181 + 100;
#X obj 77 291 + 100;
#X connect 0 0 1 0;
#X connect 0 1 1 1;
#X connect 1 0 2 0;
#X connect 2 0 3 0;
#X connect 2 1 3 1;
#X connect 3 0 7 0;
#X connect 4 0 3 0;
#X connect 5 0 1 0;
#X connect 6 0 0 0;
#X connect 7 0 17 0;
#X connect 8 0 4 0;
#X connect 9 0 5 0;
#X connect 10 0 6 0;
#X connect 11 0 20 0;
#X connect 11 1 19 0;
#X connect 11 2 18 0;
#X connect 12 0 11 0;
#X connect 13 0 12 0;
#X connect 18 0 21 0;
#X connect 19 0 22 0;
#X connect 20 0 23 0;
#X connect 21 0 10 0;
#X connect 22 0 9 0;
#X connect 23 0 8 0;
#X restore 23 118 pd randomcolor;
#X msg 23 140 color \$1;
#X obj 78 28 t a b;
#X connect 0 0 6 0;
#X connect 1 0 2 0;
#X connect 2 0 3 0;
#X connect 4 0 5 0;
#X connect 5 0 1 0;
#X connect 6 0 2 0;
#X connect 6 1 4 0;
#X coords 0 -1 1 1 21 21 2 20 40;
#X restore 99 354 pd s;
#X obj 245 542 dac~;
#X obj 1058 472 recorded/ezrec~;
#X obj 314 59 sources/looper2~;
#N canvas 501 322 361 201 s 0;
#X obj 78 6 inlet;
#X obj 23 43 bng 15 250 50 0 empty RELOAD-ALL empty 17 7 0 10 -146994
-1 -1;
#X msg 78 58 44100 438385 1.40722e+06 1;
#X obj 78 80 outlet;
#N canvas 3 90 341 467 randomcolor 0;
#X obj 176 172 t b f;
#X obj 176 262 +;
#X obj 176 284 t b f;
#X obj 176 372 +;
#X obj 77 335 * -65536;
#X obj 96 225 * -256;
#X obj 176 150 * -1;
#X obj 176 394 - 1;
#X obj 77 313 int;
#X obj 96 203 int;
#X obj 176 128 int;
#X obj 77 67 t b b b;
#X obj 77 47 bng 15 250 50 0 empty empty empty 17 7 0 10 -262144 -1
-1;
#X obj 77 25 inlet;
#X text 64 233 R;
#X text 84 131 G;
#X text 144 89 B;
#X obj 176 416 outlet;
#X obj 176 84 random 155;
#X obj 96 159 random 155;
#X obj 77 269 random 155;
#X obj 176 106 + 100;
#X obj 96 181 + 100;
#X obj 77 291 + 100;
#X connect 0 0 1 0;
#X connect 0 1 1 1;
#X connect 1 0 2 0;
#X connect 2 0 3 0;
#X connect 2 1 3 1;
#X connect 3 0 7 0;
#X connect 4 0 3 0;
#X connect 5 0 1 0;
#X connect 6 0 0 0;
#X connect 7 0 17 0;
#X connect 8 0 4 0;
#X connect 9 0 5 0;
#X connect 10 0 6 0;
#X connect 11 0 20 0;
#X connect 11 1 19 0;
#X connect 11 2 18 0;
#X connect 12 0 11 0;
#X connect 13 0 12 0;
#X connect 18 0 21 0;
#X connect 19 0 22 0;
#X connect 20 0 23 0;
#X connect 21 0 10 0;
#X connect 22 0 9 0;
#X connect 23 0 8 0;
#X restore 23 118 pd randomcolor;
#X msg 23 140 color \$1;
#X obj 78 28 t a b;
#X connect 0 0 6 0;
#X connect 1 0 2 0;
#X connect 2 0 3 0;
#X connect 4 0 5 0;
#X connect 5 0 1 0;
#X connect 6 0 2 0;
#X connect 6 1 4 0;
#X coords 0 -1 1 1 21 21 2 20 40;
#X restore 530 104 pd s;
#X obj 314 195 gpui~;
#N canvas 501 322 361 201 s 0;
#X obj 78 6 inlet;
#X obj 23 43 bng 15 250 50 0 empty RELOAD-ALL empty 17 7 0 10 -247837
-1 -1;
#X msg 78 58 0 1;
#X obj 78 80 outlet;
#N canvas 3 90 341 467 randomcolor 0;
#X obj 176 172 t b f;
#X obj 176 262 +;
#X obj 176 284 t b f;
#X obj 176 372 +;
#X obj 77 335 * -65536;
#X obj 96 225 * -256;
#X obj 176 150 * -1;
#X obj 176 394 - 1;
#X obj 77 313 int;
#X obj 96 203 int;
#X obj 176 128 int;
#X obj 77 67 t b b b;
#X obj 77 47 bng 15 250 50 0 empty empty empty 17 7 0 10 -262144 -1
-1;
#X obj 77 25 inlet;
#X text 64 233 R;
#X text 84 131 G;
#X text 144 89 B;
#X obj 176 416 outlet;
#X obj 176 84 random 155;
#X obj 96 159 random 155;
#X obj 77 269 random 155;
#X obj 176 106 + 100;
#X obj 96 181 + 100;
#X obj 77 291 + 100;
#X connect 0 0 1 0;
#X connect 0 1 1 1;
#X connect 1 0 2 0;
#X connect 2 0 3 0;
#X connect 2 1 3 1;
#X connect 3 0 7 0;
#X connect 4 0 3 0;
#X connect 5 0 1 0;
#X connect 6 0 0 0;
#X connect 7 0 17 0;
#X connect 8 0 4 0;
#X connect 9 0 5 0;
#X connect 10 0 6 0;
#X connect 11 0 20 0;
#X connect 11 1 19 0;
#X connect 11 2 18 0;
#X connect 12 0 11 0;
#X connect 13 0 12 0;
#X connect 18 0 21 0;
#X connect 19 0 22 0;
#X connect 20 0 23 0;
#X connect 21 0 10 0;
#X connect 22 0 9 0;
#X connect 23 0 8 0;
#X restore 23 118 pd randomcolor;
#X msg 23 140 color \$1;
#X obj 78 28 t a b;
#X connect 0 0 6 0;
#X connect 1 0 2 0;
#X connect 2 0 3 0;
#X connect 4 0 5 0;
#X connect 5 0 1 0;
#X connect 6 0 2 0;
#X connect 6 1 4 0;
#X coords 0 -1 1 1 21 21 2 20 40;
#X restore 449 224 pd s;
#N canvas 501 322 361 201 s 0;
#X obj 78 6 inlet;
#X obj 23 43 bng 15 250 50 0 empty RELOAD-ALL empty 17 7 0 10 -138618
-1 -1;
#X msg 78 58 1.4899;
#X obj 78 80 outlet;
#N canvas 3 90 341 467 randomcolor 0;
#X obj 176 172 t b f;
#X obj 176 262 +;
#X obj 176 284 t b f;
#X obj 176 372 +;
#X obj 77 335 * -65536;
#X obj 96 225 * -256;
#X obj 176 150 * -1;
#X obj 176 394 - 1;
#X obj 77 313 int;
#X obj 96 203 int;
#X obj 176 128 int;
#X obj 77 67 t b b b;
#X obj 77 47 bng 15 250 50 0 empty empty empty 17 7 0 10 -262144 -1
-1;
#X obj 77 25 inlet;
#X text 64 233 R;
#X text 84 131 G;
#X text 144 89 B;
#X obj 176 416 outlet;
#X obj 176 84 random 155;
#X obj 96 159 random 155;
#X obj 77 269 random 155;
#X obj 176 106 + 100;
#X obj 96 181 + 100;
#X obj 77 291 + 100;
#X connect 0 0 1 0;
#X connect 0 1 1 1;
#X connect 1 0 2 0;
#X connect 2 0 3 0;
#X connect 2 1 3 1;
#X connect 3 0 7 0;
#X connect 4 0 3 0;
#X connect 5 0 1 0;
#X connect 6 0 0 0;
#X connect 7 0 17 0;
#X connect 8 0 4 0;
#X connect 9 0 5 0;
#X connect 10 0 6 0;
#X connect 11 0 20 0;
#X connect 11 1 19 0;
#X connect 11 2 18 0;
#X connect 12 0 11 0;
#X connect 13 0 12 0;
#X connect 18 0 21 0;
#X connect 19 0 22 0;
#X connect 20 0 23 0;
#X connect 21 0 10 0;
#X connect 22 0 9 0;
#X connect 23 0 8 0;
#X restore 23 118 pd randomcolor;
#X msg 23 140 color \$1;
#X obj 78 28 t a b;
#X connect 0 0 6 0;
#X connect 1 0 2 0;
#X connect 2 0 3 0;
#X connect 4 0 5 0;
#X connect 5 0 1 0;
#X connect 6 0 2 0;
#X connect 6 1 4 0;
#X coords 0 -1 1 1 21 21 2 20 40;
#X restore 388 354 pd s;
#X obj 1153 414 catch~ live_R;
#X obj 330 486 throw~ live_R;
#X obj 1058 414 catch~ live_L;
#X obj 66 512 throw~ live_L;
#X obj 604 59 sources/looper2~;
#N canvas 501 322 361 201 s 0;
#X obj 78 6 inlet;
#X obj 23 43 bng 15 250 50 0 empty RELOAD-ALL empty 17 7 0 10 -171308
-1 -1;
#X msg 78 58 44100 0 4e+06 1;
#X obj 78 80 outlet;
#N canvas 3 90 341 467 randomcolor 0;
#X obj 176 172 t b f;
#X obj 176 262 +;
#X obj 176 284 t b f;
#X obj 176 372 +;
#X obj 77 335 * -65536;
#X obj 96 225 * -256;
#X obj 176 150 * -1;
#X obj 176 394 - 1;
#X obj 77 313 int;
#X obj 96 203 int;
#X obj 176 128 int;
#X obj 77 67 t b b b;
#X obj 77 47 bng 15 250 50 0 empty empty empty 17 7 0 10 -262144 -1
-1;
#X obj 77 25 inlet;
#X text 64 233 R;
#X text 84 131 G;
#X text 144 89 B;
#X obj 176 416 outlet;
#X obj 176 84 random 155;
#X obj 96 159 random 155;
#X obj 77 269 random 155;
#X obj 176 106 + 100;
#X obj 96 181 + 100;
#X obj 77 291 + 100;
#X connect 0 0 1 0;
#X connect 0 1 1 1;
#X connect 1 0 2 0;
#X connect 2 0 3 0;
#X connect 2 1 3 1;
#X connect 3 0 7 0;
#X connect 4 0 3 0;
#X connect 5 0 1 0;
#X connect 6 0 0 0;
#X connect 7 0 17 0;
#X connect 8 0 4 0;
#X connect 9 0 5 0;
#X connect 10 0 6 0;
#X connect 11 0 20 0;
#X connect 11 1 19 0;
#X connect 11 2 18 0;
#X connect 12 0 11 0;
#X connect 13 0 12 0;
#X connect 18 0 21 0;
#X connect 19 0 22 0;
#X connect 20 0 23 0;
#X connect 21 0 10 0;
#X connect 22 0 9 0;
#X connect 23 0 8 0;
#X restore 23 118 pd randomcolor;
#X msg 23 140 color \$1;
#X obj 78 28 t a b;
#X connect 0 0 6 0;
#X connect 1 0 2 0;
#X connect 2 0 3 0;
#X connect 4 0 5 0;
#X connect 5 0 1 0;
#X connect 6 0 2 0;
#X connect 6 1 4 0;
#X coords 0 -1 1 1 21 21 2 20 40;
#X restore 820 104 pd s;
#X obj 684 195 gpui~;
#N canvas 501 322 361 201 s 0;
#X obj 78 6 inlet;
#X obj 23 43 bng 15 250 50 0 empty RELOAD-ALL empty 17 7 0 10 -236960
-1 -1;
#X msg 78 58 -8 1;
#X obj 78 80 outlet;
#N canvas 3 90 341 467 randomcolor 0;
#X obj 176 172 t b f;
#X obj 176 262 +;
#X obj 176 284 t b f;
#X obj 176 372 +;
#X obj 77 335 * -65536;
#X obj 96 225 * -256;
#X obj 176 150 * -1;
#X obj 176 394 - 1;
#X obj 77 313 int;
#X obj 96 203 int;
#X obj 176 128 int;
#X obj 77 67 t b b b;
#X obj 77 47 bng 15 250 50 0 empty empty empty 17 7 0 10 -262144 -1
-1;
#X obj 77 25 inlet;
#X text 64 233 R;
#X text 84 131 G;
#X text 144 89 B;
#X obj 176 416 outlet;
#X obj 176 84 random 155;
#X obj 96 159 random 155;
#X obj 77 269 random 155;
#X obj 176 106 + 100;
#X obj 96 181 + 100;
#X obj 77 291 + 100;
#X connect 0 0 1 0;
#X connect 0 1 1 1;
#X connect 1 0 2 0;
#X connect 2 0 3 0;
#X connect 2 1 3 1;
#X connect 3 0 7 0;
#X connect 4 0 3 0;
#X connect 5 0 1 0;
#X connect 6 0 0 0;
#X connect 7 0 17 0;
#X connect 8 0 4 0;
#X connect 9 0 5 0;
#X connect 10 0 6 0;
#X connect 11 0 20 0;
#X connect 11 1 19 0;
#X connect 11 2 18 0;
#X connect 12 0 11 0;
#X connect 13 0 12 0;
#X connect 18 0 21 0;
#X connect 19 0 22 0;
#X connect 20 0 23 0;
#X connect 21 0 10 0;
#X connect 22 0 9 0;
#X connect 23 0 8 0;
#X restore 23 118 pd randomcolor;
#X msg 23 140 color \$1;
#X obj 78 28 t a b;
#X connect 0 0 6 0;
#X connect 1 0 2 0;
#X connect 2 0 3 0;
#X connect 4 0 5 0;
#X connect 5 0 1 0;
#X connect 6 0 2 0;
#X connect 6 1 4 0;
#X coords 0 -1 1 1 21 21 2 20 40;
#X restore 819 224 pd s;
#N canvas 501 322 361 201 s 0;
#X obj 78 6 inlet;
#X obj 23 43 bng 15 250 50 0 empty RELOAD-ALL empty 17 7 0 10 -175359
-1 -1;
#X msg 78 58 0.368482;
#X obj 78 80 outlet;
#N canvas 3 90 341 467 randomcolor 0;
#X obj 176 172 t b f;
#X obj 176 262 +;
#X obj 176 284 t b f;
#X obj 176 372 +;
#X obj 77 335 * -65536;
#X obj 96 225 * -256;
#X obj 176 150 * -1;
#X obj 176 394 - 1;
#X obj 77 313 int;
#X obj 96 203 int;
#X obj 176 128 int;
#X obj 77 67 t b b b;
#X obj 77 47 bng 15 250 50 0 empty empty empty 17 7 0 10 -262144 -1
-1;
#X obj 77 25 inlet;
#X text 64 233 R;
#X text 84 131 G;
#X text 144 89 B;
#X obj 176 416 outlet;
#X obj 176 84 random 155;
#X obj 96 159 random 155;
#X obj 77 269 random 155;
#X obj 176 106 + 100;
#X obj 96 181 + 100;
#X obj 77 291 + 100;
#X connect 0 0 1 0;
#X connect 0 1 1 1;
#X connect 1 0 2 0;
#X connect 2 0 3 0;
#X connect 2 1 3 1;
#X connect 3 0 7 0;
#X connect 4 0 3 0;
#X connect 5 0 1 0;
#X connect 6 0 0 0;
#X connect 7 0 17 0;
#X connect 8 0 4 0;
#X connect 9 0 5 0;
#X connect 10 0 6 0;
#X connect 11 0 20 0;
#X connect 11 1 19 0;
#X connect 11 2 18 0;
#X connect 12 0 11 0;
#X connect 13 0 12 0;
#X connect 18 0 21 0;
#X connect 19 0 22 0;
#X connect 20 0 23 0;
#X connect 21 0 10 0;
#X connect 22 0 9 0;
#X connect 23 0 8 0;
#X restore 23 118 pd randomcolor;
#X msg 23 140 color \$1;
#X obj 78 28 t a b;
#X connect 0 0 6 0;
#X connect 1 0 2 0;
#X connect 2 0 3 0;
#X connect 4 0 5 0;
#X connect 5 0 1 0;
#X connect 6 0 2 0;
#X connect 6 1 4 0;
#X coords 0 -1 1 1 21 21 2 20 40;
#X restore 758 354 pd s;
#X obj 655 542 dac~;
#X obj 740 486 throw~ live_R;
#X obj 556 490 throw~ live_L;
#X msg 24 21 glass-shatter.wav;
#X msg 314 21 accorcyth.wav;
#X msg 604 21 interference1.wav;
#N canvas 172 90 1049 707 nanokontrol2 0;
#X floatatom 431 278 5 0 0 0 - - -, f 5;
#X obj 760 437 ctlin;
#X floatatom 760 459 5 0 0 0 - - -, f 5;
#X floatatom 769 476 5 0 0 0 - - -, f 5;
#X floatatom 783 495 5 0 0 0 - - -, f 5;
#X obj 431 256 ctlin 0 1;
#X floatatom 501 278 5 0 0 0 - - -, f 5;
#X obj 501 256 ctlin 1 1;
#X floatatom 571 278 5 0 0 0 - - -, f 5;
#X obj 571 256 ctlin 2 1;
#X floatatom 641 278 5 0 0 0 - - -, f 5;
#X floatatom 711 278 5 0 0 0 - - -, f 5;
#X floatatom 781 278 5 0 0 0 - - -, f 5;
#X obj 641 256 ctlin 3 1;
#X obj 711 256 ctlin 4 1;
#X obj 781 256 ctlin 5 1;
#X floatatom 851 278 5 0 0 0 - - -, f 5;
#X floatatom 921 278 5 0 0 0 - - -, f 5;
#X obj 851 256 ctlin 6 1;
#X obj 921 256 ctlin 7 1;
#X obj 20 39 vsl 15 65 0 127 0 0 empty empty empty 0 -9 0 10 -228856
-4160 -1 0 1;
#X obj 35 39 vsl 15 65 0 127 0 0 empty empty empty 0 -9 0 10 -261234
-4160 -1 0 1;
#X obj 50 39 vsl 15 65 0 127 0 0 empty empty empty 0 -9 0 10 -261682
-4160 -1 0 1;
#X obj 65 39 vsl 15 65 0 127 0 0 empty empty empty 0 -9 0 10 -262130
-4160 -1 0 1;
#X obj 80 39 vsl 15 65 0 127 0 0 empty empty empty 0 -9 0 10 -204786
-4160 -1 0 1;
#X obj 95 39 vsl 15 65 0 127 0 0 empty empty empty 0 -9 0 10 -204800
-4160 -1 0 1;
#X obj 110 39 vsl 15 65 0 127 0 0 empty empty empty 0 -9 0 10 -203904
-4160 -1 0 1;
#X obj 125 39 vsl 15 65 0 127 0 0 empty empty empty 0 -9 0 10 -232576
-4160 -1 0 1;
#X floatatom 711 460 5 0 0 0 - - -, f 5;
#X obj 693 508 midiout;
#X obj 431 319 outlet;
#X obj 431 297 / 127;
#X obj 501 319 outlet;
#X obj 501 297 / 127;
#X obj 571 319 outlet;
#X obj 571 297 / 127;
#X obj 641 319 outlet;
#X obj 641 297 / 127;
#X obj 711 319 outlet;
#X obj 711 297 / 127;
#X obj 781 319 outlet;
#X obj 781 297 / 127;
#X obj 851 319 outlet;
#X obj 851 297 / 127;
#X obj 921 319 outlet;
#X obj 921 297 / 127;
#X connect 0 0 20 0;
#X connect 0 0 31 0;
#X connect 1 0 2 0;
#X connect 1 1 3 0;
#X connect 1 2 4 0;
#X connect 5 0 0 0;
#X connect 6 0 21 0;
#X connect 6 0 33 0;
#X connect 7 0 6 0;
#X connect 8 0 22 0;
#X connect 8 0 35 0;
#X connect 9 0 8 0;
#X connect 10 0 23 0;
#X connect 10 0 37 0;
#X connect 11 0 24 0;
#X connect 11 0 39 0;
#X connect 12 0 25 0;
#X connect 12 0 41 0;
#X connect 13 0 10 0;
#X connect 14 0 11 0;
#X connect 15 0 12 0;
#X connect 16 0 26 0;
#X connect 16 0 43 0;
#X connect 17 0 27 0;
#X connect 17 0 45 0;
#X connect 18 0 16 0;
#X connect 19 0 17 0;
#X connect 28 0 29 0;
#X connect 31 0 30 0;
#X connect 33 0 32 0;
#X connect 35 0 34 0;
#X connect 37 0 36 0;
#X connect 39 0 38 0;
#X connect 41 0 40 0;
#X connect 43 0 42 0;
#X connect 45 0 44 0;
#X coords 0 -1 1 1 120 90 1 20 20;
#X restore 936 93 pd nanokontrol2;
#X obj 313 319 mx~;
#X obj 683 319 mx~;
#X connect 0 0 6 0;
#X connect 0 1 5 0;
#X connect 1 0 0 0;
#X connect 1 2 2 0;
#X connect 2 0 1 1;
#X connect 5 0 0 1;
#X connect 6 0 8 0;
#X connect 6 0 18 0;
#X connect 6 1 7 0;
#X connect 7 0 6 2;
#X connect 10 0 12 0;
#X connect 10 2 11 0;
#X connect 11 0 10 1;
#X connect 12 0 31 0;
#X connect 12 1 13 0;
#X connect 13 0 12 1;
#X connect 14 0 31 2;
#X connect 15 0 9 1;
#X connect 17 0 9 0;
#X connect 19 1 21 0;
#X connect 19 2 20 0;
#X connect 20 0 19 1;
#X connect 21 0 32 0;
#X connect 21 1 22 0;
#X connect 22 0 21 1;
#X connect 23 0 32 2;
#X connect 27 0 1 0;
#X connect 28 0 10 0;
#X connect 29 0 19 0;
#X connect 30 0 6 1;
#X connect 30 1 31 1;
#X connect 30 2 32 1;
#X connect 31 0 8 1;
#X connect 31 0 16 0;
#X connect 31 1 14 0;
#X connect 32 0 26 0;
#X connect 32 0 24 0;
#X connect 32 0 25 0;
#X connect 32 1 23 0;
