#N canvas 493 377 293 249 10;
#X obj 23 40 inlet~;
#X obj 164 67 loadbang;
#X obj 164 96 f \$3;
#N canvas 136 185 346 177 dummy 0;
#X obj 18 15 inlet;
#X obj 18 104 switch~;
#X obj 136 104 outlet~;
#X obj 136 75 *~;
#X obj 199 28 loadbang;
#X obj 199 57 f \$2;
#X obj 136 46 osc~ \$1;
#X obj 18 84 tgl 15 0 empty empty empty 17 7 0 10 -262144 -1 -1 1 1
;
#X connect 0 0 7 0;
#X connect 3 0 2 0;
#X connect 4 0 5 0;
#X connect 5 0 3 1;
#X connect 6 0 3 0;
#X connect 7 0 1 0;
#X restore 93 143 pd dummy;
#X obj 23 160 +~;
#X obj 93 114 <;
#X obj 23 183 outlet~;
#X floatatom 93 86 5 0 0 0 - - -, f 5;
#X obj 93 57 env~;
#X connect 0 0 4 0;
#X connect 0 0 8 0;
#X connect 1 0 2 0;
#X connect 2 0 5 1;
#X connect 3 0 4 1;
#X connect 4 0 6 0;
#X connect 5 0 3 0;
#X connect 7 0 5 0;
#X connect 8 0 7 0;
