#N canvas 801 310 310 218 10;
#X obj 30 32 osc~ 440;
#X obj 30 119 dac~;
#X floatatom 94 15 5 0 0 0 - - -, f 5;
#X obj 30 61 *~;
#X obj 94 43 dbtorms;
#X obj 30 90 spkon~ 22000 0.05 30;
#X connect 0 0 3 0;
#X connect 2 0 4 0;
#X connect 3 0 5 0;
#X connect 4 0 3 1;
#X connect 5 0 1 0;
#X connect 5 0 1 1;
