#N canvas 249 242 340 255 10;
#X obj 116 109 time;
#X obj 34 51 bng 15 250 50 0 empty empty empty 17 7 0 10 -262144 -1
-1;
#X obj 34 109 date;
#X obj 34 71 t b b;
#X obj 34 169 sprintf %s-%s-%s-%s-%s-%s-%s;
#X obj 199 141 int;
#X obj 34 23 inlet;
#X text 101 40 dependency: zexy \, cyclone;
#X text 101 22 get unique time string (each 1ms);
#X obj 34 191 list;
#X obj 34 213 outlet;
#X connect 0 0 4 3;
#X connect 0 1 4 4;
#X connect 0 2 4 5;
#X connect 0 3 5 0;
#X connect 1 0 3 0;
#X connect 2 0 4 0;
#X connect 2 1 4 1;
#X connect 2 2 4 2;
#X connect 3 0 2 0;
#X connect 3 1 0 0;
#X connect 4 0 9 0;
#X connect 5 0 4 6;
#X connect 6 0 1 0;
#X connect 9 0 10 0;
